<?xml version="1.0" encoding="UTF-8" standalone="no"?>
<!-- Created with Inkscape (http://www.inkscape.org/) -->

<svg
   xmlns:dc="http://purl.org/dc/elements/1.1/"
   xmlns:cc="http://creativecommons.org/ns#"
   xmlns:rdf="http://www.w3.org/1999/02/22-rdf-syntax-ns#"
   xmlns:svg="http://www.w3.org/2000/svg"
   xmlns="http://www.w3.org/2000/svg"
   xmlns:sodipodi="http://sodipodi.sourceforge.net/DTD/sodipodi-0.dtd"
   xmlns:inkscape="http://www.inkscape.org/namespaces/inkscape"
   width="56.188908mm"
   height="39.448845mm"
   viewBox="0 0 56.188908 39.448845"
   version="1.1"
   id="svg8"
   inkscape:version="0.92.5 (2060ec1f9f, 2020-04-08)"
   sodipodi:docname="hausdroff-raum.svg">
  <defs
     id="defs2" />
  <sodipodi:namedview
     id="base"
     pagecolor="#ffffff"
     bordercolor="#666666"
     borderopacity="1.0"
     inkscape:pageopacity="0.0"
     inkscape:pageshadow="2"
     inkscape:zoom="2.8125141"
     inkscape:cx="134.88932"
     inkscape:cy="84.045072"
     inkscape:document-units="mm"
     inkscape:current-layer="layer1"
     showgrid="false"
     showborder="true"
     width="200mm"
     showguides="true"
     inkscape:guide-bbox="true"
     inkscape:window-width="636"
     inkscape:window-height="1027"
     inkscape:window-x="640"
     inkscape:window-y="1100"
     inkscape:window-maximized="0">
    <inkscape:grid
       type="xygrid"
       id="grid815"
       units="mm"
       spacingx="10"
       spacingy="10"
       empspacing="4"
       dotted="false"
       originx="-87.650487"
       originy="-38.680157" />
  </sodipodi:namedview>
  <metadata
     id="metadata5">
    <rdf:RDF>
      <cc:Work
         rdf:about="">
        <dc:format>image/svg+xml</dc:format>
        <dc:type
           rdf:resource="http://purl.org/dc/dcmitype/StillImage" />
        <dc:title />
      </cc:Work>
    </rdf:RDF>
  </metadata>
  <g
     inkscape:label="Layer 1"
     inkscape:groupmode="layer"
     id="layer1"
     transform="translate(-87.650486,-218.871)">
    <path
       style="color:#000000;clip-rule:nonzero;display:inline;overflow:visible;visibility:visible;opacity:1;isolation:auto;mix-blend-mode:normal;color-interpolation:sRGB;color-interpolation-filters:linearRGB;solid-color:#000000;solid-opacity:1;vector-effect:none;fill:none;fill-opacity:1;fill-rule:nonzero;stroke:#000000;stroke-width:0.18914762;stroke-linecap:round;stroke-linejoin:round;stroke-miterlimit:4;stroke-dasharray:none;stroke-dashoffset:0;stroke-opacity:1;marker-start:none;marker-end:none;color-rendering:auto;image-rendering:auto;shape-rendering:auto;text-rendering:auto;enable-background:accumulate"
       d="m 143.60776,232.07512 c 2.2816,12.9736 -24.56456,27.68774 -33.36604,26.01953 -4.65008,-0.88139 -7.52383,-7.60987 -11.058457,-10.62464 -2.731792,-2.33003 -7.199652,-0.47733 -9.914482,-4.3366 -4.936611,-7.01764 3.225776,-9.87715 8.781011,-12.67872 5.555248,-2.80155 40.815018,-25.34891 45.557968,1.62043 z"
       id="path24"
       inkscape:connector-curvature="0"
       sodipodi:nodetypes="scsscs" />
    <ellipse
       style="opacity:1;vector-effect:none;fill:#000000;fill-opacity:1;stroke:#000000;stroke-width:0.02575141;stroke-linecap:round;stroke-linejoin:round;stroke-miterlimit:4;stroke-dasharray:none;stroke-dashoffset:0;stroke-opacity:1;marker-start:none;marker-end:none"
       id="path45"
       cx="111.52425"
       cy="233.21809"
       rx="0.40840131"
       ry="0.36136433" />
    <ellipse
       style="opacity:1;vector-effect:none;fill:#000000;fill-opacity:1;stroke:#000000;stroke-width:0.02427268;stroke-linecap:round;stroke-linejoin:round;stroke-miterlimit:4;stroke-dasharray:none;stroke-dashoffset:0;stroke-opacity:1;marker-start:none;marker-end:none"
       id="path45-3"
       cx="126.05863"
       cy="231.90108"
       rx="0.36210385"
       ry="0.36210367" />
    <path
       style="opacity:1;vector-effect:none;fill:#ff0000;fill-opacity:0;stroke:#ff0000;stroke-width:0.26499999;stroke-linecap:round;stroke-linejoin:round;stroke-miterlimit:4;stroke-dasharray:none;stroke-dashoffset:0;stroke-opacity:1;marker-start:none;marker-end:none"
       d="m 129.82157,224.93962 c 0.3763,0 0.75259,0 1.12889,0 0.0627,0 0.12543,0 0.18814,0 0.0314,0 0.0643,-0.01 0.0941,0 0.0665,0.0222 0.12162,0.0719 0.18814,0.0941 0.0893,0.0298 0.19298,-0.0298 0.28222,0 0.0421,0.014 0.052,0.08 0.0941,0.0941 0.0595,0.0198 0.12865,-0.0198 0.18814,0 0.0421,0.014 0.0544,0.0742 0.0941,0.0941 0.0281,0.014 0.0643,-0.01 0.0941,0 0.68142,0.22714 -0.14832,-0.0271 0.28222,0.18815 0.028,0.014 0.0643,-0.01 0.0941,0 0.0665,0.0222 0.12162,0.0719 0.18814,0.0941 0.0297,0.01 0.066,-0.014 0.0941,0 0.0397,0.0198 0.0572,0.0695 0.0941,0.0941 0.0583,0.0389 0.12981,0.0552 0.18815,0.0941 0.0369,0.0246 0.052,0.08 0.0941,0.0941 0.0595,0.0198 0.12865,-0.0198 0.18815,0 0.0421,0.014 0.0572,0.0695 0.0941,0.0941 0.68209,0.34105 -0.14874,-0.0992 0.28222,0.18815 0.11669,0.0778 0.25961,0.11036 0.3763,0.18815 0.0369,0.0246 0.0627,0.0627 0.0941,0.0941 0.0627,0.0627 0.12543,0.12543 0.18815,0.18815 0.0627,0.0627 0.13895,0.11435 0.18815,0.18815 0.0389,0.0583 0.0552,0.1298 0.0941,0.18814 0.0571,0.0856 0.24053,0.19884 0.28222,0.28222 0.0281,0.0561 -0.0281,0.13206 0,0.18815 0.0198,0.0397 0.0742,0.0544 0.0941,0.0941 0.0143,0.0286 0,0.23986 0,0.28223 0,0.0848 0.0197,0.41116 0,0.47036 -0.0222,0.0665 -0.0719,0.12163 -0.0941,0.18815 -0.01,0.0297 0,0.0627 0,0.0941 0,0.0627 0.0198,0.12865 0,0.18814 -0.014,0.0421 -0.0742,0.0544 -0.0941,0.0941 -0.028,0.0561 0.028,0.13205 0,0.18814 -0.0198,0.0397 -0.08,0.052 -0.0941,0.0941 -0.0198,0.0595 0,0.12543 0,0.18815 0,0.0314 0.014,0.066 0,0.0941 -0.0198,0.0397 -0.0742,0.0544 -0.0941,0.0941 -0.0376,0.0753 0.0376,0.20696 0,0.28222 -0.21413,0.21413 -0.0249,-0.0195 -0.0941,0.18815 -0.0222,0.0665 -0.0719,0.12163 -0.0941,0.18815 -0.01,0.0297 0.01,0.0643 0,0.0941 -0.0222,0.0665 -0.0719,0.12163 -0.0941,0.18815 -0.01,0.0297 0.014,0.066 0,0.0941 -0.0199,0.0397 -0.0742,0.0544 -0.0941,0.0941 -0.014,0.028 0.014,0.066 0,0.0941 -0.0198,0.0397 -0.08,0.052 -0.0941,0.0941 -0.0198,0.0595 0,0.12543 0,0.18815 0,0.0314 0.014,0.066 0,0.0941 -0.0198,0.0397 -0.0742,0.0544 -0.0941,0.0941 -0.028,0.0561 0.028,0.13205 0,0.18814 -0.0198,0.0397 -0.0742,0.0544 -0.0941,0.0941 -0.0259,0.0518 0.0245,0.49089 0,0.56444 -0.014,0.0421 -0.0743,0.0544 -0.0941,0.0941 -0.014,0.028 0,0.0627 0,0.0941 0,0.11247 0.0204,0.50304 0,0.56444 -0.0222,0.0665 -0.0719,0.12163 -0.0941,0.18814 -0.017,0.0509 0,0.34425 0,0.3763 0,0.18815 0,0.37629 0,0.56444 0,0.34494 0,0.68988 0,1.03481 0,0.0815 -0.0182,0.3218 0,0.3763 0.0222,0.0665 0.0771,0.12012 0.0941,0.18814 0.0179,0.0715 0,0.39159 0,0.47037 0,0.0627 -0.0152,0.1273 0,0.18815 0.017,0.068 0.0719,0.12163 0.0941,0.18814 0.01,0.0298 0,0.0627 0,0.0941 0,0.15679 0,0.31358 0,0.47037 0,0.36749 0.028,0.01 -0.0941,0.37629 -0.0282,0.0847 0.0282,0.19756 0,0.28222 -0.014,0.0421 -0.0695,0.0572 -0.0941,0.0941 -0.20726,0.0474 -0.0497,0.19353 -0.0941,0.28222 -0.0251,0.0502 -0.23269,0.2327 -0.28222,0.28223 -0.0314,0.0314 -0.0695,0.0572 -0.0941,0.0941 -0.0389,0.0583 -0.0445,0.13857 -0.0941,0.18815 -0.0496,0.0496 -0.1298,0.0552 -0.18814,0.0941 -0.12942,0.0863 -0.0967,0.14513 -0.18815,0.28222 -0.0863,0.12942 -0.14513,0.0968 -0.28222,0.18815 -0.0738,0.0492 -0.11435,0.13895 -0.18815,0.18815 -0.0583,0.0389 -0.1298,0.0552 -0.18815,0.0941 -0.0369,0.0246 -0.0544,0.0742 -0.0941,0.0941 -0.028,0.014 -0.066,-0.014 -0.0941,0 -0.0397,0.0198 -0.0544,0.0742 -0.0941,0.0941 -0.028,0.014 -0.066,-0.014 -0.0941,0 -0.0397,0.0198 -0.0544,0.0742 -0.0941,0.0941 -0.0561,0.028 -0.12865,-0.0198 -0.18815,0 -0.34104,0.11368 -0.0669,0.0446 -0.28222,0.18815 -0.0583,0.0389 -0.12543,0.0627 -0.18815,0.0941 -0.68208,0.34105 0.14875,-0.0992 -0.28222,0.18815 -0.0583,0.0389 -0.13205,0.052 -0.18815,0.0941 -0.10643,0.0798 -0.18814,0.18815 -0.28222,0.28222 -0.0314,0.0314 -0.0627,0.0627 -0.0941,0.0941 -0.0314,0.0314 -0.0742,0.0544 -0.0941,0.0941 -0.0281,0.0561 0.028,0.13205 0,0.18815 -0.0198,0.0397 -0.0743,0.0544 -0.0941,0.0941 -0.014,0.0281 0.014,0.066 0,0.0941 -0.0198,0.0397 -0.0695,0.0572 -0.0941,0.0941 -0.0389,0.0583 -0.0552,0.1298 -0.0941,0.18815 -0.0306,0.0459 -0.33036,0.34566 -0.3763,0.37629 -0.0583,0.0389 -0.1298,0.0552 -0.18815,0.0941 -0.0369,0.0246 -0.0572,0.0695 -0.0941,0.0941 -0.0583,0.0389 -0.12543,0.0627 -0.18815,0.0941 -0.0627,0.0314 -0.12012,0.0771 -0.18814,0.0941 -0.0609,0.0152 -0.12731,-0.0152 -0.18815,0 -0.068,0.017 -0.12012,0.0771 -0.18815,0.0941 -0.12168,0.0304 -0.25461,-0.0304 -0.37629,0 -0.068,0.017 -0.12013,0.0771 -0.18815,0.0941 -0.0608,0.0152 -0.12543,0 -0.18815,0 -0.0627,0 -0.12543,0 -0.18815,0 -0.15679,0 -0.31662,0.0308 -0.47036,0 -0.0688,-0.0138 -0.12012,-0.0771 -0.18815,-0.0941 -0.0608,-0.0152 -0.1273,0.0152 -0.18815,0 -0.068,-0.017 -0.12543,-0.0627 -0.18814,-0.0941 -0.0627,-0.0314 -0.12981,-0.0552 -0.18815,-0.0941 -0.0369,-0.0246 -0.0572,-0.0695 -0.0941,-0.0941 -0.2163,-0.1442 -0.25406,-0.0439 -0.47036,-0.18815 -0.11976,-0.0798 -0.26038,-0.28936 -0.3763,-0.37629 -0.11219,-0.0841 -0.27713,-0.089 -0.37629,-0.18815 -0.3763,-0.3763 0.2195,-0.0314 -0.28222,-0.28222 -0.50173,-0.25086 0.0941,0.0941 -0.28222,-0.28222 -0.0496,-0.0496 -0.12981,-0.0552 -0.18815,-0.0941 -0.0369,-0.0246 -0.0627,-0.0627 -0.0941,-0.0941 -0.0627,-0.0314 -0.12981,-0.0552 -0.18815,-0.0941 -0.0369,-0.0246 -0.0627,-0.0627 -0.0941,-0.0941 -0.0941,-0.0941 -0.18815,-0.18814 -0.28222,-0.28222 -0.0314,-0.0314 -0.0627,-0.0627 -0.0941,-0.0941 -0.0314,-0.0314 -0.08,-0.052 -0.0941,-0.0941 -0.0199,-0.0595 0.0198,-0.12866 0,-0.18815 -0.014,-0.0421 -0.08,-0.052 -0.0941,-0.0941 -0.0198,-0.0595 0,-0.12543 0,-0.18814 0,-0.0627 0,-0.12543 0,-0.18815 0,-0.0815 -0.0181,-0.3218 0,-0.3763 0.0277,-0.0831 0.2326,-0.49 0.28223,-0.56444 0.0571,-0.0856 0.24053,-0.19884 0.28222,-0.28222 0.014,-0.028 -0.0222,-0.0719 0,-0.0941 0.0562,-0.0562 0.18814,0.10168 0.18814,-0.0941 0,-0.0443 -0.0742,-0.0544 -0.0941,-0.0941 -0.014,-0.0281 0.0222,-0.0719 0,-0.0941 -0.0496,-0.0496 -0.12981,-0.0552 -0.18815,-0.0941 -0.13842,-0.0923 -0.23787,-0.28401 -0.37629,-0.37629 -0.0584,-0.0389 -0.12543,-0.0627 -0.18815,-0.0941 -0.0627,-0.0627 -0.11719,-0.13493 -0.18815,-0.18815 -0.0561,-0.0421 -0.13205,-0.052 -0.18814,-0.0941 -0.17561,-0.13171 -0.29477,-0.33867 -0.47037,-0.47037 -0.11219,-0.0841 -0.27713,-0.089 -0.3763,-0.18815 -0.22848,-0.22849 0.028,-0.13814 -0.18815,-0.28222 -0.0583,-0.0389 -0.13856,-0.0445 -0.18814,-0.0941 -0.0496,-0.0496 -0.0552,-0.12981 -0.0941,-0.18815 -0.0246,-0.0369 -0.0742,-0.0544 -0.0941,-0.0941 -0.014,-0.0281 0.014,-0.066 0,-0.0941 -0.21527,-0.43054 0.039,0.3992 -0.18815,-0.28222 -0.01,-0.0297 0.01,-0.0643 0,-0.0941 -0.0222,-0.0665 -0.0719,-0.12163 -0.0941,-0.18815 -0.01,-0.0298 0.01,-0.0643 0,-0.0941 -0.0222,-0.0665 -0.0719,-0.12163 -0.0941,-0.18815 -0.01,-0.0298 0.01,-0.0643 0,-0.0941 -0.11368,-0.34105 -0.0446,-0.067 -0.18815,-0.28222 -0.0389,-0.0583 -0.0627,-0.12544 -0.0941,-0.18815 -0.0314,-0.0627 -0.0771,-0.12013 -0.0941,-0.18815 -0.0152,-0.0608 0.0152,-0.1273 0,-0.18815 -0.017,-0.068 -0.0627,-0.12543 -0.0941,-0.18815 -0.0314,-0.0627 -0.0627,-0.12543 -0.0941,-0.18814 -0.0314,-0.0627 -0.0627,-0.12543 -0.0941,-0.18815 -0.0314,-0.0627 -0.052,-0.13205 -0.0941,-0.18815 -0.0532,-0.071 -0.13493,-0.11719 -0.18815,-0.18814 -0.0458,-0.0611 -0.25692,-0.48853 -0.28222,-0.56445 -0.01,-0.0297 0.01,-0.0643 0,-0.0941 -0.0444,-0.13304 -0.15413,-0.24024 -0.18815,-0.37629 -0.0152,-0.0608 0.0152,-0.12731 0,-0.18815 -0.017,-0.068 -0.0771,-0.12012 -0.0941,-0.18815 -0.0304,-0.12168 0.0304,-0.25461 0,-0.37629 -0.034,-0.13605 -0.1438,-0.24325 -0.18815,-0.3763 -0.01,-0.0297 0.01,-0.0643 0,-0.0941 -0.0222,-0.0665 -0.0771,-0.12012 -0.0941,-0.18815 -0.0152,-0.0608 0.0152,-0.1273 0,-0.18814 0.0567,-0.17027 -0.15239,-0.17496 -0.18815,-0.28222 -0.0198,-0.0595 0.0152,-0.12731 0,-0.18815 -0.017,-0.068 -0.0719,-0.12163 -0.0941,-0.18815 -0.01,-0.0298 0.01,-0.0643 0,-0.0941 -0.0222,-0.0665 -0.0771,-0.12013 -0.0941,-0.18815 -0.0152,-0.0608 0.0152,-0.1273 0,-0.18815 -0.017,-0.068 -0.0719,-0.12162 -0.0941,-0.18814 -0.01,-0.0298 0.01,-0.0643 0,-0.0941 -0.0222,-0.0665 -0.0771,-0.12012 -0.0941,-0.18815 -0.0179,-0.0715 0,-0.39159 0,-0.47036 0,-0.0637 -0.0143,-0.61566 0,-0.65852 0.014,-0.0421 0.08,-0.052 0.0941,-0.0941 0.0198,-0.0595 -0.0198,-0.12865 0,-0.18815 0.014,-0.0421 0.0695,-0.0572 0.0941,-0.0941 0.0389,-0.0583 0.0552,-0.12981 0.0941,-0.18815 0.0335,-0.0503 0.36701,-0.36934 0.37629,-0.37629 0.0561,-0.0421 0.12981,-0.0552 0.18815,-0.0941 0.0369,-0.0246 0.0572,-0.0695 0.0941,-0.0941 0.16547,-0.11031 0.27914,-0.11166 0.47037,-0.18815 0.21935,-0.0877 0.20294,-0.14357 0.47037,-0.18815 0.0928,-0.0154 0.18997,0.0185 0.28222,0 0.0688,-0.0137 0.11939,-0.0803 0.18815,-0.0941 0.0922,-0.0184 0.18997,0.0184 0.28222,0 0.0687,-0.0138 0.11939,-0.0803 0.18814,-0.0941 0.123,-0.0246 0.25087,0 0.3763,0 0.34493,0 0.68987,0 1.03481,0 0.42825,0 0.005,-0.0443 0.28222,0.0941 0.0286,0.0143 0.23985,0 0.28222,0 0.18815,0 0.3763,0 0.56444,0 0.0228,0 0.2792,0.003 0.28222,0 0.0222,-0.0222 -0.0222,-0.0719 0,-0.0941 0.0222,-0.0222 0.0627,0 0.0941,0 0.0314,0 0.0627,0 0.0941,0 0.18815,0 0.37629,0 0.56444,0 0.0424,0 0.25359,0.0143 0.28222,0 0.0397,-0.0198 0.0544,-0.0743 0.0941,-0.0941 0.028,-0.014 0.066,0.014 0.0941,0 0.0397,-0.0198 0.0544,-0.0742 0.0941,-0.0941 0.0281,-0.014 0.066,0.014 0.0941,0 0.0793,-0.0397 0.10881,-0.14848 0.18814,-0.18815 0.028,-0.014 0.066,0.014 0.0941,0 0.0397,-0.0198 0.0544,-0.0742 0.0941,-0.0941 0.0281,-0.014 0.0719,0.0222 0.0941,0 0.0222,-0.0222 -0.0222,-0.0719 0,-0.0941 0.0222,-0.0222 0.066,0.014 0.0941,0 0.0397,-0.0198 0.0544,-0.0743 0.0941,-0.0941 0.0561,-0.0281 0.13206,0.028 0.18815,0 0.0397,-0.0198 0.0544,-0.0742 0.0941,-0.0941 0.0601,-0.0301 0.30058,0.0252 0.3763,0 0.0665,-0.0222 0.12162,-0.0719 0.18814,-0.0941 0.0592,-0.0197 0.38558,0 0.47037,0 0.0424,0 0.25359,-0.0143 0.28222,0 0.0397,0.0198 0.0544,0.0742 0.0941,0.0941 0.028,0.014 0.0627,0 0.0941,0 0.0314,0 0.0627,0 0.0941,0 0.15679,0 0.31358,0 0.47037,0 0.0314,0 0.066,-0.014 0.0941,0 0.0397,0.0198 0.0544,0.0742 0.0941,0.0941 0.0591,0.0296 0.31717,-0.0296 0.37629,0 0.0397,0.0198 0.0627,0.0627 0.0941,0.0941 0.12543,0.0314 0.25086,0.0627 0.37629,0.0941 z"
       id="path836"
       inkscape:connector-curvature="0" />
    <path
       style="opacity:1;vector-effect:none;fill:#ff0000;fill-opacity:0;stroke:#0000ff;stroke-width:0.26499999;stroke-linecap:round;stroke-linejoin:round;stroke-miterlimit:4;stroke-dasharray:none;stroke-dashoffset:0;stroke-opacity:1;marker-start:none;marker-end:none"
       d="m 110.06611,228.13812 c 0.32215,0.0983 0.29078,-0.2865 0.47037,-0.37629 0.0281,-0.014 0.0719,0.0222 0.0941,0 0.0222,-0.0222 -0.0222,-0.0719 0,-0.0941 0.0226,-0.0226 0.35365,0.0226 0.37629,0 0.0222,-0.0222 -0.0222,-0.0719 0,-0.0941 0.0222,-0.0222 0.0627,0 0.0941,0 0.0654,0 0.43635,-0.017 0.47037,0 0.0397,0.0198 0.0544,0.0742 0.0941,0.0941 0.0593,0.0297 0.41102,-0.0297 0.47036,0 0.0397,0.0198 0.0544,0.0742 0.0941,0.0941 0.0561,0.028 0.13205,-0.0281 0.18815,0 0.0397,0.0198 0.0544,0.0742 0.0941,0.0941 0.0281,0.014 0.066,-0.014 0.0941,0 0.0397,0.0198 0.0544,0.0742 0.0941,0.0941 0.028,0.014 0.066,-0.014 0.0941,0 0.0397,0.0198 0.0544,0.0743 0.0941,0.0941 0.0281,0.014 0.0719,-0.0222 0.0941,0 0.0222,0.0222 -0.0222,0.0719 0,0.0941 0.0222,0.0222 0.066,-0.014 0.0941,0 0.0793,0.0397 0.10882,0.14848 0.18815,0.18815 0.0281,0.014 0.066,-0.014 0.0941,0 0.0502,0.0251 0.2327,0.23269 0.28222,0.28222 0.0495,0.0495 0.2571,0.23198 0.28222,0.28222 0.014,0.028 -0.014,0.066 0,0.0941 0.0199,0.0397 0.0742,0.0544 0.0941,0.0941 0.014,0.028 -0.014,0.066 0,0.0941 0.0198,0.0397 0.0742,0.0544 0.0941,0.0941 0.0122,0.0243 0,0.49776 0,0.56444 0,0.0314 -0.0222,0.0719 0,0.0941 0.0222,0.0222 0.0719,-0.0222 0.0941,0 0.0444,0.0443 -0.028,0.13205 0,0.18815 0.0199,0.0397 0.0742,0.0544 0.0941,0.0941 0.014,0.0281 -0.0222,0.0719 0,0.0941 0.0222,0.0222 0.0719,-0.0222 0.0941,0 0.0222,0.0222 -0.014,0.066 0,0.0941 0.0397,0.0793 0.14848,0.10882 0.18815,0.18815 0.014,0.028 -0.0222,0.0719 0,0.0941 0.0222,0.0222 0.066,-0.014 0.0941,0 0.39151,0.19575 -0.10057,-0.006 0.0941,0.18815 0.0222,0.0222 0.0719,-0.0222 0.0941,0 0.0222,0.0222 -0.0222,0.0719 0,0.0941 0.0222,0.0222 0.0719,-0.0222 0.0941,0 0.0222,0.0222 -0.014,0.066 0,0.0941 0.0397,0.0793 0.14848,0.10882 0.18815,0.18815 0.014,0.0281 -0.0222,0.0719 0,0.0941 0.0222,0.0222 0.0719,-0.0222 0.0941,0 0.0222,0.0222 -0.014,0.066 0,0.0941 0.0564,0.11289 0.22578,0.16933 0.28222,0.28222 0.014,0.0281 -0.014,0.066 0,0.0941 0.0199,0.0397 0.0743,0.0544 0.0941,0.0941 0.014,0.0281 -0.0222,0.0719 0,0.0941 0.19464,0.19464 -0.008,-0.29744 0.18814,0.0941 0.014,0.028 -0.014,0.066 0,0.0941 0.0199,0.0397 0.0743,0.0544 0.0941,0.0941 0.0281,0.0561 -0.028,0.13205 0,0.18815 0.0198,0.0397 0.08,0.052 0.0941,0.0941 0.0199,0.0595 -0.0198,0.12865 0,0.18815 0.014,0.0421 0.0742,0.0544 0.0941,0.0941 0.0296,0.0591 -0.0296,0.31717 0,0.37629 0.0198,0.0397 0.0742,0.0544 0.0941,0.0941 0.014,0.028 0,0.0627 0,0.0941 0,0.0314 0,0.0627 0,0.0941 0,0.18814 0,0.37629 0,0.56444 0,0.0314 0,0.0627 0,0.0941 0,0.0314 -0.014,0.066 0,0.0941 0.11625,0.23249 0.0941,-0.0325 0.0941,0.18814 0,0.15679 0,0.31358 0,0.47037 0,0.0314 0,0.0627 0,0.0941 0,0.0313 -0.014,0.066 0,0.0941 0.0199,0.0397 0.0742,0.0544 0.0941,0.0941 0.014,0.0281 0,0.0627 0,0.0941 0,0.14002 -0.014,0.12007 0.0941,0.28222 0.312,0.312 -0.0444,-0.0887 0.0941,0.18814 0.0198,0.0397 0.08,0.052 0.0941,0.0941 0.0198,0.0595 -0.0198,0.12865 0,0.18814 0.028,0.0841 0.14848,0.10882 0.18814,0.18815 0.014,0.028 0,0.0627 0,0.0941 0,0.0627 -0.0198,0.12866 0,0.18815 0.014,0.0421 0.08,0.052 0.0941,0.0941 0.0389,0.11683 -0.0309,0.34667 0,0.47036 0.017,0.068 0.0719,0.12163 0.0941,0.18815 0.0203,0.0609 0,0.39335 0,0.47037 0,0.0314 -0.01,0.0643 0,0.0941 0.0222,0.0665 0.0771,0.12013 0.0941,0.18815 0.0304,0.12168 -0.0246,0.2533 0,0.37629 0.0195,0.0972 0.0746,0.18499 0.0941,0.28222 0.0123,0.0615 -0.0152,0.12731 0,0.18815 0.017,0.068 0.0627,0.12543 0.0941,0.18815 0,0.0941 -0.0184,0.18997 0,0.28222 0.0138,0.0688 0.0803,0.11939 0.0941,0.18815 0.0184,0.0922 -0.0184,0.18997 0,0.28222 0.0138,0.0688 0.0803,0.11939 0.0941,0.18815 0.0184,0.0922 0,0.18814 0,0.28222 0,0.0941 0,0.18814 0,0.28222 0,0.0627 -0.0123,0.12664 0,0.18814 0.0195,0.0972 0.0746,0.18499 0.0941,0.28223 0.0212,0.10609 0,0.34725 0,0.47036 0,0.0627 0,0.12543 0,0.18815 0,0.0627 0.0152,0.1273 0,0.18815 -0.017,0.068 -0.0719,0.12163 -0.0941,0.18814 -0.0297,0.0892 0.0298,0.19298 0,0.28222 -0.014,0.0421 -0.0695,0.0572 -0.0941,0.0941 -0.0389,0.0583 -0.0552,0.1298 -0.0941,0.18815 -0.0246,0.0369 -0.0742,0.0544 -0.0941,0.0941 -0.014,0.0281 0.014,0.066 0,0.0941 -0.0539,0.10785 -0.19629,0.13086 -0.28222,0.18815 -0.0369,0.0246 -0.0627,0.0627 -0.0941,0.0941 -0.13652,0.13653 -0.2729,0.32693 -0.47036,0.3763 -0.0609,0.0152 -0.12731,-0.0152 -0.18815,0 -0.068,0.017 -0.12163,0.0719 -0.18815,0.0941 -0.0298,0.01 -0.0643,-0.01 -0.0941,0 -0.3763,0.12543 0.019,0.0903 -0.47037,0.18815 -0.123,0.0246 -0.2533,-0.0246 -0.37629,0 -0.0972,0.0194 -0.18499,0.0746 -0.28222,0.0941 -0.0615,0.0123 -0.12665,-0.0123 -0.18815,0 -0.0972,0.0195 -0.18441,0.0778 -0.28222,0.0941 -0.18559,0.0309 -0.37819,-0.0266 -0.56444,0 -0.128,0.0183 -0.24831,0.0758 -0.3763,0.0941 -0.0931,0.0133 -0.18909,-0.0133 -0.28222,0 -0.75303,0.10758 -0.0364,0.0993 -0.65851,0.18815 -0.12418,0.0177 -0.25213,-0.0177 -0.3763,0 -0.0982,0.014 -0.18405,0.08 -0.28222,0.0941 -0.12417,0.0177 -0.25086,0 -0.3763,0 -0.15678,0 -0.31357,0 -0.47036,0 -0.0941,0 -0.18815,0 -0.28222,0 -0.0941,0 -0.18998,0.0184 -0.28222,0 -0.0688,-0.0138 -0.12305,-0.068 -0.18815,-0.0941 -0.0921,-0.0368 -0.18499,-0.0746 -0.28222,-0.0941 -0.0615,-0.0123 -0.12731,0.0152 -0.18815,0 -0.068,-0.017 -0.12304,-0.068 -0.18815,-0.0941 -0.0921,-0.0368 -0.19015,-0.0573 -0.28222,-0.0941 -0.0651,-0.026 -0.12012,-0.0771 -0.18814,-0.0941 -0.0609,-0.0152 -0.12731,0.0152 -0.18815,0 -0.068,-0.017 -0.12305,-0.068 -0.18815,-0.0941 -0.13551,-0.0542 -0.3443,-0.0936 -0.47037,-0.18815 -0.0709,-0.0532 -0.11719,-0.13493 -0.18814,-0.18815 -0.0561,-0.0421 -0.12543,-0.0627 -0.18815,-0.0941 -0.0627,-0.0314 -0.12305,-0.068 -0.18815,-0.0941 -0.0921,-0.0368 -0.19719,-0.0431 -0.28222,-0.0941 -0.076,-0.0456 -0.11719,-0.13493 -0.18815,-0.18814 -0.25383,-0.19038 -0.15416,0.002 -0.47036,-0.18815 -0.0761,-0.0456 -0.1172,-0.13493 -0.18815,-0.18815 -0.0561,-0.0421 -0.13205,-0.052 -0.18815,-0.0941 -0.0709,-0.0532 -0.11719,-0.13493 -0.18815,-0.18815 -0.0561,-0.0421 -0.13205,-0.052 -0.18814,-0.0941 -0.0708,-0.0531 -0.41726,-0.39956 -0.47037,-0.47037 -0.0421,-0.0561 -0.0445,-0.13857 -0.0941,-0.18815 -0.0496,-0.0496 -0.13205,-0.052 -0.18814,-0.0941 -0.19019,-0.14264 -0.18607,-0.184 -0.28222,-0.37629 -0.0314,-0.0627 -0.052,-0.13206 -0.0941,-0.18815 -0.23315,-0.31087 -0.1521,-0.051 -0.28222,-0.3763 -0.0368,-0.0921 -0.0572,-0.19015 -0.0941,-0.28222 -0.0521,-0.1302 -0.15414,-0.24024 -0.18815,-0.37629 -0.0152,-0.0608 0.0123,-0.12665 0,-0.18815 -0.0389,-0.19447 -0.14925,-0.36997 -0.18815,-0.56444 -0.0307,-0.15374 0.0258,-0.31571 0,-0.47037 -0.0163,-0.0978 -0.0778,-0.18441 -0.0941,-0.28222 -0.0155,-0.0928 0,-0.18815 0,-0.28222 0,-0.21951 0,-0.43901 0,-0.65852 0,-0.25086 0,-0.50172 0,-0.75258 0,-0.15679 -0.0307,-0.31663 0,-0.47037 0.0138,-0.0688 0.0771,-0.12012 0.0941,-0.18815 0.0152,-0.0608 0,-0.12543 0,-0.18815 0,-0.2195 0,-0.43901 0,-0.65851 0,-0.0627 -0.0152,-0.12731 0,-0.18815 0.017,-0.068 0.0771,-0.12012 0.0941,-0.18815 0.0408,-0.16333 -0.0408,-0.4011 0,-0.56444 0.017,-0.068 0.0719,-0.12163 0.0941,-0.18814 0.0306,-0.0916 -0.0299,-0.38076 0,-0.47037 0.0222,-0.0665 0.0771,-0.12013 0.0941,-0.18815 0.0309,-0.12369 -0.0389,-0.35353 0,-0.47037 0.014,-0.0421 0.08,-0.052 0.0941,-0.0941 0.0333,-0.1 -0.0333,-0.27633 0,-0.3763 0.0222,-0.0665 0.0719,-0.12162 0.0941,-0.18814 0.0198,-0.0595 -0.0281,-0.13206 0,-0.18815 0.0198,-0.0397 0.0742,-0.0544 0.0941,-0.0941 0.014,-0.028 0,-0.0627 0,-0.0941 0,-0.0627 -0.0198,-0.12865 0,-0.18815 0.014,-0.0421 0.0742,-0.0544 0.0941,-0.0941 0.014,-0.028 -0.014,-0.066 0,-0.0941 0.0198,-0.0397 0.0742,-0.0544 0.0941,-0.0941 0.014,-0.028 -0.014,-0.066 0,-0.0941 0.0199,-0.0397 0.08,-0.052 0.0941,-0.0941 0.0198,-0.0595 -0.0199,-0.12865 0,-0.18815 0.014,-0.0421 0.0742,-0.0544 0.0941,-0.0941 0.014,-0.0281 -0.014,-0.066 0,-0.0941 0.0397,-0.0793 0.14848,-0.10881 0.18815,-0.18814 0.014,-0.028 -0.014,-0.066 0,-0.0941 0.0564,-0.11289 0.22577,-0.16933 0.28222,-0.28222 0.014,-0.0281 -0.0222,-0.0719 0,-0.0941 0.0222,-0.0222 0.0719,0.0222 0.0941,0 0.0222,-0.0222 -0.014,-0.066 0,-0.0941 0.0125,-0.025 0.25725,-0.26973 0.28222,-0.28222 0.028,-0.014 0.0719,0.0222 0.0941,0 0.19464,-0.19464 -0.29744,0.008 0.0941,-0.18814 0.0281,-0.014 0.066,0.014 0.0941,0 0.11289,-0.0564 0.16934,-0.22578 0.28222,-0.28222 0.0281,-0.014 0.066,0.014 0.0941,0 0.0793,-0.0397 0.10882,-0.14849 0.18815,-0.18815 0.028,-0.014 0.066,0.014 0.0941,0 0.0397,-0.0198 0.0544,-0.0742 0.0941,-0.0941 0.0281,-0.014 0.066,0.014 0.0941,0 0.0397,-0.0198 0.0544,-0.0742 0.0941,-0.0941 0.028,-0.014 0.066,0.014 0.0941,0 0.0397,-0.0198 0.0544,-0.0742 0.0941,-0.0941 0.028,-0.014 0.066,0.014 0.0941,0 0.0397,-0.0198 0.0544,-0.0742 0.0941,-0.0941 0.028,-0.014 0.0627,0 0.0941,0 0.0314,-0.0314 0.0544,-0.0742 0.0941,-0.0941 0.0281,-0.014 0.066,0.014 0.0941,0 0.0793,-0.0397 0.10881,-0.14848 0.18814,-0.18815 0.0561,-0.028 0.12865,0.0198 0.18815,0 0.0665,-0.0222 0.12163,-0.0719 0.18815,-0.0941 0.0297,-0.01 0.066,0.014 0.0941,0 0.0397,-0.0198 0.0544,-0.0742 0.0941,-0.0941 0.0753,-0.0376 0.20697,0.0376 0.28223,0 0.0397,-0.0198 0.0544,-0.0742 0.0941,-0.0941 0.0373,-0.0186 0.26299,0.0192 0.28222,0 0.0222,-0.0222 -0.0222,-0.0719 0,-0.0941 0.0192,-0.0192 0.24492,0.0187 0.28222,0 0.0397,-0.0198 0.0544,-0.0742 0.0941,-0.0941 0.028,-0.014 0.0627,0 0.0941,0 0.23431,0 0.066,-0.014 0.47036,0.18815 z"
       id="path838"
       inkscape:connector-curvature="0" />
    <text
       id="text842"
       xml:space="preserve"
       style="font-size:2.64583325px;font-family:monospace;-inkscape-font-specification:'monospace, Normal';fill:#000000;fill-opacity:1;stroke:none;stroke-width:0.26458332"
       y="237.58476"
       x="107.37144"><tspan
         id="tspan840"
         sodipodi:role="line"
         x="107.37144"
         y="237.58476"
         style="stroke-width:0.26458332">$x$</tspan></text>
    <text
       id="text856"
       xml:space="preserve"
       style="font-size:2.64583325px;font-family:monospace;-inkscape-font-specification:'monospace, Normal';fill:#000000;fill-opacity:1;stroke:none;stroke-width:0.26458332"
       y="233.27071"
       x="127.69134"><tspan
         id="tspan854"
         sodipodi:role="line"
         x="127.69134"
         y="233.27071"
         style="stroke-width:0.26458332">$y$</tspan></text>
  </g>
</svg>
