<?xml version="1.0" encoding="UTF-8" standalone="no"?>
<!-- Created with Inkscape (http://www.inkscape.org/) -->

<svg
   xmlns:dc="http://purl.org/dc/elements/1.1/"
   xmlns:cc="http://creativecommons.org/ns#"
   xmlns:rdf="http://www.w3.org/1999/02/22-rdf-syntax-ns#"
   xmlns:svg="http://www.w3.org/2000/svg"
   xmlns="http://www.w3.org/2000/svg"
   xmlns:sodipodi="http://sodipodi.sourceforge.net/DTD/sodipodi-0.dtd"
   xmlns:inkscape="http://www.inkscape.org/namespaces/inkscape"
   width="240.43553mm"
   height="58.436592mm"
   viewBox="0 0 240.43553 58.436592"
   version="1.1"
   id="svg8"
   inkscape:version="0.92.5 (2060ec1f9f, 2020-04-08)"
   sodipodi:docname="intervall-und-kreis-sind-homeomorph.svg">
  <defs
     id="defs2" />
  <sodipodi:namedview
     id="base"
     pagecolor="#ffffff"
     bordercolor="#666666"
     borderopacity="1.0"
     inkscape:pageopacity="0.0"
     inkscape:pageshadow="2"
     inkscape:zoom="0.99437388"
     inkscape:cx="303.69557"
     inkscape:cy="4.0252502"
     inkscape:document-units="mm"
     inkscape:current-layer="layer1"
     showgrid="false"
     showborder="true"
     width="200mm"
     showguides="true"
     inkscape:guide-bbox="true"
     inkscape:window-width="1920"
     inkscape:window-height="1080"
     inkscape:window-x="0"
     inkscape:window-y="1080"
     inkscape:window-maximized="0">
    <inkscape:grid
       type="xygrid"
       id="grid815"
       units="mm"
       spacingx="10"
       spacingy="10"
       empspacing="4"
       dotted="false"
       originx="-0.715741"
       originy="-46.481555" />
  </sodipodi:namedview>
  <metadata
     id="metadata5">
    <rdf:RDF>
      <cc:Work
         rdf:about="">
        <dc:format>image/svg+xml</dc:format>
        <dc:type
           rdf:resource="http://purl.org/dc/dcmitype/StillImage" />
        <dc:title />
      </cc:Work>
    </rdf:RDF>
  </metadata>
  <g
     inkscape:label="Layer 1"
     inkscape:groupmode="layer"
     id="layer1"
     transform="translate(-0.71574102,-192.08185)">
    <ellipse
       style="opacity:1;vector-effect:none;fill:none;fill-opacity:1;stroke:#000000;stroke-width:0.78100002;stroke-linecap:round;stroke-linejoin:round;stroke-miterlimit:4;stroke-dasharray:none;stroke-dashoffset:0;stroke-opacity:1;marker-start:none;marker-end:none"
       id="path818"
       cx="159.51517"
       cy="222.89662"
       rx="17.162182"
       ry="16.896101" />
    <ellipse
       style="opacity:1;vector-effect:none;fill:none;fill-opacity:1;stroke:#000000;stroke-width:0.78100002;stroke-linecap:round;stroke-linejoin:round;stroke-miterlimit:4;stroke-dasharray:none;stroke-dashoffset:0;stroke-opacity:1;marker-start:none;marker-end:none"
       id="path818-3"
       cx="66.254005"
       cy="223.82791"
       rx="17.162182"
       ry="16.896101" />
    <rect
       style="opacity:1;vector-effect:none;fill:#ffffff;fill-opacity:1;stroke:none;stroke-width:0.78100002;stroke-linecap:round;stroke-linejoin:round;stroke-miterlimit:4;stroke-dasharray:none;stroke-dashoffset:0;stroke-opacity:1;marker-start:none;marker-end:none"
       id="rect883"
       width="19.956024"
       height="10.643213"
       x="75.034653"
       y="219.30455" />
    <text
       id="text910"
       xml:space="preserve"
       style="font-size:2.64583325px;font-family:monospace;-inkscape-font-specification:'monospace, Normal';fill:#000000;fill-opacity:1;stroke:none;stroke-width:0.26458332"
       y="222.50906"
       x="101.80004"><tspan
         id="tspan908"
         sodipodi:role="line"
         x="101.80004"
         y="222.50906"
         style="stroke-width:0.26458332">$\longmapsto$</tspan></text>
    <path
       style="opacity:1;vector-effect:none;fill:#0000ff;fill-opacity:0;stroke:#0000ff;stroke-width:0.76499999;stroke-linecap:round;stroke-linejoin:round;stroke-miterlimit:4;stroke-dasharray:none;stroke-dashoffset:0;stroke-opacity:1;marker-start:none;marker-end:none"
       d="m 155.12483,204.40404 2.92688,3.19297"
       id="path829"
       inkscape:connector-curvature="0" />
    <path
       style="opacity:1;vector-effect:none;fill:#0000ff;fill-opacity:0;stroke:#0000ff;stroke-width:0.76499999;stroke-linecap:round;stroke-linejoin:round;stroke-miterlimit:4;stroke-dasharray:none;stroke-dashoffset:0;stroke-opacity:1;marker-start:none;marker-end:none"
       d="m 141.55474,215.31334 c 0,2.65189 -0.25087,0.29651 0.26608,1.3304 0.0793,0.15866 -0.12543,0.40673 0,0.53216 0.0627,0.0627 0.20336,-0.0627 0.26608,0 0.12543,0.12543 -0.0793,0.3735 0,0.53216 0.0561,0.11219 0.20998,0.15389 0.26608,0.26608 0.0397,0.0793 0,0.17739 0,0.26608 0.0887,0.0887 0.20998,0.15389 0.26608,0.26608 0.0397,0.0793 -0.0627,0.20336 0,0.26608 0.0627,0.0627 0.20336,-0.0627 0.26608,0 0.0627,0.0627 -0.0397,0.18675 0,0.26608 0.0353,0.0707 0.72759,0.76292 0.79824,0.79824 0.0793,0.0397 0.20336,-0.0627 0.26608,0 0.0627,0.0627 -0.0627,0.20337 0,0.26608 0.12543,0.12543 0.40673,-0.12543 0.53216,0 0.0627,0.0627 -0.0627,0.20337 0,0.26608 0.0885,0.0885 0.44366,-0.0885 0.53216,0 0.0627,0.0627 -0.0627,0.20337 0,0.26608 0.13304,0.13304 0.6652,-0.13304 0.79824,0 0.35478,0.35478 -0.44347,0.26608 0.26608,0.26608"
       id="path831"
       inkscape:connector-curvature="0" />
    <path
       style="opacity:1;vector-effect:none;fill:#0000ff;fill-opacity:0;stroke:#0000ff;stroke-width:0.76499999;stroke-linecap:round;stroke-linejoin:round;stroke-miterlimit:4;stroke-dasharray:none;stroke-dashoffset:0;stroke-opacity:1;marker-start:none;marker-end:none"
       d="m 142.35298,218.24022 c 0.44347,-0.53216 0.88693,-1.06432 1.3304,-1.59648 0,-0.0887 -0.0397,-0.18675 0,-0.26608 0.0561,-0.11219 0.20998,-0.15389 0.26608,-0.26608 0.0397,-0.0793 -0.0397,-0.18675 0,-0.26608 0.0561,-0.11219 0.20998,-0.15389 0.26608,-0.26608 0.0793,-0.15866 -0.0793,-0.3735 0,-0.53216 0.0561,-0.11219 0.20999,-0.15389 0.26608,-0.26608 0.0397,-0.0793 -0.0397,-0.18675 0,-0.26608 0.0561,-0.11219 0.20998,-0.15389 0.26608,-0.26609 0.0793,-0.15865 -0.12543,-0.40672 0,-0.53215 0.0627,-0.0627 0.20336,0.0627 0.26608,0 0.12543,-0.12544 -0.12543,-0.40673 0,-0.53217 0.0627,-0.0627 0.20337,0.0627 0.26608,0 0.12543,-0.12543 -0.12543,-0.40672 0,-0.53216 0.0627,-0.0627 0.20336,0.0627 0.26608,0 0.12543,-0.12543 -0.12543,-0.40673 0,-0.53216 0.0627,-0.0627 0.20336,0.0627 0.26608,0 0.12543,-0.12543 -0.12543,-0.40672 0,-0.53216 0.0627,-0.0627 0.18675,0.0397 0.26608,0 0.11219,-0.0561 0.17739,-0.17738 0.26608,-0.26608 0.0887,-0.0887 0.20999,-0.15389 0.26608,-0.26608 0.0397,-0.0793 -0.0627,-0.20336 0,-0.26608 0.0627,-0.0627 0.20337,0.0627 0.26608,0 0.0627,-0.0627 -0.0627,-0.20336 0,-0.26608 0.0627,-0.0627 0.20337,0.0627 0.26608,0 0.0627,-0.0627 -0.0397,-0.18675 0,-0.26608 0.15965,-0.31929 0.6386,-0.47894 0.79824,-0.79824 0.0397,-0.0793 -0.0627,-0.20336 0,-0.26608 0.12543,-0.12543 0.40673,0.12543 0.53216,0 0.0627,-0.0627 -0.0627,-0.20337 0,-0.26608 0.0627,-0.0627 0.20337,0.0627 0.26609,0 0.0627,-0.0627 -0.0627,-0.20337 0,-0.26608 0.0627,-0.0627 0.20336,0.0627 0.26607,0 0.0627,-0.0627 -0.0627,-0.20337 0,-0.26608 0.12544,-0.12543 0.40673,0.12543 0.53217,0 0.0627,-0.0627 -0.0627,-0.20337 0,-0.26608 0.12543,-0.12543 0.40672,0.12543 0.53216,0 0.0627,-0.0627 -0.0627,-0.20337 0,-0.26608 0.12543,-0.12543 0.40673,0.12543 0.53216,0 0.0627,-0.0627 -0.0627,-0.20337 0,-0.26608 0.12543,-0.12543 0.40673,0.12543 0.53216,0 0.0627,-0.0627 -0.0627,-0.20337 0,-0.26608 0.064,-0.064 1.00029,0.064 1.06432,0 0.0627,-0.0627 -0.0627,-0.20337 0,-0.26608 0.064,-0.064 1.00029,0.064 1.06432,0 0.0627,-0.0627 -0.0627,-0.20337 0,-0.26608 0.064,-0.064 1.00029,0.064 1.06432,0 0.0627,-0.0627 -0.0627,-0.20337 0,-0.26608 0.0107,-0.0107 0.96661,0 1.06432,0 0.0887,0 0.27708,0.088 0.26608,0 -0.0907,-0.72574 -0.35477,-1.4191 -0.53216,-2.12865"
       id="path835"
       inkscape:connector-curvature="0" />
    <path
       style="opacity:1;vector-effect:none;fill:#0000ff;fill-opacity:0;stroke:#0000ff;stroke-width:0.76499999;stroke-linecap:round;stroke-linejoin:round;stroke-miterlimit:4;stroke-dasharray:none;stroke-dashoffset:0;stroke-opacity:1;marker-start:none;marker-end:none"
       d="m 54.812548,211.32213 c -0.354774,0.17739 -0.709549,0.35478 -1.06432,0.53216 0,0.0887 0.06271,0.20337 0,0.26608 -0.06272,0.0627 -0.203367,-0.0627 -0.266081,0 -0.06272,0.0627 0.03966,0.18675 0,0.26608 -0.05609,0.11219 -0.209987,0.15389 -0.266081,0.26608 -0.03966,0.0793 0.06272,0.20337 0,0.26608 -0.06272,0.0627 -0.203364,-0.0627 -0.266081,0 -0.06271,0.0627 0.03967,0.18675 0,0.26608 -0.05609,0.11219 -0.209984,0.1539 -0.266081,0.26608 -0.03966,0.0793 0.06272,0.20337 0,0.26609 -0.06271,0.0627 -0.203364,-0.0627 -0.266078,0 -0.06272,0.0627 0.06271,0.20336 0,0.26608 -0.06272,0.0627 -0.203367,-0.0627 -0.266081,0 -0.125431,0.12543 0.125431,0.40672 0,0.53216 -0.06272,0.0627 -0.203364,-0.0627 -0.266081,0 -0.06272,0.0627 0.03967,0.18675 0,0.26608 -0.05609,0.11219 -0.209986,0.15389 -0.266081,0.26608 -0.03966,0.0793 0.03967,0.18675 0,0.26608 -0.05609,0.11219 -0.209984,0.15389 -0.266081,0.26608 -0.03966,0.0793 0.06272,0.20336 0,0.26608 -0.06271,0.0627 -0.203364,-0.0627 -0.266078,0 -0.13304,0.13304 0.133041,0.6652 0,0.79824 -0.06272,0.0627 -0.203367,-0.0627 -0.266081,0 -0.13304,0.13304 0.133041,0.6652 0,0.79824 -0.06272,0.0627 -0.203364,-0.0627 -0.266081,0 -0.13304,0.13304 0.133041,0.6652 0,0.79824 -0.06271,0.0627 -0.203364,-0.0627 -0.26608,0 -0.08239,0.0824 0.08239,1.24801 0,1.3304 -0.06271,0.0627 -0.203364,-0.0627 -0.266079,0 -0.01071,0.0107 0,0.96661 0,1.06432 0,0.0887 0.08869,0.26608 0,0.26608 -0.08869,0 0,-0.17738 0,-0.26608 0,-0.0887 0,-0.17738 0,-0.26608"
       id="path837"
       inkscape:connector-curvature="0" />
    <path
       style="opacity:1;vector-effect:none;fill:#0000ff;fill-opacity:0;stroke:#0000ff;stroke-width:0.76499999;stroke-linecap:round;stroke-linejoin:round;stroke-miterlimit:4;stroke-dasharray:none;stroke-dashoffset:0;stroke-opacity:1;marker-start:none;marker-end:none"
       d="m 50.023103,220.36886 c -0.97563,-0.17739 -1.951257,-0.35477 -2.926884,-0.53216 0.08869,0 0.181938,-0.028 0.266081,0 0.188145,0.0627 0.344011,0.20337 0.532159,0.26608 0.212786,0.0709 1.080349,-0.05 1.330402,0 0.275026,0.055 0.519483,0.23511 0.798242,0.26608 0.731314,0.0813 1.620462,0 2.394723,0 0.11983,0 0.717261,-0.0405 0.79824,0 0.348829,0.17442 0.338637,0.53775 0.266081,0.53216 -1.163146,-0.0895 -2.306029,-0.35477 -3.459044,-0.53216"
       id="path843"
       inkscape:connector-curvature="0" />
    <path
       style="opacity:1;vector-effect:none;fill:#ff0000;fill-opacity:0;stroke:#0000ff;stroke-width:0.76499999;stroke-linecap:round;stroke-linejoin:round;stroke-miterlimit:4;stroke-dasharray:none;stroke-dashoffset:0;stroke-opacity:1;marker-start:none;marker-end:none"
       d="m 54.812548,211.32213 c 1.193224,-5.06189 -1.06432,-2.12864 -0.798242,-1.59648 0.112191,0.22438 0.438994,0.29924 0.532162,0.53216 0.135813,0.33954 0.02809,0.78667 0.26608,1.06432 0.336569,0.39266 0.926561,0.47517 1.330402,0.79824 0.138515,0.11082 -0.125431,0.40673 0,0.53216 0.06271,0.0627 0.203364,-0.0627 0.266081,0 0.06271,0.0627 -0.03967,0.18675 0,0.26608 0.05609,0.11219 0.354772,0.35478 0.266078,0.26608 -0.620852,-0.62085 -1.241708,-1.24171 -1.862561,-1.86256"
       id="path845"
       inkscape:connector-curvature="0" />
    <path
       style="opacity:1;vector-effect:none;fill:#ff0000;fill-opacity:0;stroke:#ff0000;stroke-width:0.76499999;stroke-linecap:round;stroke-linejoin:round;stroke-miterlimit:4;stroke-dasharray:none;stroke-dashoffset:0;stroke-opacity:1;marker-start:none;marker-end:none"
       d="m 175.34694,216.11158 c 0.57182,1.14365 0.53216,0.66767 0.53216,1.3304 0,0.0887 -0.0627,0.20336 0,0.26608 0.0627,0.0627 0.17739,0 0.26608,0 0,0.0887 -0.0627,0.20336 0,0.26608 0.0627,0.0627 0.20336,-0.0627 0.26608,0 0.12543,0.12543 -0.12543,0.40673 0,0.53216 0.0627,0.0627 0.20336,-0.0627 0.26608,0 0.0627,0.0627 -0.0397,0.18675 0,0.26608 0.0561,0.11219 0.20999,0.15389 0.26608,0.26608 0.0793,0.15866 -0.12543,0.40673 0,0.53216 0.0627,0.0627 0.20336,-0.0627 0.26608,0 0.12543,0.12543 -0.0793,0.3735 0,0.53216 0.0561,0.11219 0.20998,0.15389 0.26608,0.26608 0.0793,0.15866 -0.0793,0.3735 0,0.53216 0.0561,0.11219 0.20999,0.1539 0.26608,0.26608 0.0836,0.16724 -0.0836,0.89709 0,1.06433 0.0561,0.11219 0.20999,0.15389 0.26608,0.26608 0.035,0.07 0,0.92518 0,1.06432 0,0.18507 0.0481,1.23417 0,1.3304 -0.0561,0.11219 -0.20999,0.15389 -0.26608,0.26608 -0.0722,0.14435 0.0728,0.99151 0,1.06432 -0.0627,0.0627 -0.20336,-0.0627 -0.26608,0 -0.13304,0.13304 0.13304,0.6652 0,0.79824 -0.0627,0.0627 -0.20337,-0.0627 -0.26608,0 -0.12543,0.12543 0.0793,0.3735 0,0.53216 -0.0561,0.11219 -0.20999,0.15389 -0.26608,0.26608 -0.0793,0.15866 0.0793,0.3735 0,0.53216 -0.0561,0.11219 -0.20999,0.15389 -0.26608,0.26608 -0.0793,0.15866 0.0793,0.3735 0,0.53216 -0.0561,0.11219 -0.14065,0.26609 -0.26608,0.26609 -0.0887,0 0,-0.17739 0,-0.26609"
       id="path851"
       inkscape:connector-curvature="0" />
    <path
       style="opacity:1;vector-effect:none;fill:#ff0000;fill-opacity:0;stroke:#ff0000;stroke-width:0.76499999;stroke-linecap:round;stroke-linejoin:round;stroke-miterlimit:4;stroke-dasharray:none;stroke-dashoffset:0;stroke-opacity:1;marker-start:none;marker-end:none"
       d="m 175.34694,216.11158 c -0.53216,0.17739 -1.04643,0.42215 -1.59649,0.53216 -0.12299,0.0246 0.17739,-0.17739 0.26609,-0.26608 0.0887,-0.0887 0.14308,-0.24148 0.26608,-0.26608 0.34788,-0.0696 0.71643,0.0696 1.06432,0 0.55005,-0.11001 1.05712,-0.37806 1.59648,-0.53216 0.17056,-0.0487 0.3735,0.0793 0.53216,0 0.11219,-0.0561 0.15389,-0.20999 0.26608,-0.26608 0.15866,-0.0793 0.40673,0.12543 0.53216,0 0.35478,-0.35478 -0.44347,-0.26608 0.26608,-0.26608 0.0887,0 0.35022,-0.0281 0.26608,0 -1.14445,0.38148 -2.30603,0.70955 -3.45904,1.06432"
       id="path853"
       inkscape:connector-curvature="0" />
    <path
       style="opacity:1;vector-effect:none;fill:#ff0000;fill-opacity:0;stroke:#ff0000;stroke-width:0.76499999;stroke-linecap:round;stroke-linejoin:round;stroke-miterlimit:4;stroke-dasharray:none;stroke-dashoffset:0;stroke-opacity:1;marker-start:none;marker-end:none"
       d="m 176.41126,229.14951 c -0.53216,-0.79824 -1.16744,-1.53664 -1.59648,-2.39472 -0.0887,-0.17739 0.36714,0.15607 0.53216,0.26608 0.20873,0.13916 0.30778,0.41997 0.53216,0.53216 0.0793,0.0397 0.18675,-0.0397 0.26608,0 0.11219,0.0561 0.17738,0.17739 0.26608,0.26608 0.0887,0.0887 0.26608,0.14065 0.26608,0.26608 0,0.36569 -0.55863,0.84491 -0.26608,1.06432 0.3618,0.27135 0.87815,-0.26608 1.3304,-0.26608 0.0858,0 0.38432,0.45824 0.53216,0.53217 0.36702,0.18351 0.238,-0.32224 0.53216,0.26608 0.0397,0.0793 -0.0627,0.20336 0,0.26607 0.0627,0.0627 0.20337,-0.0627 0.26608,0 0.0627,0.0627 -0.0627,0.20337 0,0.26609 0.0627,0.0627 0.18675,-0.0397 0.26608,0 0.11219,0.0561 0.15389,0.20998 0.26608,0.26608 0.0793,0.0397 0.20337,-0.0627 0.26608,0 0.0627,0.0627 0.0828,0.29791 0,0.26608 -1.18525,-0.45587 -2.30603,-1.06433 -3.45904,-1.59649"
       id="path855"
       inkscape:connector-curvature="0" />
    <path
       style="opacity:1;vector-effect:none;fill:#ff0000;fill-opacity:0;stroke:#ff0000;stroke-width:0.76499999;stroke-linecap:round;stroke-linejoin:round;stroke-miterlimit:4;stroke-dasharray:none;stroke-dashoffset:0;stroke-opacity:1;marker-start:none;marker-end:none"
       d="m 80.090178,213.98294 c 0.266081,0.35477 0.532162,0.70954 0.798243,1.06432 0.08869,0 0.203364,-0.0627 0.266081,0 0.125431,0.12543 -0.125434,0.40673 0,0.53216 0.06271,0.0627 0.203364,-0.0627 0.266078,0 0.125434,0.12543 -0.125431,0.40673 0,0.53216 0.06272,0.0627 0.203367,-0.0627 0.266081,0 0.06272,0.0627 -0.03966,0.18675 0,0.26608 0.05609,0.11219 0.209986,0.15389 0.266081,0.26608 0.03966,0.0793 -0.06272,0.20336 0,0.26608 0.06272,0.0627 0.203364,-0.0627 0.266081,0 0.13304,0.13304 -0.133041,0.6652 0,0.79824 0.06271,0.0627 0.203364,-0.0627 0.266081,0 0.125431,0.12543 -0.07933,0.3735 0,0.53216 0.05609,0.11219 0.177384,0.17739 0.266078,0.26608"
       id="path857"
       inkscape:connector-curvature="0" />
    <path
       style="opacity:1;vector-effect:none;fill:#ff0000;fill-opacity:0;stroke:#ff0000;stroke-width:0.76499999;stroke-linecap:round;stroke-linejoin:round;stroke-miterlimit:4;stroke-dasharray:none;stroke-dashoffset:0;stroke-opacity:1;marker-start:none;marker-end:none"
       d="m 79.558019,234.7372 c 0.266081,-0.35477 0.532159,-0.70955 0.79824,-1.06432 0.08869,0 0.203364,0.0627 0.266081,0 0.125431,-0.12543 -0.125431,-0.40673 0,-0.53216 0.06272,-0.0627 0.203364,0.0627 0.266081,0 0.06271,-0.0627 -0.03967,-0.18675 0,-0.26608 0.05609,-0.11219 0.209984,-0.15389 0.266081,-0.26608 0.03966,-0.0793 -0.06272,-0.20337 0,-0.26608 0.06271,-0.0627 0.203364,0.0627 0.266078,0 0.0544,-0.0544 -0.05275,-0.69274 0,-0.79824 0.05609,-0.11219 0.209987,-0.15389 0.266081,-0.26608 0.04049,-0.081 0,-0.67841 0,-0.79824"
       id="path859"
       inkscape:connector-curvature="0" />
    <path
       style="opacity:1;vector-effect:none;fill:#ff0000;fill-opacity:0;stroke:#ff0000;stroke-width:0.76499999;stroke-linecap:round;stroke-linejoin:round;stroke-miterlimit:4;stroke-dasharray:none;stroke-dashoffset:0;stroke-opacity:1;marker-start:none;marker-end:none"
       d="m 80.356259,233.67288 c -0.532162,0 -1.074655,-0.10437 -1.596482,0 -0.122995,0.0246 0.209986,0.15389 0.26608,0.26608 0,0.70955 -0.08869,-0.0887 0.266081,0.26608 0.06272,0.0627 -0.06272,0.20336 0,0.26608 0.550529,0.55053 -0.02151,-0.84128 0.532162,0.26608 0.03966,0.0793 -0.06272,0.20337 0,0.26608 0.06271,0.0627 0.186748,-0.0397 0.266078,0 0.112192,0.0561 0.153893,0.20999 0.266081,0.26608 0.07933,0.0397 0.203364,-0.0627 0.266081,0 0.06272,0.0627 -0.06272,0.20337 0,0.26608 0.06272,0.0627 0.186751,-0.0397 0.266081,0 0.112189,0.0561 0.15389,0.20999 0.266081,0.26608 0.07933,0.0397 0.203364,-0.0627 0.266078,0 0.140237,0.14024 -0.104696,0.64744 -0.266078,0.53216 -0.612407,-0.43743 -1.064324,-1.06432 -1.596483,-1.59648"
       id="path865"
       inkscape:connector-curvature="0" />
    <path
       style="opacity:1;vector-effect:none;fill:#ff0000;fill-opacity:0;stroke:#ff0000;stroke-width:0.76499999;stroke-linecap:round;stroke-linejoin:round;stroke-miterlimit:4;stroke-dasharray:none;stroke-dashoffset:0;stroke-opacity:1;marker-start:none;marker-end:none"
       d="m 82.750982,218.5063 c -0.709549,0.44347 -1.380247,0.95621 -2.128642,1.3304 -0.07933,0.0397 -0.06272,-0.20336 0,-0.26608 0.125431,-0.12543 0.373502,0.0793 0.532162,0 0.112188,-0.0561 0.153889,-0.20998 0.266078,-0.26608 0.15866,-0.0793 0.390253,0.10643 0.532162,0 2.724589,-2.04345 -1.501595,0.38777 2.128641,-1.06432 0.08235,-0.0329 0,-0.17739 0,-0.26608 0.08869,0 0.177388,0 0.266081,0 0.624007,0 -0.125431,0.0627 0.532162,-0.26608 0.15866,-0.0793 0.406728,0.12543 0.532159,0 0.06272,-0.0627 -0.06271,-0.20336 0,-0.26608 0.06272,-0.0627 0.34843,-0.0329 0.266081,0 -0.96388,0.38555 -1.951257,0.70955 -2.926884,1.06432"
       id="path869"
       inkscape:connector-curvature="0" />
    <path
       style="opacity:1;vector-effect:none;fill:#ff0000;fill-opacity:0;stroke:#ff0000;stroke-width:0.76499999;stroke-linecap:round;stroke-linejoin:round;stroke-miterlimit:4;stroke-dasharray:none;stroke-dashoffset:0;stroke-opacity:1;marker-start:none;marker-end:none"
       d="m 80.356259,233.67288 c 2.701121,0.45623 0.135512,-1.19983 0.532162,-1.59648 0.06271,-0.0627 0.203364,0.0627 0.266081,0 0.06271,-0.0627 -0.03967,-0.18675 0,-0.26608 0.112188,-0.22438 0.41997,-0.30778 0.532159,-0.53216 0.03967,-0.0793 -0.06271,-0.20337 0,-0.26608 0.06272,-0.0627 0.203364,0.0627 0.266081,0 0.06272,-0.0627 -0.06272,-0.20337 0,-0.26608 0.06272,-0.0627 0.203364,0.0627 0.266081,0 0.06271,-0.0627 -0.03967,-0.18675 0,-0.26608 0.03464,-0.0693 0.47408,-0.32416 0.266081,-0.53217 -0.06272,-0.0627 -0.203367,-0.0627 -0.266081,0 -0.06272,0.0627 0.03966,0.18676 0,0.26609 -0.05609,0.11218 -0.209987,0.15389 -0.266081,0.26608 -0.03967,0.0793 0.03966,0.18675 0,0.26608 -0.05609,0.11219 -0.209987,0.15389 -0.266081,0.26608 -0.03966,0.0793 0.06272,0.20336 0,0.26608 -0.06271,0.0627 -0.203364,-0.0627 -0.266081,0 -0.06271,0.0627 0.03967,0.18675 0,0.26608 -0.05609,0.11219 -0.209984,0.15389 -0.266078,0.26608 -0.03967,0.0793 0.06271,0.20336 0,0.26608 -0.06272,0.0627 -0.203367,-0.0627 -0.266081,0 -0.06272,0.0627 0.03966,0.18675 0,0.26608 -0.05609,0.11219 -0.177387,0.17738 -0.266081,0.26608 -0.08869,0.35477 -0.177387,0.70955 -0.266081,1.06432"
       id="path871"
       inkscape:connector-curvature="0" />
  </g>
</svg>
