<?xml version="1.0" encoding="UTF-8" standalone="no"?>
<!-- Created with Inkscape (http://www.inkscape.org/) -->

<svg
   xmlns:dc="http://purl.org/dc/elements/1.1/"
   xmlns:cc="http://creativecommons.org/ns#"
   xmlns:rdf="http://www.w3.org/1999/02/22-rdf-syntax-ns#"
   xmlns:svg="http://www.w3.org/2000/svg"
   xmlns="http://www.w3.org/2000/svg"
   xmlns:sodipodi="http://sodipodi.sourceforge.net/DTD/sodipodi-0.dtd"
   xmlns:inkscape="http://www.inkscape.org/namespaces/inkscape"
   width="44.4814mm"
   height="27.475098mm"
   viewBox="0 0 44.4814 27.475098"
   version="1.1"
   id="svg8"
   inkscape:version="0.92.5 (2060ec1f9f, 2020-04-08)"
   sodipodi:docname="normaler-raum.svg">
  <defs
     id="defs2" />
  <sodipodi:namedview
     id="base"
     pagecolor="#ffffff"
     bordercolor="#666666"
     borderopacity="1.0"
     inkscape:pageopacity="0.0"
     inkscape:pageshadow="2"
     inkscape:zoom="5.6250281"
     inkscape:cx="80.962447"
     inkscape:cy="54.328497"
     inkscape:document-units="mm"
     inkscape:current-layer="layer1"
     showgrid="false"
     showborder="true"
     width="200mm"
     showguides="true"
     inkscape:guide-bbox="true"
     inkscape:window-width="636"
     inkscape:window-height="1027"
     inkscape:window-x="640"
     inkscape:window-y="1100"
     inkscape:window-maximized="0">
    <inkscape:grid
       type="xygrid"
       id="grid815"
       units="mm"
       spacingx="10"
       spacingy="10"
       empspacing="4"
       dotted="false"
       originx="-221.02888"
       originy="-117.81174" />
  </sodipodi:namedview>
  <metadata
     id="metadata5">
    <rdf:RDF>
      <cc:Work
         rdf:about="">
        <dc:format>image/svg+xml</dc:format>
        <dc:type
           rdf:resource="http://purl.org/dc/dcmitype/StillImage" />
        <dc:title />
      </cc:Work>
    </rdf:RDF>
  </metadata>
  <g
     inkscape:label="Layer 1"
     inkscape:groupmode="layer"
     id="layer1"
     transform="translate(-102.01882,-212.75116)">
    <path
       style="color:#000000;clip-rule:nonzero;display:inline;overflow:visible;visibility:visible;opacity:1;isolation:auto;mix-blend-mode:normal;color-interpolation:sRGB;color-interpolation-filters:linearRGB;solid-color:#000000;solid-opacity:1;vector-effect:none;fill:none;fill-opacity:1;fill-rule:nonzero;stroke:#000000;stroke-width:0.1404411;stroke-linecap:round;stroke-linejoin:round;stroke-miterlimit:4;stroke-dasharray:none;stroke-dashoffset:0;stroke-opacity:1;marker-start:none;marker-end:none;color-rendering:auto;image-rendering:auto;shape-rendering:auto;text-rendering:auto;enable-background:accumulate"
       d="m 146.32147,221.94897 c 1.80659,9.03292 -19.45037,19.2777 -26.41944,18.1162 -3.68196,-0.61367 -5.95742,-5.2984 -8.75616,-7.39745 -2.16305,-1.62229 -5.70073,-0.33234 -7.85035,-3.01937 -3.908841,-4.88606 2.5542,-6.87701 6.95287,-8.82761 4.39867,-1.95059 32.31758,-17.64928 36.07308,1.12823 z"
       id="path24"
       inkscape:connector-curvature="0"
       sodipodi:nodetypes="scsscs" />
    <path
       style="opacity:1;vector-effect:none;fill:#000000;fill-opacity:1;stroke:none;stroke-width:0.26499999;stroke-linecap:round;stroke-linejoin:round;stroke-miterlimit:4;stroke-dasharray:none;stroke-dashoffset:0;stroke-opacity:1;marker-start:none;marker-end:none"
       d="m 138.42829,216.5107 3.79165,7.58329"
       id="path832"
       inkscape:connector-curvature="0" />
    <path
       style="opacity:1;vector-effect:none;fill:#000000;fill-opacity:1;stroke:none;stroke-width:0.26499999;stroke-linecap:round;stroke-linejoin:round;stroke-miterlimit:4;stroke-dasharray:none;stroke-dashoffset:0;stroke-opacity:1;marker-start:none;marker-end:none"
       d="m 137.43049,218.63934 c 0.0887,0.0222 0.17739,0.0444 0.26608,0.0665"
       id="path834"
       inkscape:connector-curvature="0" />
    <path
       style="fill:none;stroke:#000000;stroke-width:0.16500001;stroke-linecap:butt;stroke-linejoin:miter;stroke-miterlimit:4;stroke-dasharray:none;stroke-opacity:1"
       d="m 138.42829,216.5107 2.86036,6.38593 -4.85596,4.45684 -5.92029,-5.25509 3.05993,-6.51896 z"
       id="path838"
       inkscape:connector-curvature="0" />
    <path
       style="fill:none;stroke:#000000;stroke-width:0;stroke-linecap:butt;stroke-linejoin:miter;stroke-miterlimit:4;stroke-dasharray:none;stroke-opacity:1"
       d="m 118.67183,224.36007 c 0.3326,-0.0665 7.31721,0.3326 7.31721,0.3326 l -0.59868,8.24849 -2.52777,-4.65641 -3.19296,3.52557 z"
       id="path840"
       inkscape:connector-curvature="0" />
    <path
       style="fill:none;stroke:#000000;stroke-width:0.16500001;stroke-linecap:butt;stroke-linejoin:miter;stroke-miterlimit:4;stroke-dasharray:none;stroke-opacity:1"
       d="m 113.9489,224.42659 9.44585,-1.59648 3.45905,9.04673 -5.12205,-5.65421 -2.06212,5.58769 z"
       id="path842"
       inkscape:connector-curvature="0" />
    <path
       style="opacity:1;vector-effect:none;fill:#0000ff;fill-opacity:0;stroke:#0000ff;stroke-width:0.16500001;stroke-linecap:round;stroke-linejoin:round;stroke-miterlimit:4;stroke-dasharray:none;stroke-dashoffset:0;stroke-opacity:1;marker-start:none;marker-end:none"
       d="m 115.3463,220.23649 c -0.0887,-0.0222 -0.17643,-0.0486 -0.26608,-0.0665 -0.0599,-0.012 -0.13836,0 -0.19956,0 -0.15521,0 -0.31042,0 -0.46564,0 -0.0226,0 -0.23007,-0.012 -0.26608,0 -0.0941,0.0314 -0.16987,0.10899 -0.26608,0.13304 -0.2304,0.0576 -0.0399,-0.0842 -0.26608,0.0665 -0.0261,0.0174 -0.0404,0.0491 -0.0665,0.0665 -0.0825,0.055 -0.18357,0.078 -0.26608,0.13304 -0.0979,0.0653 -0.1682,0.20083 -0.26608,0.26609 -0.0412,0.0275 -0.0934,0.0368 -0.13304,0.0665 -0.0927,0.0695 -0.18216,0.18217 -0.26608,0.26609 -0.0443,0.0443 -0.0887,0.0887 -0.13304,0.13304 -0.0222,0.0222 -0.0491,0.0404 -0.0665,0.0665 -0.0275,0.0413 -0.039,0.0918 -0.0665,0.13305 -0.0522,0.0783 -0.14311,0.1243 -0.19956,0.19956 -0.0298,0.0397 -0.039,0.0918 -0.0665,0.13304 -0.0174,0.0261 -0.0491,0.0404 -0.0665,0.0665 -0.055,0.0825 -0.078,0.18357 -0.13304,0.26608 -0.0174,0.0261 -0.0566,0.0368 -0.0665,0.0665 -0.014,0.0421 0.0108,0.09 0,0.13304 0.0401,0.1204 -0.10776,0.12371 -0.13304,0.19956 -0.014,0.0421 0.0108,0.09 0,0.13304 -0.012,0.0481 -0.0545,0.0849 -0.0665,0.13304 -0.0108,0.043 0.014,0.091 0,0.13304 -0.01,0.0298 -0.0566,0.0368 -0.0665,0.0665 -0.0281,0.0841 0.0215,0.18003 0,0.26608 -0.012,0.0481 -0.0545,0.0849 -0.0665,0.13304 -0.0131,0.0523 0,0.32994 0,0.39912 0,0.11086 0,0.22173 0,0.3326 0,0.0444 -0.0107,0.09 0,0.13304 0.012,0.0481 0.0545,0.0849 0.0665,0.13304 0.0625,0.24989 -0.0625,0.0162 0,0.26608 0.012,0.0481 0.0545,0.0849 0.0665,0.13304 0.0107,0.043 -0.0108,0.09 0,0.13304 0.012,0.0481 0.0545,0.0849 0.0665,0.13304 0.0215,0.0861 -0.0215,0.18003 0,0.26608 0.0527,0.21063 0.0804,0.0555 0.13304,0.26608 0.0108,0.043 -0.0107,0.09 0,0.13304 0.012,0.0481 0.0508,0.086 0.0665,0.13304 0.007,0.021 -0.007,0.0455 0,0.0665 0.0157,0.047 0.0545,0.0849 0.0665,0.13304 0.0107,0.043 -0.014,0.091 0,0.13304 0.01,0.0297 0.0566,0.0368 0.0665,0.0665 0.014,0.0421 -0.0108,0.09 0,0.13304 0.0241,0.0962 0.10168,0.17201 0.13304,0.26608 0.007,0.021 -0.007,0.0455 0,0.0665 0.0157,0.047 0.0508,0.086 0.0665,0.13304 0.007,0.021 -0.007,0.0455 0,0.0665 0.0222,0.0443 0.0443,0.0887 0.0665,0.13304 0,0.0222 -0.007,0.0455 0,0.0665 0.0157,0.047 0.0508,0.086 0.0665,0.13304 0.007,0.021 -0.01,0.0467 0,0.0665 0.15222,0.30444 -0.0276,-0.28227 0.13304,0.19956 0.007,0.021 -0.007,0.0455 0,0.0665 0.0157,0.047 0.0508,0.086 0.0665,0.13305 0.007,0.021 -0.007,0.0455 0,0.0665 0.0157,0.047 0.0508,0.086 0.0665,0.13304 0.007,0.021 0,0.0444 0,0.0665 0,0.0444 -0.014,0.091 0,0.13304 0.01,0.0297 0.0491,0.0404 0.0665,0.0665 0.0275,0.0412 0.0508,0.086 0.0665,0.13304 0.066,0.19801 -0.15751,-0.13649 0.0665,0.19956 0.0174,0.0261 0.0525,0.0385 0.0665,0.0665 0.01,0.0199 0,0.0444 0,0.0665 0.0222,0.0443 0.039,0.0918 0.0665,0.13304 0.0174,0.0261 0.0444,0.0443 0.0665,0.0665 0.0222,0.0443 0.039,0.0918 0.0665,0.13305 0.0174,0.0261 0.0525,0.0385 0.0665,0.0665 0.01,0.0198 0,0.0443 0,0.0665 0.0222,0.0443 0.039,0.0918 0.0665,0.13304 0.0174,0.0261 0.0491,0.0404 0.0665,0.0665 0.0275,0.0413 0.039,0.0918 0.0665,0.13304 0.10148,0.15221 0.0527,-0.0416 0.13304,0.19956 0.007,0.021 -0.01,0.0467 0,0.0665 0.014,0.028 0.0443,0.0443 0.0665,0.0665 0.0426,0.0426 0.22458,0.20383 0.26608,0.26608 0.0275,0.0412 0.0315,0.098 0.0665,0.13304 0.0351,0.0351 0.0918,0.039 0.13304,0.0665 0.0261,0.0174 0.0404,0.0491 0.0665,0.0665 0.0413,0.0275 0.0918,0.039 0.13304,0.0665 0.0261,0.0174 0.0444,0.0443 0.0665,0.0665 0.0444,0.0222 0.0918,0.039 0.13304,0.0665 0.0261,0.0174 0.0404,0.0491 0.0665,0.0665 0.0413,0.0275 0.0934,0.0368 0.13304,0.0665 0.0502,0.0376 0.0809,0.0983 0.13304,0.13304 0.0185,0.0123 0.0455,-0.007 0.0665,0 0.047,0.0157 0.0887,0.0443 0.13304,0.0665 0.0887,0.0443 0.17739,0.0887 0.26608,0.13304 0.26609,0.13304 0.53217,0.26608 0.79825,0.39912 0.0887,0.0443 0.17738,0.0887 0.26608,0.13304 0.0443,0.0222 0.0849,0.0545 0.13304,0.0665 0.043,0.0107 0.09,-0.0108 0.13304,0 0.0481,0.012 0.0887,0.0444 0.13304,0.0665 0.0443,0.0222 0.0918,0.039 0.13304,0.0665 0.0261,0.0174 0.0361,0.0589 0.0665,0.0665 0.0645,0.0161 0.13433,-0.013 0.19956,0 0.0972,0.0195 0.16988,0.10899 0.26608,0.13304 0.043,0.0107 0.09,-0.0107 0.13304,0 0.0962,0.0241 0.172,0.10168 0.26608,0.13304 0.021,0.007 0.0455,-0.007 0.0665,0 0.047,0.0157 0.0849,0.0545 0.13304,0.0665 0.086,0.0215 0.18003,-0.0215 0.26608,0 0.0481,0.012 0.086,0.0508 0.13304,0.0665 0.021,0.007 0.0455,-0.007 0.0665,0 0.047,0.0157 0.0849,0.0545 0.13304,0.0665 0.11549,0.0289 0.28363,-0.0289 0.39912,0 0.0481,0.012 0.086,0.0508 0.13304,0.0665 0.0631,0.021 0.13503,-0.0161 0.19956,0 0.0481,0.012 0.086,0.0508 0.13304,0.0665 0.0707,0.0236 0.1954,-0.0236 0.26608,0 0.047,0.0157 0.086,0.0508 0.13304,0.0665 0.021,0.007 0.0443,0 0.0665,0 0.0692,0 0.3468,-0.0131 0.39912,0 0.0481,0.012 0.0849,0.0545 0.13304,0.0665 0.043,0.0107 0.0887,0 0.13304,0 0.0443,0 0.0887,0 0.13304,0 0.15521,0 0.31043,0 0.46564,0 0.0665,0 0.13304,0 0.19956,0 0.0444,0 0.0896,-0.009 0.13304,0 0.0688,0.0138 0.1304,0.055 0.19956,0.0665 0.0461,0.008 0.48604,0.008 0.53216,0 0.0692,-0.0115 0.1304,-0.055 0.19956,-0.0665 0.0656,-0.0109 0.13305,0 0.19956,0 0.17739,0 0.35478,0 0.53217,0 0.0665,0 0.13394,0.0109 0.19956,0 0.0692,-0.0115 0.13039,-0.055 0.19955,-0.0665 0.0656,-0.0109 0.13305,0 0.19957,0 0.15521,0 0.31042,0 0.46564,0 0.0443,0 0.09,0.0108 0.13304,0 0.0481,-0.012 0.0849,-0.0545 0.13304,-0.0665 0.086,-0.0215 0.18003,0.0215 0.26608,0 0.0481,-0.012 0.0849,-0.0545 0.13304,-0.0665 0.043,-0.0108 0.0896,0.009 0.13304,0 0.0687,-0.0138 0.1308,-0.0528 0.19956,-0.0665 0.0435,-0.009 0.09,0.0108 0.13304,0 0.0481,-0.012 0.0849,-0.0545 0.13304,-0.0665 0.086,-0.0215 0.18003,0.0215 0.26608,0 0.0481,-0.012 0.0849,-0.0545 0.13304,-0.0665 0.043,-0.0107 0.09,0.0107 0.13304,0 0.0481,-0.012 0.0849,-0.0545 0.13304,-0.0665 0.043,-0.0107 0.09,0.0107 0.13304,0 0.0481,-0.012 0.086,-0.0508 0.13304,-0.0665 0.021,-0.007 0.0455,0.007 0.0665,0 0.0941,-0.0314 0.16988,-0.10899 0.26608,-0.13304 0.043,-0.0107 0.09,0.0108 0.13304,0 0.1204,0.0401 0.12371,-0.10776 0.19956,-0.13304 0.0421,-0.014 0.09,0.0108 0.13304,0 0.19292,-0.0482 0.0778,-0.0519 0.19956,-0.13304 0.0412,-0.0275 0.0918,-0.039 0.13304,-0.0665 0.0574,-0.0383 0.1476,-0.1476 0.19956,-0.19956 0.0665,-0.0665 0.13304,-0.13304 0.19956,-0.19956 0.0222,-0.0222 0.0491,-0.0404 0.0665,-0.0665 0.0275,-0.0413 0.039,-0.0918 0.0665,-0.13304 0.0174,-0.0261 0.0525,-0.0385 0.0665,-0.0665 0.01,-0.0198 -0.01,-0.0467 0,-0.0665 0.014,-0.0281 0.0566,-0.0368 0.0665,-0.0665 0.02,-0.0599 -0.0199,-0.13969 0,-0.19956 0.0157,-0.047 0.0545,-0.0849 0.0665,-0.13304 0.0108,-0.043 0,-0.0887 0,-0.13304 0,-0.0444 0,-0.0887 0,-0.13304 0,-0.0222 -0.007,-0.0455 0,-0.0665 0.0157,-0.047 0.0545,-0.0849 0.0665,-0.13304 0.004,-0.017 0.008,-0.30947 0,-0.3326 -0.18844,-0.37688 0.0248,0.0992 -0.0665,-0.26608 -0.012,-0.0481 -0.0545,-0.0849 -0.0665,-0.13305 -0.0108,-0.043 0.0107,-0.09 0,-0.13303 -0.012,-0.0481 -0.0508,-0.086 -0.0665,-0.13304 -0.007,-0.021 0.007,-0.0455 0,-0.0665 -0.0157,-0.047 -0.0545,-0.0849 -0.0665,-0.13304 -0.0108,-0.043 0.009,-0.0896 0,-0.13304 -0.0274,-0.13699 -0.0739,-0.21434 -0.13304,-0.3326 -0.0222,-0.0443 -0.0545,-0.0849 -0.0665,-0.13304 -0.11846,-0.47383 0.20132,0.33701 -0.0665,-0.3326 -0.0184,-0.046 -0.039,-0.0918 -0.0665,-0.13304 -0.0174,-0.0261 -0.0566,-0.0368 -0.0665,-0.0665 -0.014,-0.0421 0.0107,-0.09 0,-0.13304 -0.0482,-0.19292 -0.0519,-0.0778 -0.13304,-0.19956 -0.0275,-0.0412 -0.0443,-0.0887 -0.0665,-0.13304 -0.0222,-0.0443 -0.0545,-0.0849 -0.0665,-0.13304 -0.0107,-0.043 0.0108,-0.09 0,-0.13304 -0.0482,-0.19292 -0.0519,-0.0778 -0.13304,-0.19956 -0.0738,-0.11077 -0.12249,-0.29636 -0.19956,-0.39912 -0.0376,-0.0502 -0.0954,-0.0829 -0.13304,-0.13304 -0.0297,-0.0397 -0.039,-0.0918 -0.0665,-0.13304 -0.0174,-0.0261 -0.0491,-0.0404 -0.0665,-0.0665 -0.0738,-0.11077 -0.12249,-0.29636 -0.19956,-0.39912 -0.0376,-0.0502 -0.0954,-0.0829 -0.13304,-0.13304 -0.0595,-0.0793 -0.0735,-0.18675 -0.13304,-0.26608 -0.0564,-0.0753 -0.14738,-0.12128 -0.19956,-0.19956 -0.055,-0.0825 -0.078,-0.18357 -0.13304,-0.26608 -0.0522,-0.0783 -0.14312,-0.1243 -0.19956,-0.19956 -0.0297,-0.0397 -0.039,-0.0918 -0.0665,-0.13304 -0.0174,-0.0261 -0.0491,-0.0404 -0.0665,-0.0665 -0.055,-0.0825 -0.0735,-0.18675 -0.13304,-0.26608 -0.28772,-0.28772 -0.0104,0.0176 -0.19956,-0.26608 -0.0522,-0.0783 -0.14312,-0.1243 -0.19956,-0.19956 -0.0297,-0.0397 -0.0315,-0.098 -0.0665,-0.13304 -0.0351,-0.0351 -0.098,-0.0315 -0.13304,-0.0665 -0.0701,-0.0701 -0.0629,-0.19596 -0.13304,-0.26608 -0.0351,-0.0351 -0.098,-0.0315 -0.13304,-0.0665 -0.0351,-0.0351 -0.0315,-0.098 -0.0665,-0.13304 -0.33995,-0.33995 0.0928,0.27891 -0.26608,-0.19956 -0.0298,-0.0397 -0.0315,-0.098 -0.0665,-0.13304 -0.0351,-0.0351 -0.0934,-0.0368 -0.13304,-0.0665 -0.0502,-0.0376 -0.0829,-0.0954 -0.13305,-0.13304 -0.0397,-0.0297 -0.0934,-0.0368 -0.13303,-0.0665 -0.0502,-0.0376 -0.0829,-0.0954 -0.13304,-0.13304 -0.0793,-0.0595 -0.18675,-0.0735 -0.26608,-0.13304 -0.0502,-0.0376 -0.0829,-0.0954 -0.13304,-0.13304 -0.0397,-0.0298 -0.0918,-0.039 -0.13305,-0.0665 -0.0261,-0.0174 -0.0404,-0.0491 -0.0665,-0.0665 -0.0413,-0.0275 -0.0934,-0.0368 -0.13304,-0.0665 -0.0753,-0.0564 -0.12129,-0.14738 -0.19957,-0.19956 -0.15535,-0.10357 -0.37681,-0.16252 -0.53216,-0.26608 -0.0261,-0.0174 -0.0404,-0.0491 -0.0665,-0.0665 -0.0413,-0.0275 -0.0887,-0.0444 -0.13304,-0.0665 -0.0443,-0.0222 -0.0849,-0.0545 -0.13304,-0.0665 -0.2304,-0.0576 -0.0399,0.0842 -0.26608,-0.0665 -0.0261,-0.0174 -0.0404,-0.0491 -0.0665,-0.0665 -0.0825,-0.055 -0.18357,-0.078 -0.26608,-0.13304 -0.0261,-0.0174 -0.0404,-0.0491 -0.0665,-0.0665 -0.0526,-0.0351 -0.34039,-0.17999 -0.39912,-0.19956 -0.021,-0.007 -0.0455,0.007 -0.0665,0 -0.0941,-0.0314 -0.16988,-0.10899 -0.26608,-0.13304 -0.043,-0.0108 -0.09,0.0107 -0.13304,0 -0.0481,-0.012 -0.086,-0.0508 -0.13304,-0.0665 -0.021,-0.007 -0.0455,0.007 -0.0665,0 -0.047,-0.0157 -0.0849,-0.0545 -0.13304,-0.0665 -0.043,-0.0108 -0.091,0.014 -0.13304,0 -0.0297,-0.01 -0.0368,-0.0566 -0.0665,-0.0665 -0.44124,0 0.0941,0.0314 -0.19956,-0.0665 -0.0998,-0.0333 -0.23282,0.0333 -0.3326,0 -0.0297,-0.01 -0.0368,-0.0566 -0.0665,-0.0665 -0.0389,-0.013 -0.34203,0 -0.39912,0 -0.0444,0 -0.0887,0 -0.13304,0 -0.0222,0 -0.0467,0.01 -0.0665,0 -0.028,-0.014 -0.0385,-0.0525 -0.0665,-0.0665 -0.0175,-0.009 -0.2313,0 -0.26608,0 -0.19956,0 -0.39912,0 -0.59868,0 -0.17739,0 -0.35478,0 -0.53216,0 -0.0348,0 -0.24859,-0.009 -0.26608,0 -0.0281,0.014 -0.0385,0.0525 -0.0665,0.0665 -0.0198,0.01 -0.0443,0 -0.0665,0 -0.0222,0 -0.0443,0 -0.0665,0 -0.11087,0 -0.22174,0 -0.3326,0 -0.0222,0 -0.0443,0 -0.0665,0 -0.0222,0 -0.0467,-0.01 -0.0665,0 -0.028,0.014 -0.0385,0.0525 -0.0665,0.0665 -0.0198,0.01 -0.0443,0 -0.0665,0 -0.0222,0 -0.0443,0 -0.0665,0 -0.11087,0 -0.22174,0 -0.3326,0 -0.0444,0 -0.0919,-0.0164 -0.13304,0 -0.0921,0.0368 -0.17739,0.0887 -0.26609,0.13305 z"
       id="path844"
       inkscape:connector-curvature="0" />
    <path
       style="opacity:1;vector-effect:none;fill:#000000;fill-opacity:0;stroke:#0000ff;stroke-width:0.16500001;stroke-linecap:round;stroke-linejoin:round;stroke-miterlimit:4;stroke-dasharray:none;stroke-dashoffset:0;stroke-opacity:1;marker-start:none;marker-end:none"
       d="m 130.37936,215.8455 c 0.0195,-0.078 0.0206,-0.27639 0.13304,-0.3326 0.0198,-0.01 0.0508,0.0157 0.0665,0 0.0157,-0.0157 -0.0157,-0.0508 0,-0.0665 0.0157,-0.0157 0.0467,0.01 0.0665,0 0.0561,-0.0281 0.0769,-0.105 0.13304,-0.13304 0.0198,-0.01 0.0467,0.01 0.0665,0 0.0561,-0.0281 0.077,-0.105 0.13304,-0.13304 0.0199,-0.01 0.0444,0 0.0665,0 0.0222,-0.0222 0.0385,-0.0525 0.0665,-0.0665 0.0397,-0.0198 0.0934,0.0198 0.13304,0 0.028,-0.014 0.0385,-0.0525 0.0665,-0.0665 0.0198,-0.01 0.0467,0.01 0.0665,0 0.0281,-0.014 0.0385,-0.0525 0.0665,-0.0665 0.0397,-0.0198 0.10169,0.0314 0.13304,0 0.0157,-0.0157 -0.0157,-0.0508 0,-0.0665 0.0182,-0.0182 0.23,0.018 0.26608,0 0.028,-0.014 0.0385,-0.0525 0.0665,-0.0665 0.0532,-0.0266 0.14635,0.0266 0.19956,0 0.0281,-0.014 0.0385,-0.0525 0.0665,-0.0665 0.042,-0.021 0.29064,0.021 0.3326,0 0.028,-0.014 0.0385,-0.0525 0.0665,-0.0665 0.0404,-0.0202 0.35872,0.0202 0.39911,0 0.0281,-0.014 0.0385,-0.0525 0.0665,-0.0665 0.042,-0.021 0.29063,0.021 0.3326,0 0.028,-0.014 0.0385,-0.0525 0.0665,-0.0665 0.0203,-0.0101 0.16961,0 0.19957,0 0.19956,0 0.39912,0 0.59868,0 0.0348,0 0.24859,0.009 0.26608,0 0.028,-0.014 0.0385,-0.0525 0.0665,-0.0665 0.0198,-0.01 0.0443,0 0.0665,0 0.0443,0 0.0887,0 0.13304,0 0.0795,0 0.3557,0.0145 0.39912,0 0.047,-0.0157 0.086,-0.0508 0.13304,-0.0665 0.0418,-0.0139 0.21253,0 0.26608,0 0.17739,0 0.35477,0 0.53216,0 0.44124,0 -0.0941,0.0314 0.19956,-0.0665 0.034,-0.0114 0.35156,0 0.39912,0 0.11087,0 0.22173,0 0.3326,0 0.0443,0 0.091,-0.014 0.13304,0 0.0298,0.01 0.0385,0.0525 0.0665,0.0665 0.0198,0.01 0.0444,0 0.0665,0 0.0444,0 0.0887,0 0.13304,0 0.0571,0 0.3602,-0.013 0.39912,0 0.0298,0.01 0.0368,0.0566 0.0665,0.0665 0.0908,0.0303 0.3083,-0.0303 0.39912,0 0.0297,0.01 0.0385,0.0525 0.0665,0.0665 0.0397,0.0198 0.0934,-0.0198 0.13304,0 0.0281,0.014 0.0385,0.0525 0.0665,0.0665 0.0198,0.01 0.0467,-0.01 0.0665,0 0.0281,0.014 0.0385,0.0525 0.0665,0.0665 0.0199,0.01 0.0467,-0.01 0.0665,0 0.0281,0.014 0.0385,0.0525 0.0665,0.0665 0.0198,0.01 0.0467,-0.01 0.0665,0 0.028,0.014 0.0385,0.0525 0.0665,0.0665 0.0198,0.01 0.0467,-0.01 0.0665,0 0.0281,0.014 0.0385,0.0525 0.0665,0.0665 0.0198,0.01 0.0467,-0.01 0.0665,0 0.0281,0.014 0.0385,0.0525 0.0665,0.0665 0.0198,0.01 0.0455,-0.007 0.0665,0 0.047,0.0157 0.086,0.0508 0.13304,0.0665 0.021,0.007 0.0467,-0.01 0.0665,0 0.028,0.014 0.0385,0.0525 0.0665,0.0665 0.0198,0.01 0.0467,-0.01 0.0665,0 0.028,0.014 0.0385,0.0525 0.0665,0.0665 0.0198,0.01 0.0455,-0.007 0.0665,0 0.047,0.0157 0.086,0.0508 0.13304,0.0665 0.021,0.007 0.0467,-0.01 0.0665,0 0.27684,0.13842 -0.0711,-0.005 0.0665,0.13304 0.0157,0.0157 0.0467,-0.01 0.0665,0 0.22062,0.22062 -0.0627,-0.0314 0.13304,0.0665 0.0798,0.0399 0.11974,0.15965 0.19956,0.19956 0.0198,0.01 0.0467,-0.01 0.0665,0 0.0281,0.014 0.0385,0.0525 0.0665,0.0665 0.0199,0.01 0.0467,-0.01 0.0665,0 0.27685,0.13842 -0.0711,-0.005 0.0665,0.13304 0.0157,0.0157 0.0467,-0.01 0.0665,0 0.27683,0.13842 -0.0711,-0.005 0.0665,0.13304 0.0157,0.0157 0.0467,-0.01 0.0665,0 0.27683,0.13842 -0.0711,-0.005 0.0665,0.13304 0.0157,0.0157 0.0467,-0.01 0.0665,0 0.12246,0.0612 0.0106,0.13833 0.13303,0.19956 0.0198,0.01 0.0508,-0.0157 0.0665,0 0.0157,0.0157 -0.01,0.0467 0,0.0665 0.028,0.0561 0.10499,0.0769 0.13304,0.13304 0.01,0.0198 -0.0157,0.0508 0,0.0665 0.0157,0.0157 0.0508,-0.0157 0.0665,0 0.0157,0.0157 -0.01,0.0467 0,0.0665 0.0399,0.0798 0.15965,0.11973 0.19957,0.19956 0.01,0.0198 -0.0157,0.0508 0,0.0665 0.13763,0.13763 -0.005,-0.21032 0.13303,0.0665 0.01,0.0198 -0.01,0.0467 0,0.0665 0.0399,0.0798 0.15965,0.11974 0.19957,0.19956 0.01,0.0198 -0.01,0.0467 0,0.0665 0.028,0.0561 0.10499,0.0769 0.13304,0.13304 0.01,0.0198 -0.01,0.0467 0,0.0665 0.028,0.0561 0.10499,0.077 0.13304,0.13304 0.01,0.0198 -0.01,0.0467 0,0.0665 0.014,0.0281 0.0525,0.0385 0.0665,0.0665 0.01,0.0198 -0.01,0.0467 0,0.0665 0.014,0.028 0.0525,0.0385 0.0665,0.0665 0.01,0.0198 0,0.0443 0,0.0665 0.0222,0.0222 0.0525,0.0385 0.0665,0.0665 0.01,0.0198 -0.0157,0.0508 0,0.0665 0.0157,0.0157 0.0508,-0.0157 0.0665,0 0.0314,0.0314 -0.0198,0.0934 0,0.13304 0.014,0.0281 0.0525,0.0385 0.0665,0.0665 0.01,0.0199 -0.0157,0.0508 0,0.0665 0.0157,0.0157 0.0508,-0.0157 0.0665,0 0.0314,0.0314 -0.0198,0.0934 0,0.13304 0.22062,0.22062 -0.0314,-0.0627 0.0665,0.13304 0.014,0.0281 0.0525,0.0385 0.0665,0.0665 0.01,0.0198 -0.01,0.0467 0,0.0665 0.014,0.0281 0.0525,0.0385 0.0665,0.0665 0.0196,0.0393 -0.0153,0.15381 0,0.19956 0.0157,0.047 0.0508,0.086 0.0665,0.13304 0.0129,0.0387 0,0.35335 0,0.39912 0,0.0222 -0.01,0.0467 0,0.0665 0.014,0.0281 0.0525,0.0385 0.0665,0.0665 0.0266,0.0532 -0.0266,0.14635 0,0.19956 0.014,0.0281 0.0525,0.0385 0.0665,0.0665 0.0209,0.0418 -0.0209,0.22427 0,0.26608 0.014,0.0281 0.0566,0.0368 0.0665,0.0665 0.013,0.0389 0,0.34203 0,0.39912 0,0.0444 -0.014,0.091 0,0.13304 0.01,0.0298 0.0566,0.0368 0.0665,0.0665 0.0151,0.0453 -0.0177,0.29733 0,0.3326 0.014,0.0281 0.0525,0.0385 0.0665,0.0665 0.012,0.0241 0,0.28634 0,0.3326 0,0.15522 0,0.31043 0,0.46564 0,0.0226 0.012,0.23008 0,0.26609 -0.0157,0.047 -0.0508,0.086 -0.0665,0.13304 -0.0125,0.0375 0,0.15585 0,0.19956 0,0.13304 0,0.26608 0,0.39912 0,0.0443 0.014,0.091 0,0.13304 -0.01,0.0298 -0.0566,0.0368 -0.0665,0.0665 -0.021,0.0631 0.021,0.13645 0,0.19956 -0.0157,0.047 -0.0508,0.086 -0.0665,0.13304 -0.0132,0.0397 0,0.33467 0,0.39912 0,0.0222 0.01,0.0467 0,0.0665 -0.014,0.028 -0.0525,0.0385 -0.0665,0.0665 -0.0266,0.0532 0.0266,0.14634 0,0.19956 -0.014,0.028 -0.0525,0.0385 -0.0665,0.0665 -0.0209,0.0418 0.0209,0.22427 0,0.26608 -0.014,0.0281 -0.0525,0.0385 -0.0665,0.0665 -0.0266,0.0532 0.0266,0.14634 0,0.19956 -0.014,0.028 -0.0525,0.0385 -0.0665,0.0665 -0.0199,0.0397 0.0198,0.0934 0,0.13304 -0.014,0.0281 -0.0525,0.0385 -0.0665,0.0665 -0.01,0.0198 0,0.0444 0,0.0665 0,0.0444 0.014,0.091 0,0.13304 -0.01,0.0298 -0.0525,0.0385 -0.0665,0.0665 -0.01,0.0198 0.01,0.0467 0,0.0665 -0.014,0.028 -0.0525,0.0385 -0.0665,0.0665 -0.01,0.0198 0.01,0.0467 0,0.0665 -0.014,0.0281 -0.0525,0.0385 -0.0665,0.0665 -0.0198,0.0397 0.0198,0.0934 0,0.13304 -0.014,0.0281 -0.0525,0.0385 -0.0665,0.0665 -0.01,0.0198 0.007,0.0455 0,0.0665 -0.0157,0.047 -0.0508,0.086 -0.0665,0.13304 -0.007,0.021 0.01,0.0467 0,0.0665 -0.014,0.028 -0.0525,0.0385 -0.0665,0.0665 -0.01,0.0198 0.01,0.0467 0,0.0665 -0.014,0.0281 -0.0525,0.0385 -0.0665,0.0665 -0.0199,0.0397 0.0198,0.0934 0,0.13304 -0.014,0.0281 -0.0525,0.0385 -0.0665,0.0665 -0.01,0.0199 0.0157,0.0508 0,0.0665 -0.0157,0.0157 -0.0508,-0.0157 -0.0665,0 -0.0157,0.0157 0.01,0.0467 0,0.0665 -0.014,0.028 -0.0525,0.0385 -0.0665,0.0665 -0.01,0.0198 0.01,0.0467 0,0.0665 -0.014,0.028 -0.0525,0.0385 -0.0665,0.0665 -0.01,0.0198 0.01,0.0467 0,0.0665 -0.0237,0.0473 -0.1094,0.0858 -0.13304,0.13304 -0.01,0.0198 0.01,0.0467 0,0.0665 -0.0281,0.0561 -0.105,0.077 -0.13304,0.13304 -0.01,0.0199 0.0157,0.0508 0,0.0665 -0.0157,0.0157 -0.0508,-0.0157 -0.0665,0 -0.0157,0.0157 0.01,0.0467 0,0.0665 -0.0212,0.0424 -0.28033,0.28033 -0.33261,0.3326 -0.0222,0.0222 -0.0525,0.0385 -0.0665,0.0665 -0.01,0.0199 0.0157,0.0508 0,0.0665 -0.0157,0.0157 -0.0467,-0.01 -0.0665,0 -0.028,0.014 -0.0385,0.0525 -0.0665,0.0665 -0.0198,0.01 -0.0444,0 -0.0665,0 -0.0444,0.0222 -0.0918,0.039 -0.13304,0.0665 -0.0522,0.0348 -0.077,0.105 -0.13304,0.13304 -0.0198,0.01 -0.0467,-0.01 -0.0665,0 -0.0561,0.0281 -0.0769,0.105 -0.13304,0.13304 -0.0198,0.01 -0.0467,-0.01 -0.0665,0 -0.028,0.014 -0.0385,0.0525 -0.0665,0.0665 -0.0198,0.01 -0.0508,-0.0157 -0.0665,0 -0.0157,0.0157 0.0157,0.0508 0,0.0665 -0.0157,0.0157 -0.0467,-0.01 -0.0665,0 -0.0281,0.014 -0.0368,0.0566 -0.0665,0.0665 -0.0421,0.014 -0.091,-0.014 -0.13304,0 -0.0595,0.0199 -0.0735,0.11321 -0.13304,0.13304 -0.0421,0.014 -0.091,-0.014 -0.13304,0 -0.0297,0.01 -0.0368,0.0566 -0.0665,0.0665 -0.0421,0.014 -0.091,-0.014 -0.13304,0 -0.0297,0.01 -0.0368,0.0566 -0.0665,0.0665 -0.0421,0.014 -0.091,-0.014 -0.13304,0 -0.0297,0.01 -0.0385,0.0525 -0.0665,0.0665 -0.0198,0.01 -0.0467,-0.01 -0.0665,0 -0.22062,0.22062 0.0627,-0.0314 -0.13304,0.0665 -0.0281,0.014 -0.0368,0.0566 -0.0665,0.0665 -0.30282,0 -0.004,-0.0314 -0.19956,0.0665 -0.0397,0.0198 -0.0934,-0.0198 -0.13304,0 -0.028,0.014 -0.0385,0.0525 -0.0665,0.0665 -0.0198,0.01 -0.0455,-0.007 -0.0665,0 -0.047,0.0157 -0.086,0.0508 -0.13304,0.0665 -0.021,0.007 -0.0467,-0.01 -0.0665,0 -0.0281,0.014 -0.0368,0.0566 -0.0665,0.0665 -0.0631,0.021 -0.13645,-0.021 -0.19956,0 -0.047,0.0157 -0.0849,0.0545 -0.13304,0.0665 -0.0587,0.0147 -0.20909,-0.019 -0.26608,0 -0.047,0.0157 -0.086,0.0508 -0.13304,0.0665 -0.0418,0.0139 -0.21253,0 -0.26608,0 -0.0222,0 -0.0444,0 -0.0665,0 -0.0222,0 -0.0467,0.01 -0.0665,0 -0.0281,-0.014 -0.0385,-0.0525 -0.0665,-0.0665 -0.0175,-0.009 -0.23129,0 -0.26608,0 -0.0653,0 -0.35513,0.0147 -0.39912,0 -0.047,-0.0157 -0.086,-0.0508 -0.13304,-0.0665 -0.021,-0.007 -0.0444,0 -0.0665,0 -0.0371,0 -0.30215,0.0102 -0.3326,0 -0.0298,-0.01 -0.0368,-0.0566 -0.0665,-0.0665 -0.0304,-0.0101 -0.23648,0.0148 -0.26608,0 -0.028,-0.014 -0.0385,-0.0525 -0.0665,-0.0665 -0.0532,-0.0266 -0.14634,0.0266 -0.19956,0 -0.0281,-0.014 -0.0385,-0.0525 -0.0665,-0.0665 -0.0198,-0.01 -0.0444,0 -0.0665,0 -0.0444,0 -0.091,0.014 -0.13304,0 -0.0298,-0.01 -0.0385,-0.0525 -0.0665,-0.0665 -0.0441,-0.022 -0.21033,0.0186 -0.26608,0 -0.047,-0.0157 -0.086,-0.0508 -0.13304,-0.0665 -0.0458,-0.0153 -0.16032,0.0196 -0.19956,0 -0.0281,-0.014 -0.0385,-0.0525 -0.0665,-0.0665 -0.0418,-0.0209 -0.22427,0.0209 -0.26608,0 -0.0281,-0.014 -0.0385,-0.0525 -0.0665,-0.0665 -0.0397,-0.0198 -0.0934,0.0198 -0.13304,0 -0.0281,-0.014 -0.0385,-0.0525 -0.0665,-0.0665 -0.0709,-0.0355 -0.0621,0.0355 -0.13304,0 -0.028,-0.014 -0.0368,-0.0566 -0.0665,-0.0665 -0.0481,-0.0161 -0.24416,0.0219 -0.26608,0 -0.0157,-0.0157 0.0157,-0.0508 0,-0.0665 -0.0314,-0.0313 -0.0934,0.0199 -0.13304,0 -0.0281,-0.014 -0.0385,-0.0525 -0.0665,-0.0665 -0.0532,-0.0266 -0.14635,0.0266 -0.19957,0 -0.028,-0.014 -0.0385,-0.0525 -0.0665,-0.0665 -0.0198,-0.01 -0.0467,0.01 -0.0665,0 -0.028,-0.014 -0.0385,-0.0525 -0.0665,-0.0665 -0.0397,-0.0198 -0.0934,0.0198 -0.13305,0 -0.0561,-0.028 -0.0769,-0.10499 -0.13304,-0.13304 -0.0198,-0.01 -0.0467,0.01 -0.0665,0 -0.028,-0.014 -0.0385,-0.0525 -0.0665,-0.0665 -0.0198,-0.01 -0.0467,0.01 -0.0665,0 -0.028,-0.014 -0.0368,-0.0566 -0.0665,-0.0665 -0.0421,-0.014 -0.0934,0.0198 -0.13304,0 -0.0198,-0.01 0.0157,-0.0508 0,-0.0665 -0.0157,-0.0157 -0.0467,0.01 -0.0665,0 -0.028,-0.014 -0.0385,-0.0525 -0.0665,-0.0665 -0.0198,-0.01 -0.0467,0.01 -0.0665,0 -0.0561,-0.028 -0.0769,-0.10499 -0.13304,-0.13304 -0.0198,-0.01 -0.0508,0.0157 -0.0665,0 -0.0157,-0.0157 0.0157,-0.0508 0,-0.0665 -0.0157,-0.0157 -0.0467,0.01 -0.0665,0 -0.028,-0.014 -0.0385,-0.0525 -0.0665,-0.0665 -0.0198,-0.01 -0.0508,0.0157 -0.0665,0 -0.0157,-0.0157 0.0157,-0.0508 0,-0.0665 -0.0157,-0.0157 -0.0467,0.01 -0.0665,0 -0.0561,-0.0281 -0.0769,-0.10499 -0.13304,-0.13304 -0.0198,-0.01 -0.0508,0.0157 -0.0665,0 -0.0157,-0.0157 0.0157,-0.0508 0,-0.0665 -0.0157,-0.0157 -0.0467,0.01 -0.0665,0 -0.27684,-0.13842 0.0711,0.005 -0.0665,-0.13304 -0.0157,-0.0157 -0.0508,0.0157 -0.0665,0 -0.0157,-0.0157 0.0157,-0.0508 0,-0.0665 -0.0157,-0.0157 -0.0467,0.01 -0.0665,0 -0.12246,-0.0612 -0.0106,-0.13833 -0.13304,-0.19956 -0.0198,-0.01 -0.0467,0.01 -0.0665,0 -0.028,-0.014 -0.0444,-0.0444 -0.0665,-0.0665 -0.0222,-0.0222 -0.0525,-0.0385 -0.0665,-0.0665 -0.01,-0.0198 0.01,-0.0467 0,-0.0665 -0.0399,-0.0798 -0.15965,-0.11973 -0.19956,-0.19956 -0.01,-0.0198 0.01,-0.0467 0,-0.0665 -0.028,-0.0561 -0.10499,-0.0769 -0.13304,-0.13304 -0.01,-0.0198 0.01,-0.0467 0,-0.0665 -0.014,-0.0281 -0.0443,-0.0443 -0.0665,-0.0665 -0.0222,-0.0222 -0.0443,-0.0444 -0.0665,-0.0665 -0.22062,-0.22062 0.0314,0.0627 -0.0665,-0.13304 -0.0281,-0.0561 -0.10499,-0.0769 -0.13304,-0.13304 -0.01,-0.0198 0.01,-0.0467 0,-0.0665 -0.014,-0.028 -0.0525,-0.0385 -0.0665,-0.0665 -0.01,-0.0198 0.01,-0.0467 0,-0.0665 -0.014,-0.0281 -0.0525,-0.0385 -0.0665,-0.0665 -0.01,-0.0198 0.01,-0.0467 0,-0.0665 -0.014,-0.0281 -0.0525,-0.0385 -0.0665,-0.0665 -0.01,-0.0198 0.01,-0.0467 0,-0.0665 -0.028,-0.0561 -0.10499,-0.077 -0.13304,-0.13304 -0.01,-0.0198 0.01,-0.0467 0,-0.0665 -0.014,-0.028 -0.0491,-0.0404 -0.0665,-0.0665 -0.12602,0.008 -0.0444,-0.15522 -0.0665,-0.19956 -0.014,-0.0281 -0.0491,-0.0404 -0.0665,-0.0665 -0.14655,-0.0335 -0.0352,-0.13685 -0.0665,-0.19956 -0.15141,-0.15141 -0.0176,0.0138 -0.0665,-0.13304 -0.16061,-0.48183 0.0192,0.10487 -0.13304,-0.19956 -0.01,-0.0198 0.01,-0.0467 0,-0.0665 -0.014,-0.0281 -0.0525,-0.0385 -0.0665,-0.0665 -0.01,-0.0198 0,-0.0444 0,-0.0665 0,-0.0444 0.014,-0.091 0,-0.13304 -0.01,-0.0297 -0.0566,-0.0368 -0.0665,-0.0665 -0.014,-0.0421 0.014,-0.091 0,-0.13304 -0.01,-0.0298 -0.0566,-0.0368 -0.0665,-0.0665 -0.014,-0.0421 0.014,-0.091 0,-0.13304 -0.01,-0.0298 -0.0566,-0.0368 -0.0665,-0.0665 -0.0281,-0.0842 0.0215,-0.18004 0,-0.26608 -0.012,-0.0481 -0.0508,-0.086 -0.0665,-0.13304 -0.007,-0.021 0,-0.0444 0,-0.0665 0,-0.0692 0.0131,-0.3468 0,-0.39912 -0.012,-0.0481 -0.0508,-0.086 -0.0665,-0.13304 -0.0236,-0.0707 0.0236,-0.1954 0,-0.26608 -0.0157,-0.047 -0.0545,-0.0849 -0.0665,-0.13304 -0.0161,-0.0645 0.021,-0.13646 0,-0.19957 -0.0157,-0.047 -0.0545,-0.0849 -0.0665,-0.13304 -0.0107,-0.043 0,-0.0887 0,-0.13303 0,-0.15522 0,-0.31043 0,-0.46565 0,-0.35477 0,-0.70954 0,-1.06432 0,-0.19956 0,-0.39912 0,-0.59868 0,-0.0371 -0.0102,-0.30215 0,-0.3326 0.01,-0.0298 0.0525,-0.0385 0.0665,-0.0665 0.0207,-0.0413 -0.0213,-0.35649 0,-0.39912 0.014,-0.028 0.0566,-0.0368 0.0665,-0.0665 0.0151,-0.0452 -0.0177,-0.29733 0,-0.3326 0.014,-0.028 0.0525,-0.0385 0.0665,-0.0665 0.0209,-0.0418 -0.0209,-0.22427 0,-0.26608 0.014,-0.0281 0.0525,-0.0385 0.0665,-0.0665 0.01,-0.0198 -0.007,-0.0455 0,-0.0665 0.0157,-0.047 0.0508,-0.086 0.0665,-0.13304 0.014,-0.0421 -0.0198,-0.0934 0,-0.13304 0.014,-0.028 0.0525,-0.0385 0.0665,-0.0665 0.01,-0.0198 -0.01,-0.0467 0,-0.0665 0.014,-0.028 0.0525,-0.0385 0.0665,-0.0665 0.0198,-0.0397 -0.0198,-0.0934 0,-0.13304 0.014,-0.0281 0.0525,-0.0385 0.0665,-0.0665 0.01,-0.0198 -0.0157,-0.0508 0,-0.0665 0.0157,-0.0157 0.0508,0.0157 0.0665,0 0.0157,-0.0157 -0.01,-0.0467 0,-0.0665 0.028,-0.0561 0.10499,-0.077 0.13304,-0.13304 0.01,-0.0198 -0.01,-0.0467 0,-0.0665 0.014,-0.028 0.0525,-0.0385 0.0665,-0.0665 0.01,-0.0198 -0.01,-0.0467 0,-0.0665 0.014,-0.0281 0.0491,-0.0404 0.0665,-0.0665 0.0275,-0.0412 0.039,-0.0918 0.0665,-0.13304 0.0174,-0.0261 0.0525,-0.0385 0.0665,-0.0665 0.01,-0.0198 -0.01,-0.0467 0,-0.0665 0.0281,-0.0561 0.10499,-0.077 0.13304,-0.13304 0.01,-0.0198 -0.01,-0.0467 0,-0.0665 0.0327,-0.0655 0.23335,-0.20062 0.26608,-0.26608 0.01,-0.0198 -0.0157,-0.0508 0,-0.0665 0.0157,-0.0157 0.0475,0.0114 0.0665,0 0.0951,-0.057 0.17642,-0.13435 0.26608,-0.19956 0.15522,-0.11087 0.31043,-0.22174 0.46564,-0.3326 0.0222,0 0.0467,0.01 0.0665,0 0.0281,-0.014 0.0385,-0.0525 0.0665,-0.0665 0.0199,-0.01 0.0444,0 0.0665,0 0.0222,0 0.0444,0 0.0665,0"
       id="path846"
       inkscape:connector-curvature="0" />
    <text
       id="text850"
       xml:space="preserve"
       style="font-size:2.64583325px;font-family:monospace;-inkscape-font-specification:'monospace, Normal';fill:#000000;fill-opacity:1;stroke:none;stroke-width:0.26458332"
       y="236.41986"
       x="120.88126"><tspan
         id="tspan848"
         sodipodi:role="line"
         x="120.88126"
         y="236.41986"
         style="stroke-width:0.26458332">$U_A$</tspan></text>
    <text
       id="text864"
       xml:space="preserve"
       style="font-size:2.64583325px;font-family:monospace;-inkscape-font-specification:'monospace, Normal';fill:#000000;fill-opacity:1;stroke:none;stroke-width:0.26458332"
       y="232.66719"
       x="130.58292"><tspan
         id="tspan862"
         sodipodi:role="line"
         x="130.58292"
         y="232.66719"
         style="stroke-width:0.26458332">$U_B$</tspan></text>
    <text
       id="text878"
       xml:space="preserve"
       style="font-size:2.64583325px;font-family:monospace;-inkscape-font-specification:'monospace, Normal';fill:#000000;fill-opacity:1;stroke:none;stroke-width:0.26458332"
       y="226.82077"
       x="117.39639"><tspan
         id="tspan876"
         sodipodi:role="line"
         x="117.39639"
         y="226.82077"
         style="stroke-width:0.26458332">$A$</tspan></text>
    <text
       id="text892"
       xml:space="preserve"
       style="font-size:2.64583325px;font-family:monospace;-inkscape-font-specification:'monospace, Normal';fill:#000000;fill-opacity:1;stroke:none;stroke-width:0.26458332"
       y="222.55069"
       x="133.46198"><tspan
         id="tspan890"
         sodipodi:role="line"
         x="133.46198"
         y="222.55069"
         style="stroke-width:0.26458332">$B$</tspan></text>
  </g>
</svg>
