<?xml version="1.0" encoding="UTF-8" standalone="no"?>
<!-- Created with Inkscape (http://www.inkscape.org/) -->

<svg
   xmlns:dc="http://purl.org/dc/elements/1.1/"
   xmlns:cc="http://creativecommons.org/ns#"
   xmlns:rdf="http://www.w3.org/1999/02/22-rdf-syntax-ns#"
   xmlns:svg="http://www.w3.org/2000/svg"
   xmlns="http://www.w3.org/2000/svg"
   xmlns:sodipodi="http://sodipodi.sourceforge.net/DTD/sodipodi-0.dtd"
   xmlns:inkscape="http://www.inkscape.org/namespaces/inkscape"
   width="240mm"
   height="120mm"
   viewBox="0 0 240 120"
   version="1.1"
   id="svg8"
   inkscape:version="0.92.5 (2060ec1f9f, 2020-04-08)"
   sodipodi:docname="regular-space.svg">
  <defs
     id="defs2">
    <marker
       markerWidth="0.91100001"
       markerHeight="1.6900001"
       refX="0"
       refY="0"
       orient="auto-start-reverse"
       id="marker-arrow-0.5308">
      <g
         id="g1195"
         transform="scale(2.1535293)">
        <path
           id="path1193"
           inkscape:connector-curvature="0"
           style="fill:none;stroke:#000000;stroke-width:0.60000002;stroke-linecap:round;stroke-linejoin:round;stroke-miterlimit:10;stroke-dasharray:none;stroke-opacity:1"
           d="M -1.55415,2.0722 C -1.42464,1.29512 0,0.1295 0.38852,0 0,-0.1295 -1.42464,-1.29512 -1.55415,-2.0722" />
      </g>
    </marker>
    <marker
       markerWidth="0.91100001"
       markerHeight="1.6900001"
       refX="0"
       refY="0"
       orient="auto-start-reverse"
       id="marker1232">
      <g
         id="g1230"
         transform="scale(2.1535293)">
        <path
           id="path1228"
           inkscape:connector-curvature="0"
           style="fill:none;stroke:#000000;stroke-width:0.60000002;stroke-linecap:round;stroke-linejoin:round;stroke-miterlimit:10;stroke-dasharray:none;stroke-opacity:1"
           d="M -1.55415,2.0722 C -1.42464,1.29512 0,0.1295 0.38852,0 0,-0.1295 -1.42464,-1.29512 -1.55415,-2.0722" />
      </g>
    </marker>
    <marker
       markerWidth="0.91100001"
       markerHeight="1.6900001"
       refX="0"
       refY="0"
       orient="auto-start-reverse"
       id="marker1238">
      <g
         id="g1236"
         transform="scale(2.1535293)">
        <path
           id="path1234"
           inkscape:connector-curvature="0"
           style="fill:none;stroke:#000000;stroke-width:0.60000002;stroke-linecap:round;stroke-linejoin:round;stroke-miterlimit:10;stroke-dasharray:none;stroke-opacity:1"
           d="M -1.55415,2.0722 C -1.42464,1.29512 0,0.1295 0.38852,0 0,-0.1295 -1.42464,-1.29512 -1.55415,-2.0722" />
      </g>
    </marker>
  </defs>
  <sodipodi:namedview
     id="base"
     pagecolor="#ffffff"
     bordercolor="#666666"
     borderopacity="1.0"
     inkscape:pageopacity="0.0"
     inkscape:pageshadow="2"
     inkscape:zoom="0.99437388"
     inkscape:cx="775.63492"
     inkscape:cy="186.53929"
     inkscape:document-units="mm"
     inkscape:current-layer="layer1"
     showgrid="false"
     showborder="true"
     width="200mm"
     showguides="true"
     inkscape:guide-bbox="true"
     inkscape:window-width="849"
     inkscape:window-height="1387"
     inkscape:window-x="854"
     inkscape:window-y="20"
     inkscape:window-maximized="0"
     inkscape:snap-global="false">
    <inkscape:grid
       type="xygrid"
       id="grid815"
       units="mm"
       spacingx="10"
       spacingy="10"
       empspacing="4"
       dotted="false" />
  </sodipodi:namedview>
  <metadata
     id="metadata5">
    <rdf:RDF>
      <cc:Work
         rdf:about="">
        <dc:format>image/svg+xml</dc:format>
        <dc:type
           rdf:resource="http://purl.org/dc/dcmitype/StillImage" />
        <dc:title />
      </cc:Work>
    </rdf:RDF>
  </metadata>
  <g
     inkscape:label="Layer 1"
     inkscape:groupmode="layer"
     id="layer1"
     transform="translate(0,-177)">
    <path
       style="color:#000000;clip-rule:nonzero;display:inline;overflow:visible;visibility:visible;opacity:1;isolation:auto;mix-blend-mode:normal;color-interpolation:sRGB;color-interpolation-filters:linearRGB;solid-color:#000000;solid-opacity:1;vector-effect:none;fill:none;fill-opacity:1;fill-rule:nonzero;stroke:#000000;stroke-width:0.45043632;stroke-linecap:round;stroke-linejoin:round;stroke-miterlimit:4;stroke-dasharray:none;stroke-dashoffset:0;stroke-opacity:1;marker-start:none;marker-end:none;color-rendering:auto;image-rendering:auto;shape-rendering:auto;text-rendering:auto;enable-background:accumulate"
       d="m 203.40028,221.62039 c 5.79426,28.97126 -62.38311,61.8293 -84.73499,58.10403 -11.80913,-1.96822 -19.107202,-16.99354 -28.083597,-23.72582 -6.937543,-5.20316 -18.283931,-1.0659 -25.1784,-9.68401 -12.536813,-15.67105 8.192076,-22.05661 22.299916,-28.31276 14.107841,-6.25612 103.652061,-56.60648 115.697071,3.61856 z"
       id="path24"
       inkscape:connector-curvature="0"
       sodipodi:nodetypes="scsscs" />
    <path
       style="opacity:1;vector-effect:none;fill:#000000;fill-opacity:1;stroke:none;stroke-width:0.84993351;stroke-linecap:round;stroke-linejoin:round;stroke-miterlimit:4;stroke-dasharray:none;stroke-dashoffset:0;stroke-opacity:1;marker-start:none;marker-end:none"
       d="m 178.08451,204.17825 12.16095,24.32186"
       id="path832"
       inkscape:connector-curvature="0" />
    <path
       style="opacity:1;vector-effect:none;fill:#000000;fill-opacity:1;stroke:none;stroke-width:0.84993351;stroke-linecap:round;stroke-linejoin:round;stroke-miterlimit:4;stroke-dasharray:none;stroke-dashoffset:0;stroke-opacity:1;marker-start:none;marker-end:none"
       d="m 174.88427,211.00543 c 0.28449,0.0712 0.56894,0.14241 0.85339,0.21328"
       id="path834"
       inkscape:connector-curvature="0" />
    <path
       style="fill:none;stroke:#000000;stroke-width:0;stroke-linecap:butt;stroke-linejoin:miter;stroke-miterlimit:4;stroke-dasharray:none;stroke-opacity:1"
       d="m 114.71968,229.35351 c 1.06675,-0.21329 23.46847,1.06674 23.46847,1.06674 l -1.92015,26.45536 -8.10731,-14.93449 -10.24077,11.30755 z"
       id="path840"
       inkscape:connector-curvature="0" />
    <path
       style="fill:none;stroke:#000000;stroke-width:0.52920395;stroke-linecap:butt;stroke-linejoin:miter;stroke-miterlimit:4;stroke-dasharray:none;stroke-opacity:1"
       d="m 99.571838,229.56686 30.295642,-5.12038 11.0942,29.01554 -16.42793,-18.13473 -6.61383,17.92138 z"
       id="path842"
       inkscape:connector-curvature="0" />
    <path
       style="opacity:1;vector-effect:none;fill:#0000ff;fill-opacity:0;stroke:#0000ff;stroke-width:0.52920395;stroke-linecap:round;stroke-linejoin:round;stroke-miterlimit:4;stroke-dasharray:none;stroke-dashoffset:0;stroke-opacity:1;marker-start:none;marker-end:none"
       d="m 104.05372,216.12797 c -0.28448,-0.0712 -0.56586,-0.15588 -0.8534,-0.21328 -0.19211,-0.0385 -0.44376,0 -0.64005,0 -0.4978,0 -0.9956,0 -1.49344,0 -0.0725,0 -0.7379,-0.0385 -0.8534,0 -0.301812,0.10077 -0.544822,0.34955 -0.853402,0.42669 -0.738958,0.18473 -0.12797,-0.27005 -0.853394,0.21328 -0.08371,0.0559 -0.129575,0.15748 -0.213285,0.21328 -0.264602,0.17641 -0.588763,0.25017 -0.853397,0.42671 -0.313995,0.20943 -0.539468,0.64412 -0.853399,0.85343 -0.132141,0.0882 -0.29956,0.11802 -0.426698,0.21328 -0.297316,0.22291 -0.584242,0.58427 -0.853397,0.85343 -0.142083,0.14209 -0.284487,0.28449 -0.426699,0.4267 -0.0712,0.0712 -0.157479,0.12951 -0.213285,0.21328 -0.0882,0.13245 -0.125084,0.29443 -0.213286,0.42673 -0.167421,0.25114 -0.458996,0.39867 -0.640048,0.64006 -0.09557,0.12737 -0.125084,0.29442 -0.213285,0.4267 -0.05581,0.0837 -0.157479,0.1295 -0.213285,0.21328 -0.176401,0.2646 -0.25017,0.58876 -0.426699,0.8534 -0.05581,0.0837 -0.181533,0.11801 -0.213285,0.21328 -0.04491,0.13503 0.03464,0.28866 0,0.4267 0.128613,0.38616 -0.345618,0.39678 -0.426699,0.64005 -0.04491,0.13503 0.03464,0.28865 0,0.4267 -0.03849,0.15427 -0.174797,0.2723 -0.213285,0.42669 -0.03464,0.13792 0.04491,0.29187 0,0.4267 -0.03208,0.0956 -0.181533,0.11801 -0.213285,0.21329 -0.09012,0.26974 0.06895,0.5774 0,0.85339 -0.03849,0.15428 -0.174798,0.2723 -0.213286,0.42671 -0.04202,0.16773 0,1.05821 0,1.28009 0,0.35556 0,0.71116 0,1.06675 0,0.1424 -0.03432,0.28866 0,0.42669 0.03849,0.15428 0.174799,0.27231 0.213286,0.4267 0.200456,0.80148 -0.200457,0.052 0,0.8534 0.03849,0.15428 0.174798,0.2723 0.213285,0.4267 0.03432,0.13791 -0.03464,0.28866 0,0.42671 0.03849,0.15426 0.174797,0.27229 0.213285,0.42669 0.06896,0.27615 -0.06895,0.5774 0,0.85339 0.169025,0.67556 0.257867,0.17801 0.426699,0.85341 0.03464,0.13791 -0.03432,0.28866 0,0.42669 0.03849,0.15428 0.162931,0.27583 0.213285,0.4267 0.02245,0.0674 -0.02245,0.14593 0,0.21329 0.05036,0.15073 0.174797,0.2723 0.213285,0.4267 0.03432,0.13791 -0.04491,0.29186 0,0.42669 0.03208,0.0953 0.181533,0.11802 0.213286,0.2133 0.04491,0.13501 -0.03464,0.28864 0,0.42669 0.07729,0.30854 0.326117,0.55169 0.426698,0.85339 0.02245,0.0674 -0.02245,0.14594 0,0.2133 0.05036,0.15073 0.162932,0.27581 0.213286,0.42669 0.02245,0.0674 -0.02245,0.14594 0,0.21328 0.0712,0.14209 0.142083,0.28449 0.213285,0.4267 0,0.0712 -0.02245,0.14593 0,0.21329 0.05036,0.15075 0.16293,0.27583 0.213285,0.4267 0.02245,0.0674 -0.03208,0.14978 0,0.21328 0.488215,0.97643 -0.08852,-0.90532 0.426699,0.64005 0.02245,0.0674 -0.02245,0.14594 0,0.21328 0.05036,0.15075 0.16293,0.27583 0.213285,0.42674 0.02245,0.0674 -0.02245,0.14593 0,0.21328 0.05036,0.15075 0.162931,0.27583 0.213286,0.4267 0.02245,0.0674 0,0.1424 0,0.21329 0,0.14241 -0.04491,0.29185 0,0.4267 0.03208,0.0953 0.157477,0.12964 0.213285,0.21328 0.0882,0.13218 0.16293,0.27583 0.213284,0.4267 0.211683,0.63508 -0.50518,-0.43777 0.213285,0.64005 0.05581,0.0837 0.168384,0.12349 0.213286,0.21328 0.03208,0.0639 0,0.1424 0,0.21329 0.0712,0.14209 0.125085,0.29442 0.213285,0.4267 0.05581,0.0837 0.142404,0.14208 0.213285,0.21328 0.0712,0.14208 0.125084,0.29443 0.213286,0.42673 0.05581,0.0837 0.168383,0.1235 0.213285,0.21328 0.03208,0.0635 0,0.14209 0,0.2133 0.0712,0.14207 0.125084,0.29442 0.213285,0.42669 0.05581,0.0837 0.157478,0.12965 0.213286,0.21328 0.0882,0.13245 0.125084,0.29444 0.213285,0.4267 0.325475,0.48819 0.169025,-0.13338 0.426699,0.64006 0.02245,0.0674 -0.03208,0.14978 0,0.21328 0.04491,0.0898 0.142082,0.14208 0.213285,0.21328 0.13663,0.13663 0.720291,0.65375 0.853401,0.8534 0.0882,0.13218 0.10102,0.31431 0.21328,0.4267 0.11258,0.11253 0.29443,0.12509 0.4267,0.21329 0.0837,0.0559 0.12957,0.15747 0.21328,0.21328 0.132472,0.0882 0.294432,0.1251 0.426702,0.21328 0.0837,0.0559 0.14241,0.14209 0.21329,0.2133 0.1424,0.0712 0.29443,0.12509 0.4267,0.21328 0.0837,0.0559 0.12957,0.15748 0.21328,0.21328 0.13246,0.0882 0.29956,0.11801 0.4267,0.21329 0.16101,0.12056 0.25947,0.31527 0.4267,0.4267 0.0593,0.0394 0.14593,-0.0225 0.21329,0 0.15074,0.0504 0.28448,0.14208 0.42669,0.21328 0.28449,0.14208 0.56895,0.28449 0.8534,0.42669 0.85343,0.42671 1.70683,0.85341 2.56023,1.2801 0.28448,0.14209 0.56891,0.28449 0.8534,0.4267 0.14208,0.0712 0.2723,0.1748 0.42669,0.21329 0.13792,0.0343 0.28866,-0.0346 0.4267,0 0.15427,0.0385 0.28449,0.14241 0.4267,0.21328 0.14209,0.0712 0.29443,0.1251 0.4267,0.21328 0.0837,0.0559 0.11578,0.18892 0.21328,0.2133 0.20687,0.0516 0.43084,-0.0417 0.64005,0 0.31175,0.0625 0.54485,0.34956 0.8534,0.42669 0.13791,0.0344 0.28865,-0.0343 0.42669,0 0.30855,0.0773 0.55166,0.32613 0.8534,0.4267 0.0674,0.0224 0.14593,-0.0224 0.21328,0 0.15075,0.0504 0.2723,0.1748 0.4267,0.21329 0.27583,0.069 0.57741,-0.069 0.8534,0 0.15427,0.0385 0.27583,0.16292 0.4267,0.21328 0.0674,0.0225 0.14593,-0.0224 0.21329,0 0.15073,0.0504 0.27229,0.17481 0.42669,0.21328 0.37042,0.0928 0.90969,-0.0927 1.2801,0 0.15426,0.0385 0.27582,0.16294 0.4267,0.2133 0.20237,0.0674 0.43308,-0.0516 0.64006,0 0.15426,0.0385 0.27581,0.16292 0.42669,0.21328 0.22675,0.0756 0.6267,-0.0756 0.85339,0 0.15075,0.0504 0.27583,0.16293 0.4267,0.21328 0.0674,0.0224 0.14208,0 0.21329,0 0.22194,0 1.11229,-0.042 1.28009,0 0.15427,0.0385 0.2723,0.1748 0.42669,0.21329 0.13792,0.0344 0.28449,0 0.42671,0 0.14208,0 0.28449,0 0.4267,0 0.49779,0 0.99564,0 1.49344,0 0.21328,0 0.4267,0 0.64006,0 0.14239,0 0.28736,-0.0289 0.42669,0 0.22066,0.0442 0.41823,0.1764 0.64005,0.21329 0.14785,0.0257 1.55887,0.0257 1.70679,0 0.22194,-0.0369 0.41824,-0.17641 0.64004,-0.21329 0.21041,-0.035 0.42674,0 0.64006,0 0.56894,0 1.13788,0 1.70682,0 0.21329,0 0.42958,0.035 0.64006,0 0.22194,-0.0369 0.41819,-0.1764 0.64001,-0.21329 0.2104,-0.035 0.42673,0 0.64009,0 0.49779,0 0.9956,0 1.49343,0 0.14208,0 0.28866,0.0346 0.42671,0 0.15426,-0.0385 0.27229,-0.17479 0.42669,-0.21328 0.27583,-0.069 0.57742,0.069 0.85339,0 0.15428,-0.0385 0.2723,-0.1748 0.42671,-0.21328 0.13792,-0.0346 0.28738,0.0289 0.4267,0 0.22034,-0.0442 0.41952,-0.16935 0.64004,-0.2133 0.13952,-0.0289 0.28866,0.0346 0.42671,0 0.15427,-0.0385 0.2723,-0.17478 0.42669,-0.21328 0.27583,-0.069 0.57742,0.069 0.85341,0 0.15426,-0.0385 0.27229,-0.1748 0.42669,-0.21328 0.1379,-0.0343 0.28865,0.0344 0.4267,0 0.15427,-0.0385 0.2723,-0.1748 0.42669,-0.21329 0.13792,-0.0344 0.28866,0.0343 0.4267,0 0.15427,-0.0385 0.27583,-0.16292 0.42671,-0.21328 0.0674,-0.0225 0.14593,0.0224 0.21328,0 0.30181,-0.10078 0.54485,-0.34957 0.8534,-0.4267 0.13792,-0.0343 0.28865,0.0346 0.4267,0 0.38616,0.12858 0.39677,-0.34562 0.64005,-0.42671 0.13503,-0.0449 0.28865,0.0346 0.4267,0 0.61875,-0.15458 0.24953,-0.16645 0.64004,-0.42669 0.13218,-0.0882 0.29444,-0.1251 0.4267,-0.21328 0.1841,-0.12283 0.4734,-0.4734 0.64005,-0.64006 0.21328,-0.21328 0.4267,-0.42669 0.64005,-0.64004 0.0712,-0.0712 0.15748,-0.12951 0.21328,-0.21328 0.0882,-0.13245 0.12509,-0.29444 0.21329,-0.42671 0.0559,-0.0837 0.16838,-0.12349 0.21328,-0.21328 0.0321,-0.0635 -0.0321,-0.14978 0,-0.21328 0.0449,-0.0901 0.18154,-0.11802 0.21328,-0.2133 0.0642,-0.19211 -0.0639,-0.44802 0,-0.64004 0.0504,-0.15074 0.17481,-0.2723 0.2133,-0.42669 0.0346,-0.13792 0,-0.28449 0,-0.4267 0,-0.14241 0,-0.28449 0,-0.42671 0,-0.0712 -0.0225,-0.14593 0,-0.21328 0.0504,-0.15074 0.17479,-0.2723 0.21328,-0.42669 0.0134,-0.0545 0.0257,-0.99257 0,-1.06676 -0.60439,-1.20877 0.0795,0.31817 -0.21328,-0.85339 -0.0385,-0.15427 -0.17481,-0.2723 -0.2133,-0.42673 -0.0346,-0.13792 0.0344,-0.28866 0,-0.42667 -0.0385,-0.15427 -0.16292,-0.27583 -0.21328,-0.4267 -0.0224,-0.0674 0.0225,-0.14593 0,-0.21329 -0.0504,-0.15073 -0.1748,-0.27229 -0.21328,-0.42669 -0.0346,-0.13792 0.0289,-0.28738 0,-0.4267 -0.0879,-0.43937 -0.23702,-0.68745 -0.42669,-1.06675 -0.0712,-0.14209 -0.17481,-0.2723 -0.2133,-0.4267 -0.37993,-1.51971 0.6457,1.0809 -0.21328,-1.06675 -0.0591,-0.14754 -0.1251,-0.29442 -0.21328,-0.42669 -0.0559,-0.0837 -0.18154,-0.11802 -0.21329,-0.21328 -0.0449,-0.13503 0.0343,-0.28866 0,-0.42671 -0.15459,-0.61874 -0.16645,-0.24953 -0.4267,-0.64005 -0.0882,-0.13218 -0.14208,-0.28449 -0.21328,-0.42669 -0.0712,-0.14209 -0.1748,-0.2723 -0.21329,-0.4267 -0.0344,-0.13791 0.0346,-0.28866 0,-0.4267 -0.1546,-0.61876 -0.16645,-0.24953 -0.4267,-0.64005 -0.2367,-0.35527 -0.39285,-0.95051 -0.64004,-1.2801 -0.12056,-0.16101 -0.30598,-0.26588 -0.4267,-0.42669 -0.0953,-0.12737 -0.1251,-0.29444 -0.21329,-0.4267 -0.0559,-0.0837 -0.15748,-0.12951 -0.21328,-0.21329 -0.2367,-0.35527 -0.39287,-0.95052 -0.64006,-1.2801 -0.12055,-0.161 -0.30597,-0.26587 -0.42669,-0.4267 -0.19083,-0.25433 -0.23574,-0.59895 -0.4267,-0.85339 -0.1809,-0.2415 -0.4727,-0.38897 -0.64004,-0.64005 -0.17641,-0.26461 -0.25017,-0.58876 -0.42671,-0.85339 -0.16741,-0.25113 -0.45903,-0.39867 -0.64004,-0.64006 -0.0953,-0.12737 -0.1251,-0.29442 -0.2133,-0.42669 -0.0559,-0.0837 -0.15747,-0.12965 -0.21328,-0.21329 -0.1764,-0.2646 -0.23573,-0.59897 -0.42669,-0.8534 -0.92281,-0.92279 -0.0334,0.0564 -0.64006,-0.85339 -0.16742,-0.25113 -0.45903,-0.39867 -0.64004,-0.64006 -0.0953,-0.12737 -0.10104,-0.3143 -0.21328,-0.42669 -0.11254,-0.11254 -0.31432,-0.10104 -0.42671,-0.21328 -0.22483,-0.22483 -0.20174,-0.62851 -0.4267,-0.85341 -0.11253,-0.11253 -0.31432,-0.10104 -0.42669,-0.21328 -0.11254,-0.11253 -0.10104,-0.31432 -0.21328,-0.42669 -1.09033,-1.09033 0.29762,0.89454 -0.85341,-0.64006 -0.0956,-0.12737 -0.10104,-0.31431 -0.21328,-0.42669 -0.11253,-0.11254 -0.29956,-0.11802 -0.42669,-0.21328 -0.16101,-0.12056 -0.26589,-0.30599 -0.42674,-0.42671 -0.12737,-0.0953 -0.29955,-0.11802 -0.42667,-0.21328 -0.16101,-0.12056 -0.26588,-0.30598 -0.42669,-0.4267 -0.25434,-0.19084 -0.59896,-0.23573 -0.85341,-0.42669 -0.16099,-0.12056 -0.26588,-0.30598 -0.42669,-0.42671 -0.12737,-0.0956 -0.29442,-0.1251 -0.42674,-0.21328 -0.0837,-0.0559 -0.12964,-0.15748 -0.21328,-0.21328 -0.13245,-0.0882 -0.29956,-0.11802 -0.42669,-0.2133 -0.24151,-0.18088 -0.38902,-0.47268 -0.64009,-0.64004 -0.49825,-0.33218 -1.20854,-0.52125 -1.70679,-0.8534 -0.0837,-0.0559 -0.12964,-0.15747 -0.21328,-0.21329 -0.13245,-0.0882 -0.28449,-0.1424 -0.4267,-0.21328 -0.14208,-0.0712 -0.2723,-0.1748 -0.4267,-0.21329 -0.73896,-0.18473 -0.12791,0.27006 -0.8534,-0.21328 -0.0837,-0.0559 -0.1295,-0.15748 -0.21328,-0.21328 -0.2646,-0.17641 -0.58877,-0.25017 -0.8534,-0.42671 -0.0837,-0.0559 -0.12964,-0.15747 -0.21328,-0.21328 -0.16871,-0.11254 -1.09173,-0.57728 -1.2801,-0.64004 -0.0674,-0.0225 -0.14593,0.0225 -0.21328,0 -0.30181,-0.10064 -0.54486,-0.34957 -0.85339,-0.4267 -0.13792,-0.0346 -0.28866,0.0343 -0.42671,0 -0.15427,-0.0385 -0.27583,-0.16293 -0.42669,-0.21329 -0.0674,-0.0225 -0.14594,0.0224 -0.2133,0 -0.15073,-0.0504 -0.27229,-0.17479 -0.42669,-0.21328 -0.13792,-0.0346 -0.29187,0.0449 -0.4267,0 -0.0953,-0.0321 -0.11801,-0.18154 -0.21328,-0.21329 -1.41519,0 0.3018,0.10078 -0.64006,-0.21329 -0.32008,-0.10679 -0.74672,0.10679 -1.06673,0 -0.0953,-0.0321 -0.11802,-0.18152 -0.21329,-0.21328 -0.12483,-0.0417 -1.09699,0 -1.28009,0 -0.14241,0 -0.28449,0 -0.4267,0 -0.0712,0 -0.14978,0.0321 -0.21328,0 -0.0898,-0.0449 -0.12349,-0.16839 -0.21329,-0.21328 -0.0561,-0.0289 -0.74185,0 -0.8534,0 -0.64005,0 -1.28009,0 -1.92014,0 -0.56895,0 -1.13789,0 -1.7068,0 -0.11161,0 -0.7973,-0.0289 -0.8534,0 -0.0901,0.0449 -0.12348,0.16837 -0.21328,0.21328 -0.0635,0.0321 -0.14208,0 -0.21329,0 -0.0712,0 -0.14208,0 -0.21328,0 -0.35559,0 -0.71119,0 -1.06675,0 -0.0712,0 -0.14208,0 -0.21328,0 -0.0712,0 -0.14978,-0.0321 -0.21329,0 -0.0898,0.0449 -0.12348,0.16839 -0.21328,0.21328 -0.0635,0.0321 -0.14209,0 -0.21329,0 -0.0712,0 -0.14208,0 -0.21328,0 -0.3556,0 -0.71119,0 -1.06675,0 -0.1424,0 -0.29475,-0.0527 -0.4267,0 -0.29539,0.11801 -0.56894,0.28449 -0.85343,0.42674 z"
       id="path844"
       inkscape:connector-curvature="0" />
    <text
       id="text850"
       xml:space="preserve"
       style="font-size:8.48597145px;font-family:monospace;-inkscape-font-specification:'monospace, Normal';fill:#000000;fill-opacity:1;stroke:none;stroke-width:0.84859711"
       y="268.03281"
       x="121.80602"><tspan
         id="tspan848"
         sodipodi:role="line"
         x="121.80602"
         y="268.03281"
         style="stroke-width:0.84859711">$U_A$</tspan></text>
    <text
       id="text878"
       xml:space="preserve"
       style="font-size:8.48597145px;font-family:monospace;-inkscape-font-specification:'monospace, Normal';fill:#000000;fill-opacity:1;stroke:none;stroke-width:0.84859711"
       y="237.2457"
       x="110.62899"><tspan
         id="tspan876"
         sodipodi:role="line"
         x="110.62899"
         y="237.2457"
         style="stroke-width:0.84859711">$A$</tspan></text>
    <text
       id="text115"
       xml:space="preserve"
       style="font-size:2.64583325px;font-family:monospace;-inkscape-font-specification:'monospace, Normal';fill:#000000;fill-opacity:1;stroke:none;stroke-width:0.26458332"
       y="241.28407"
       x="166.26323"><tspan
         id="tspan113"
         sodipodi:role="line"
         x="166.26323"
         y="241.28407"
         style="stroke-width:0.26458332">$U_x$</tspan></text>
    <ellipse
       style="opacity:1;vector-effect:none;fill:#000000;fill-opacity:1;stroke:#000000;stroke-width:0.06088157;stroke-linecap:round;stroke-linejoin:round;stroke-miterlimit:4;stroke-dasharray:none;stroke-dashoffset:0;stroke-opacity:1;marker-start:none;marker-end:none"
       id="path45"
       cx="169.75925"
       cy="217.1759"
       rx="0.90824103"
       ry="0.90824085" />
    <path
       style="opacity:1;vector-effect:none;fill:#0000ff;fill-opacity:0;stroke:#0000ff;stroke-width:0.462;stroke-linecap:round;stroke-linejoin:round;stroke-miterlimit:4;stroke-dasharray:none;stroke-dashoffset:0;stroke-opacity:1;marker-start:none;marker-end:none"
       d="m 164.73041,228.65818 c -0.14319,0.0347 -0.28494,0.0759 -0.42972,0.10389 -0.0968,0.0188 -0.22346,0 -0.32229,0 -0.25073,0 -0.50135,0 -0.75202,0 -0.0364,0 -0.37157,0.0188 -0.42972,0 -0.15212,-0.0491 -0.27434,-0.17026 -0.42975,-0.20784 -0.37208,-0.09 -0.0645,0.13154 -0.42969,-0.10388 -0.042,-0.0272 -0.0652,-0.0767 -0.10727,-0.10389 -0.13326,-0.0859 -0.29649,-0.12185 -0.42972,-0.20784 -0.15823,-0.10201 -0.27167,-0.31375 -0.42975,-0.4157 -0.0665,-0.043 -0.15084,-0.0575 -0.21479,-0.10388 -0.14983,-0.10858 -0.2942,-0.28459 -0.42972,-0.4157 -0.0716,-0.0692 -0.1432,-0.13857 -0.2148,-0.20784 -0.0359,-0.0347 -0.0792,-0.0631 -0.10727,-0.10388 -0.0443,-0.0645 -0.0629,-0.14342 -0.10753,-0.20786 -0.0843,-0.12233 -0.2311,-0.19419 -0.32227,-0.31176 -0.0482,-0.062 -0.0629,-0.14341 -0.10752,-0.20784 -0.028,-0.0408 -0.0793,-0.0631 -0.10727,-0.10389 -0.0889,-0.12888 -0.12588,-0.28678 -0.2148,-0.41568 -0.028,-0.0408 -0.0915,-0.0575 -0.10727,-0.10388 -0.0229,-0.0658 0.0178,-0.14061 0,-0.20784 0.0647,-0.1881 -0.17403,-0.19327 -0.2148,-0.31176 -0.0229,-0.0658 0.0178,-0.1406 0,-0.20784 -0.0204,-0.0752 -0.0879,-0.13264 -0.10752,-0.20784 -0.0178,-0.0672 0.0229,-0.14216 0,-0.20784 -0.0153,-0.0466 -0.0915,-0.0575 -0.10728,-0.10389 -0.0453,-0.13139 0.0347,-0.28124 0,-0.41567 -0.0204,-0.0751 -0.0879,-0.13264 -0.10727,-0.20785 -0.0204,-0.0817 0,-0.51544 0,-0.62351 0,-0.17319 0,-0.3464 0,-0.5196 0,-0.0694 -0.0178,-0.1406 0,-0.20784 0.0204,-0.0751 0.0879,-0.13264 0.10727,-0.20784 0.10091,-0.39039 -0.1009,-0.0253 0,-0.41568 0.0204,-0.0751 0.0879,-0.13263 0.10728,-0.20784 0.0178,-0.0672 -0.0178,-0.1406 0,-0.20784 0.0204,-0.0751 0.0882,-0.13263 0.10752,-0.20784 0.0346,-0.1345 -0.0346,-0.28124 0,-0.41567 0.0851,-0.32906 0.12995,-0.0867 0.2148,-0.41569 0.0178,-0.0672 -0.0178,-0.1406 0,-0.20783 0.0204,-0.0752 0.082,-0.13435 0.10727,-0.20784 0.0102,-0.0328 -0.0102,-0.0711 0,-0.10389 0.0255,-0.0734 0.0879,-0.13263 0.10727,-0.20784 0.0178,-0.0672 -0.0229,-0.14216 0,-0.20784 0.0153,-0.0464 0.0915,-0.0575 0.10753,-0.10389 0.0229,-0.0658 -0.0178,-0.14059 0,-0.20784 0.039,-0.15028 0.16409,-0.26872 0.21479,-0.41567 0.0102,-0.0328 -0.0102,-0.0711 0,-0.1039 0.0255,-0.0734 0.082,-0.13434 0.10727,-0.20783 0.0102,-0.0328 -0.0102,-0.0711 0,-0.10389 0.0359,-0.0692 0.0716,-0.13857 0.10753,-0.20784 0,-0.0347 -0.0102,-0.0711 0,-0.10389 0.0255,-0.0734 0.082,-0.13435 0.10727,-0.20784 0.0102,-0.0328 -0.0153,-0.0729 0,-0.10388 0.24588,-0.47561 -0.0446,0.44097 0.2148,-0.31176 0.0102,-0.0328 -0.0102,-0.0711 0,-0.10389 0.0255,-0.0734 0.082,-0.13435 0.10727,-0.20786 0.0102,-0.0328 -0.0102,-0.0711 0,-0.10388 0.0255,-0.0734 0.082,-0.13436 0.10752,-0.20784 0.0102,-0.0328 0,-0.0694 0,-0.10389 0,-0.0694 -0.0229,-0.14216 0,-0.20784 0.0153,-0.0464 0.0792,-0.0631 0.10727,-0.10389 0.0443,-0.0644 0.0821,-0.13435 0.10727,-0.20784 0.10651,-0.30934 -0.25429,0.21323 0.10727,-0.31176 0.028,-0.0408 0.0849,-0.0602 0.10753,-0.10388 0.0153,-0.0311 0,-0.0694 0,-0.1039 0.0359,-0.0692 0.0629,-0.1434 0.10727,-0.20784 0.028,-0.0408 0.0716,-0.0692 0.10727,-0.10388 0.0359,-0.0692 0.0629,-0.14341 0.10727,-0.20786 0.028,-0.0408 0.0849,-0.0602 0.10753,-0.10388 0.0153,-0.0309 0,-0.0692 0,-0.1039 0.0359,-0.0692 0.0629,-0.14341 0.10727,-0.20783 0.028,-0.0408 0.0792,-0.0632 0.10727,-0.10389 0.0443,-0.0645 0.0629,-0.14342 0.10727,-0.20784 0.16384,-0.23779 0.0851,0.065 0.2148,-0.31176 0.0102,-0.0328 -0.0153,-0.073 0,-0.10389 0.0229,-0.0437 0.0716,-0.0692 0.10727,-0.10388 0.0688,-0.0666 0.36268,-0.31844 0.42972,-0.41568 0.0443,-0.0644 0.051,-0.1531 0.10752,-0.20784 0.0566,-0.0548 0.1483,-0.0609 0.2148,-0.10389 0.042,-0.0272 0.0652,-0.0767 0.10727,-0.10389 0.0668,-0.043 0.14829,-0.0609 0.2148,-0.10389 0.042,-0.0272 0.0716,-0.0692 0.10727,-0.10389 0.0716,-0.0347 0.14829,-0.0609 0.21479,-0.10389 0.0421,-0.0272 0.0652,-0.0767 0.10728,-0.10388 0.0668,-0.043 0.15084,-0.0575 0.21479,-0.10389 0.081,-0.0587 0.13071,-0.15357 0.2148,-0.20784 0.0298,-0.0192 0.0734,0.011 0.10752,0 0.0759,-0.0246 0.1432,-0.0692 0.2148,-0.10389 0.1432,-0.0692 0.2865,-0.13857 0.42972,-0.20783 0.42975,-0.20785 0.85947,-0.41569 1.28919,-0.62352 0.14319,-0.0692 0.28647,-0.13857 0.42972,-0.20784 0.0716,-0.0347 0.13708,-0.0851 0.21479,-0.10389 0.0696,-0.0167 0.14549,0.0169 0.2148,0 0.0777,-0.0188 0.1432,-0.0694 0.2148,-0.10389 0.0716,-0.0347 0.14829,-0.0609 0.21479,-0.10389 0.042,-0.0272 0.0583,-0.092 0.10727,-0.10389 0.10422,-0.0251 0.21684,0.0203 0.3223,0 0.15696,-0.0304 0.27434,-0.17027 0.42972,-0.20784 0.0696,-0.0168 0.14524,0.0167 0.2148,0 0.15543,-0.0377 0.27778,-0.15885 0.42974,-0.20784 0.0339,-0.0109 0.0734,0.0109 0.10727,0 0.0759,-0.0245 0.13709,-0.0851 0.2148,-0.10389 0.13887,-0.0336 0.29075,0.0336 0.42972,0 0.0777,-0.0187 0.13887,-0.0793 0.2148,-0.10388 0.0339,-0.011 0.0734,0.0109 0.10727,0 0.0759,-0.0246 0.13708,-0.0851 0.21479,-0.10389 0.18652,-0.0452 0.45808,0.0452 0.6446,0 0.0777,-0.0188 0.13886,-0.0794 0.21479,-0.10389 0.10192,-0.0328 0.21811,0.0251 0.3223,0 0.0777,-0.0188 0.13887,-0.0794 0.2148,-0.10389 0.11415,-0.0368 0.31557,0.0368 0.42972,0 0.0759,-0.0246 0.13886,-0.0794 0.21479,-0.10389 0.0339,-0.0109 0.0716,0 0.10727,0 0.11186,0 0.56011,0.0205 0.6446,0 0.0777,-0.0188 0.13708,-0.0851 0.21479,-0.10389 0.0696,-0.0168 0.1432,0 0.2148,0 0.0716,0 0.1432,0 0.2148,0 0.25072,0 0.50134,0 0.75199,0 0.10727,0 0.21479,0 0.3223,0 0.0716,0 0.14472,0.0141 0.21479,0 0.11109,-0.0215 0.21072,-0.0859 0.3223,-0.10389 0.0744,-0.0125 0.78494,-0.0125 0.85944,0 0.11186,0.018 0.21072,0.0859 0.32227,0.10389 0.106,0.017 0.2148,0 0.3223,0 0.28649,0 0.57297,0 0.85946,0 0.10753,0 0.21633,-0.017 0.3223,0 0.11186,0.018 0.21046,0.0859 0.32227,0.10389 0.106,0.017 0.2148,0 0.32232,0 0.25073,0 0.50132,0 0.75199,0 0.0716,0 0.14524,-0.0169 0.2148,0 0.0777,0.0188 0.13708,0.0851 0.2148,0.10389 0.13886,0.0336 0.29077,-0.0336 0.42972,0 0.0777,0.0188 0.13708,0.0851 0.21479,0.10389 0.0696,0.0169 0.14473,-0.0141 0.2148,0 0.11084,0.0215 0.21123,0.0825 0.32227,0.10389 0.0703,0.0141 0.14549,-0.0169 0.2148,0 0.0777,0.0187 0.13708,0.0851 0.21479,0.10389 0.13887,0.0336 0.29078,-0.0336 0.42975,0 0.0777,0.0187 0.13708,0.0851 0.2148,0.10388 0.0693,0.0167 0.14549,-0.0168 0.21479,0 0.0777,0.0188 0.13708,0.0851 0.2148,0.10389 0.0696,0.0168 0.14549,-0.0167 0.2148,0 0.0777,0.0188 0.13886,0.0794 0.21479,0.10389 0.0339,0.011 0.0734,-0.0109 0.10727,0 0.15212,0.0491 0.27437,0.17027 0.42972,0.20784 0.0696,0.0167 0.14524,-0.0169 0.2148,0 0.19441,-0.0626 0.19976,0.16835 0.3223,0.20784 0.068,0.0219 0.14523,-0.0169 0.21479,0 0.31157,0.0753 0.12562,0.0811 0.3223,0.20784 0.0665,0.043 0.14829,0.0609 0.2148,0.10389 0.0927,0.0598 0.23823,0.23058 0.32227,0.31176 0.10752,0.10389 0.21479,0.20783 0.32229,0.31175 0.0359,0.0347 0.0793,0.0631 0.10727,0.10389 0.0443,0.0645 0.0629,0.14342 0.10727,0.20785 0.0283,0.0408 0.0849,0.0602 0.10753,0.10388 0.0153,0.0309 -0.0153,0.073 0,0.10389 0.0229,0.0439 0.0915,0.0575 0.10727,0.10389 0.0324,0.0936 -0.0321,0.21823 0,0.31176 0.0255,0.0734 0.0879,0.13263 0.10727,0.20783 0.0178,0.0672 0,0.13857 0,0.20784 0,0.0694 0,0.13857 0,0.20785 0,0.0347 -0.0102,0.0711 0,0.10388 0.0255,0.0734 0.0879,0.13264 0.10727,0.20784 0.008,0.0265 0.0127,0.48346 0,0.5196 -0.30433,0.58878 0.04,-0.15497 -0.10727,0.41568 -0.0204,0.0751 -0.0879,0.13263 -0.10727,0.20785 -0.0178,0.0672 0.0178,0.1406 0,0.20783 -0.0204,0.0751 -0.082,0.13435 -0.10727,0.20784 -0.0102,0.0328 0.0102,0.0711 0,0.10389 -0.0255,0.0734 -0.0879,0.13263 -0.10753,0.20783 -0.0178,0.0672 0.0153,0.13998 0,0.20784 -0.0443,0.21401 -0.11924,0.33485 -0.21479,0.5196 -0.0359,0.0692 -0.0879,0.13263 -0.10727,0.20784 -0.19136,0.74023 0.32512,-0.52649 -0.10753,0.5196 -0.0298,0.0719 -0.0629,0.14341 -0.10727,0.20784 -0.028,0.0408 -0.0915,0.0575 -0.10727,0.10388 -0.0229,0.0658 0.0178,0.1406 0,0.20785 -0.078,0.30138 -0.0838,0.12154 -0.2148,0.31176 -0.0443,0.0644 -0.0716,0.13857 -0.10752,0.20783 -0.0359,0.0692 -0.0879,0.13263 -0.10727,0.20784 -0.0178,0.0672 0.0178,0.1406 0,0.20784 -0.078,0.30139 -0.0838,0.12154 -0.2148,0.31176 -0.11925,0.17305 -0.19772,0.46298 -0.3223,0.62352 -0.0606,0.0784 -0.15415,0.12951 -0.21479,0.20783 -0.0479,0.062 -0.0629,0.14342 -0.10727,0.20784 -0.028,0.0408 -0.0793,0.0631 -0.10727,0.10389 -0.11925,0.17305 -0.19773,0.46299 -0.3223,0.62352 -0.0606,0.0784 -0.15415,0.12951 -0.2148,0.20784 -0.0961,0.12388 -0.11873,0.29174 -0.21479,0.41568 -0.0912,0.11763 -0.23799,0.18946 -0.32227,0.31176 -0.0889,0.12889 -0.12588,0.28678 -0.2148,0.41567 -0.0843,0.12232 -0.2311,0.19419 -0.3223,0.31177 -0.0479,0.062 -0.0629,0.14341 -0.10727,0.20783 -0.0283,0.0408 -0.0792,0.0632 -0.10752,0.10389 -0.0889,0.12889 -0.11874,0.29175 -0.2148,0.41568 -0.46468,0.44948 -0.0178,-0.0275 -0.3223,0.41568 -0.0843,0.12232 -0.2311,0.19418 -0.32229,0.31176 -0.0479,0.062 -0.051,0.15309 -0.10727,0.20784 -0.0566,0.0548 -0.15824,0.0492 -0.2148,0.10388 -0.11313,0.10951 -0.10167,0.30614 -0.2148,0.41569 -0.0566,0.0548 -0.15823,0.0492 -0.21479,0.10388 -0.0566,0.0548 -0.051,0.1531 -0.10727,0.20784 -0.54905,0.53108 0.14982,-0.43572 -0.42975,0.31176 -0.0482,0.062 -0.051,0.1531 -0.10753,0.20784 -0.0566,0.0548 -0.15084,0.0575 -0.21479,0.10388 -0.081,0.0587 -0.13377,0.14905 -0.2148,0.20785 -0.0642,0.0464 -0.15084,0.0575 -0.2148,0.10388 -0.081,0.0587 -0.13377,0.14904 -0.21479,0.20784 -0.12817,0.093 -0.30158,0.11482 -0.42972,0.20784 -0.081,0.0587 -0.13377,0.14904 -0.2148,0.20784 -0.0642,0.0466 -0.14829,0.0609 -0.21479,0.10389 -0.0421,0.0272 -0.0652,0.0767 -0.10728,0.10388 -0.0668,0.043 -0.15084,0.0575 -0.21479,0.1039 -0.12154,0.0881 -0.19594,0.23024 -0.32232,0.31176 -0.25098,0.1618 -0.60854,0.25389 -0.85944,0.41567 -0.042,0.0272 -0.0652,0.0767 -0.10728,0.1039 -0.0668,0.043 -0.14319,0.0694 -0.21479,0.10388 -0.0716,0.0347 -0.13708,0.0851 -0.2148,0.10389 -0.37208,0.09 -0.0645,-0.13154 -0.42972,0.10389 -0.042,0.0272 -0.0652,0.0767 -0.10727,0.10388 -0.13326,0.0859 -0.29646,0.12186 -0.42972,0.20785 -0.042,0.0272 -0.0652,0.0767 -0.10727,0.10388 -0.0848,0.0548 -0.54973,0.28119 -0.64457,0.31176 -0.0339,0.011 -0.0734,-0.011 -0.10727,0 -0.15211,0.049 -0.27437,0.17027 -0.42972,0.20784 -0.0696,0.0168 -0.14524,-0.0167 -0.2148,0 -0.0777,0.0187 -0.13886,0.0794 -0.21479,0.10389 -0.0339,0.011 -0.0734,-0.0109 -0.10753,0 -0.0759,0.0246 -0.13708,0.0851 -0.21479,0.10389 -0.0696,0.0169 -0.14702,-0.0219 -0.2148,0 -0.0479,0.0156 -0.0594,0.0884 -0.10727,0.10389 -0.71263,0 0.15186,-0.0491 -0.3223,0.10389 -0.16129,0.052 -0.37601,-0.052 -0.53717,0 -0.0479,0.0156 -0.0594,0.0884 -0.10727,0.10388 -0.0629,0.0203 -0.55238,0 -0.64457,0 -0.0716,0 -0.14319,0 -0.21479,0 -0.0359,0 -0.0754,-0.0156 -0.10753,0 -0.0451,0.0219 -0.0622,0.082 -0.10727,0.10389 -0.0283,0.0141 -0.37354,0 -0.42972,0 -0.3223,0 -0.64457,0 -0.96686,0 -0.2865,0 -0.57297,0 -0.85944,0 -0.0563,0 -0.40149,0.0141 -0.42972,0 -0.0454,-0.0219 -0.0622,-0.082 -0.10728,-0.10389 -0.0321,-0.0156 -0.0716,0 -0.10752,0 -0.0359,0 -0.0716,0 -0.10727,0 -0.17913,0 -0.35812,0 -0.53717,0 -0.0359,0 -0.0716,0 -0.10727,0 -0.0359,0 -0.0754,0.0156 -0.10727,0 -0.0451,-0.0219 -0.0622,-0.082 -0.10727,-0.10388 -0.0321,-0.0156 -0.0716,0 -0.10753,0 -0.0359,0 -0.0716,0 -0.10727,0 -0.17912,0 -0.3581,0 -0.53714,0 -0.0716,0 -0.1483,0.0257 -0.2148,0 -0.1488,-0.0575 -0.28647,-0.13857 -0.42972,-0.20786 z"
       id="path844-3"
       inkscape:connector-curvature="0" />
    <text
       id="text152"
       xml:space="preserve"
       style="font-size:2.64583325px;font-family:monospace;-inkscape-font-specification:'monospace, Normal';fill:#000000;fill-opacity:1;stroke:none;stroke-width:0.26458332"
       y="216.92226"
       x="172.11345"><tspan
         id="tspan150"
         sodipodi:role="line"
         x="172.11345"
         y="216.92226"
         style="stroke-width:0.26458332">$x$</tspan></text>
  </g>
</svg>
