<?xml version="1.0" encoding="UTF-8" standalone="no"?>
<!-- Created with Inkscape (http://www.inkscape.org/) -->

<svg
   xmlns:dc="http://purl.org/dc/elements/1.1/"
   xmlns:cc="http://creativecommons.org/ns#"
   xmlns:rdf="http://www.w3.org/1999/02/22-rdf-syntax-ns#"
   xmlns:svg="http://www.w3.org/2000/svg"
   xmlns="http://www.w3.org/2000/svg"
   xmlns:sodipodi="http://sodipodi.sourceforge.net/DTD/sodipodi-0.dtd"
   xmlns:inkscape="http://www.inkscape.org/namespaces/inkscape"
   width="240mm"
   height="120mm"
   viewBox="0 0 240 120"
   version="1.1"
   id="svg8"
   inkscape:version="0.92.5 (2060ec1f9f, 2020-04-08)"
   sodipodi:docname="tasse-und-donut-sind-gleich.svg">
  <defs
     id="defs2" />
  <sodipodi:namedview
     id="base"
     pagecolor="#ffffff"
     bordercolor="#666666"
     borderopacity="1.0"
     inkscape:pageopacity="0.0"
     inkscape:pageshadow="2"
     inkscape:zoom="1"
     inkscape:cx="284.27627"
     inkscape:cy="182.72055"
     inkscape:document-units="mm"
     inkscape:current-layer="layer1"
     showgrid="false"
     showborder="true"
     width="200mm"
     showguides="true"
     inkscape:guide-bbox="true"
     inkscape:window-width="1920"
     inkscape:window-height="1080"
     inkscape:window-x="0"
     inkscape:window-y="1080"
     inkscape:window-maximized="0">
    <inkscape:grid
       type="xygrid"
       id="grid815"
       units="mm"
       spacingx="10"
       spacingy="10"
       empspacing="4"
       dotted="false" />
  </sodipodi:namedview>
  <metadata
     id="metadata5">
    <rdf:RDF>
      <cc:Work
         rdf:about="">
        <dc:format>image/svg+xml</dc:format>
        <dc:type
           rdf:resource="http://purl.org/dc/dcmitype/StillImage" />
        <dc:title />
      </cc:Work>
    </rdf:RDF>
  </metadata>
  <g
     inkscape:label="Layer 1"
     inkscape:groupmode="layer"
     id="layer1"
     transform="translate(0,-177)">
    <path
       style="fill:none;stroke:#000000;stroke-width:0.26458332px;stroke-linecap:butt;stroke-linejoin:miter;stroke-opacity:1"
       d="m 67.850485,209.99173 c -0.177388,0.35477 -0.354775,0.70955 -0.532162,1.06432 0,0.17739 0.05609,0.36388 0,0.53216 -0.03966,0.119 -0.226415,0.14709 -0.266081,0.26608 0,1.21128 0.125434,0.0152 -0.266078,0.79824 -0.08362,0.16724 0.08362,0.89709 0,1.06433 -0.0561,0.11218 -0.209987,0.15389 -0.266081,0.26608 -0.03967,0.0793 0,0.17738 0,0.26607 0,0.0887 0,0.17739 0,0.26609 0,0.53216 0,1.06432 0,1.59648 0,0.26608 0.08414,0.54581 0,0.79824 -0.03967,0.11899 -0.209987,0.15389 -0.266081,0.26608 -0.03545,0.0709 0,1.47611 0,1.59648 0,0.0887 0.03966,0.18675 0,0.26608 -0.05609,0.11219 -0.226414,0.14709 -0.266081,0.26608 -0.05609,0.16829 0,0.35478 0,0.53216 0,0.53216 0,1.06432 0,1.59649 0,0.17738 0.04302,0.36006 0,0.53215 -0.0481,0.19241 -0.203364,0.34402 -0.266081,0.53217 -0.09424,0.28274 0.09425,0.78158 0,1.06432 -0.06271,0.18814 -0.217979,0.33976 -0.266078,0.53216 -0.04302,0.17209 0,0.35477 0,0.53216 0,0.44347 0,0.88693 0,1.3304 0,0.17739 0.05609,0.36388 0,0.53216 -0.03967,0.11899 -0.226417,0.14709 -0.266081,0.26608 -0.05609,0.16828 0,0.35477 0,0.53216 0,0.3091 0.0603,1.08919 0,1.3304 -0.0481,0.19241 -0.217979,0.33976 -0.266081,0.53216 -0.05058,0.20235 0,1.10759 0,1.33041 0,0.17738 0.0561,0.36387 0,0.53216 -0.03966,0.11899 -0.226414,0.14708 -0.26608,0.26608 -0.08414,0.25242 0,0.53216 0,0.79824 0,0.53216 0,1.06432 0,1.59648 0,0.79824 0,1.59648 0,2.39472 0,0.22528 -0.04768,0.92128 0,1.06432 0.03967,0.119 0.209986,0.15389 0.26608,0.26609 0.08439,0.16877 -0.08643,1.15755 0,1.3304 0.0561,0.11219 0.226415,0.14708 0.266081,0.26608 0.133041,0.39912 -0.13304,0.93128 0,1.3304 0.03966,0.11899 0.226415,0.14708 0.266081,0.26608 0.08414,0.25242 -0.08414,0.54581 0,0.79824 0.06271,0.18815 0.203364,0.34401 0.266078,0.53216 0.06101,0.18302 -0.0785,0.64125 0,0.79824 0.0561,0.11219 0.209987,0.15389 0.266081,0.26608 0.08362,0.16724 -0.08362,0.89709 0,1.06432 0.05609,0.11219 0.209987,0.15389 0.266081,0.26608 0.106431,0.21287 -0.106431,0.58538 0,0.79825 0.05609,0.11218 0.209987,0.15388 0.266081,0.26607 0.08439,0.16878 -0.08643,1.15756 0,1.33041 0.05609,0.11219 0.209984,0.15389 0.266081,0.26608 0.07933,0.15866 -0.07933,0.3735 0,0.53216 0.05609,0.11219 0.209984,0.15389 0.266078,0.26608 0.03967,0.0793 -0.03966,0.18675 0,0.26608 0.0561,0.11219 0.209987,0.15389 0.266081,0.26608 0.07933,0.15866 -0.05609,0.36387 0,0.53216 0.161089,0.48326 0.227724,0.4938 0.532162,0.79824 0.08869,0.0887 0.209984,0.15389 0.266081,0.26608 0.03966,0.0793 -0.03967,0.18675 0,0.26608 0.05609,0.11219 0.209983,0.15389 0.266078,0.26608 0.03967,0.0793 -0.03966,0.18675 0,0.26608 0.0561,0.11219 0.209986,0.15389 0.266081,0.26608 0.03967,0.0793 -0.03966,0.18675 0,0.26608 0.553683,1.10737 -0.01836,-0.28445 0.532161,0.26608 0.55053,0.55053 -0.841282,-0.0215 0.266081,0.53216 0.07933,0.0397 0.203364,-0.0627 0.266078,0 0.06272,0.0627 -0.03966,0.18675 0,0.26608 0.05609,0.11219 0.177388,0.17739 0.266081,0.26608 0.08869,0.0887 0.153893,0.20999 0.266081,0.26608 0.07933,0.0397 0.186751,-0.0397 0.266081,0 0.224377,0.11219 0.323429,0.39301 0.532159,0.53216 0.165018,0.11001 0.367147,0.15607 0.532162,0.26608 0.104365,0.0696 0.15389,0.20999 0.266081,0.26609 0.07933,0.0397 0.177387,0 0.266081,0 0.177384,0.0887 0.367143,0.15607 0.532159,0.26608 0.20873,0.13915 0.294171,0.45283 0.532162,0.53216 0.168282,0.0561 0.363876,-0.0561 0.532159,0 0.118996,0.0397 0.153892,0.20998 0.266081,0.26608 0.07933,0.0397 0.181938,-0.028 0.26608,0 0.188148,0.0627 0.344014,0.20336 0.532159,0.26608 0.08414,0.028 0.186751,-0.0397 0.266081,0 0.112192,0.0561 0.153893,0.20998 0.266081,0.26608 0.15866,0.0793 0.363876,-0.0561 0.532162,0 0.188145,0.0627 0.344011,0.20336 0.532159,0.26608 0.08414,0.028 0.186751,-0.0397 0.266081,0 0.112189,0.0561 0.147084,0.22641 0.266081,0.26608 0.252426,0.0841 0.545814,-0.0841 0.79824,0 0.188148,0.0627 0.344014,0.20336 0.532162,0.26608 0.168282,0.0561 0.363876,-0.0561 0.532159,0 0.188147,0.0627 0.344014,0.20336 0.532161,0.26608 0.08414,0.028 0.177388,0 0.266081,0 0.177387,0 0.354775,0 0.532159,0 0.532162,0 1.064324,0 1.596483,0 0.443468,0 0.886934,0 1.330402,0 0.08869,0 0.177387,0 0.26608,0 0.08869,0 0.186751,-0.0397 0.266081,0 0.112189,0.0561 0.15389,0.20998 0.266079,0.26608 0.07915,0.0396 1.484553,0 1.596482,0 0.08869,0 0.186751,0.0397 0.266081,0 0.112189,-0.0561 0.153892,-0.20999 0.266081,-0.26608 0.212862,-0.10643 0.585377,0.10643 0.79824,0 0.112191,-0.0561 0.153892,-0.20999 0.266081,-0.26608 0.15866,-0.0793 0.373501,0.0793 0.532162,0 0.112188,-0.0561 0.153889,-0.20999 0.266078,-0.26608 0.15866,-0.0793 0.373501,0.0793 0.532161,0 0.112189,-0.0561 0.153893,-0.20999 0.266081,-0.26608 0.07933,-0.0397 0.186751,0.0397 0.266081,0 0.112189,-0.0561 0.15389,-0.20999 0.266078,-0.26608 0.07933,-0.0397 0.186751,0.0397 0.266081,0 0.112189,-0.0561 0.153893,-0.20999 0.266081,-0.26608 0.07933,-0.0397 0.186751,0.0397 0.266081,0 0.319297,-0.15965 0.478944,-0.6386 0.79824,-0.79825 0.07933,-0.0397 0.186751,0.0397 0.266081,0 0.112189,-0.0561 0.153892,-0.20998 0.266081,-0.26607 0.07933,-0.0397 0.203364,0.0627 0.266081,0 0.06271,-0.0627 -0.03967,-0.18675 0,-0.26608 0.03532,-0.0707 0.727593,-0.76292 0.79824,-0.79825 0.07933,-0.0397 0.18675,0.0397 0.26608,0 0.112189,-0.0561 0.177388,-0.17738 0.266081,-0.26608 0.08869,-0.0887 0.209984,-0.15389 0.266079,-0.26608 0.03967,-0.0793 -0.06271,-0.20336 0,-0.26608 0.06272,-0.0627 0.203366,0.0627 0.26608,0 0.06272,-0.0627 -0.03966,-0.18675 0,-0.26608 0.15965,-0.31929 0.638593,-0.47894 0.798243,-0.79824 0.03966,-0.0793 -0.03967,-0.18675 0,-0.26608 0.112189,-0.22438 0.419971,-0.30778 0.532159,-0.53216 0.07933,-0.15866 -0.07933,-0.3735 0,-0.53216 0.112189,-0.22438 0.419971,-0.30778 0.532162,-0.53216 0.03966,-0.0793 -0.02805,-0.18194 0,-0.26608 0.06271,-0.18815 0.203364,-0.34401 0.266078,-0.53216 0.02805,-0.0841 -0.03966,-0.18675 0,-0.26608 0.0561,-0.11219 0.209987,-0.15389 0.266081,-0.26608 0.03967,-0.0793 -0.03966,-0.18675 0,-0.26608 0.05609,-0.11219 0.209987,-0.15389 0.266081,-0.26608 0.03967,-0.0793 -0.03966,-0.18675 0,-0.26608 0.05609,-0.11219 0.209986,-0.1539 0.266081,-0.26608 0.07933,-0.15866 -0.07933,-0.37351 0,-0.53216 0.05609,-0.11219 0.209986,-0.1539 0.266081,-0.26608 0.03966,-0.0793 0,-0.17739 0,-0.26608 0,-0.17739 -0.05609,-0.36388 0,-0.53217 0.03966,-0.11899 0.209984,-0.15389 0.266078,-0.26607 0.03967,-0.0793 -0.03966,-0.18676 0,-0.26609 0.0561,-0.11218 0.209986,-0.15389 0.266081,-0.26608 0.03967,-0.0793 -0.02805,-0.18193 0,-0.26608 0.642445,-1.92733 -0.07671,0.41951 0.532161,-0.79824 0.03966,-0.0793 -0.02805,-0.18194 0,-0.26608 0.06271,-0.18815 0.203364,-0.34401 0.266081,-0.53216 0.02805,-0.0841 -0.03967,-0.18675 0,-0.26608 0.05609,-0.11219 0.209984,-0.15389 0.266079,-0.26608 0.03967,-0.0793 0,-0.17739 0,-0.26608 0,-0.17739 -0.05609,-0.36388 0,-0.53216 0.03967,-0.119 0.209986,-0.15389 0.26608,-0.26608 0.0785,-0.15699 -0.061,-0.61522 0,-0.79824 0.06272,-0.18815 0.203364,-0.34402 0.266081,-0.53216 0.02805,-0.0841 -0.03966,-0.18675 0,-0.26608 0.05609,-0.11219 0.209987,-0.15389 0.266081,-0.26608 0.07933,-0.15866 -0.07933,-0.37351 0,-0.53216 0.05609,-0.11219 0.209984,-0.15389 0.266081,-0.26608 0.07933,-0.15866 -0.07933,-0.37351 0,-0.53217 0.05609,-0.11218 0.209984,-0.15388 0.266078,-0.26608 0.106434,-0.21286 -0.106431,-0.58537 0,-0.79824 0.0561,-0.11218 0.226417,-0.14708 0.266081,-0.26608 0.05609,-0.16828 0,-0.35477 0,-0.53216 0,-0.0887 -0.03966,-0.18675 0,-0.26608 0.05609,-0.11219 0.209987,-0.15389 0.266077,-0.26608 0.0836,-0.16724 -0.08361,-0.89708 0,-1.06432 0.0561,-0.11219 0.20999,-0.15389 0.26608,-0.26608 0.0397,-0.0793 0,-0.17739 0,-0.26608 0,-0.17739 0,-0.35477 0,-0.53216 0,-0.44347 0,-0.88694 0,-1.3304 0,-0.26608 -0.0841,-0.54582 0,-0.79824 0.0397,-0.119 0.20999,-0.15389 0.26609,-0.26608 0.0397,-0.0793 0,-0.17739 0,-0.26608 0,-0.0887 0,-0.17739 0,-0.26608 0,-0.35478 0,-0.70955 0,-1.06432 0,-1.15302 0,-2.30604 0,-3.45905 0,-0.17739 -0.0561,-0.36388 0,-0.53216 0.0627,-0.18815 0.20336,-0.34401 0.26607,-0.53216 0.028,-0.0841 0,-0.17739 0,-0.26608 0,-0.17739 0,-0.35477 0,-0.53216 0,-0.62086 0,-1.24171 0,-1.86256 0,-1.06433 0,-2.12865 0,-3.19297 0,-0.2378 -0.0424,-1.24561 0,-1.3304 0.0561,-0.11219 0.20999,-0.15389 0.26608,-0.26608 0.0344,-0.0688 0,-1.40788 0,-1.59648 0,-0.97563 0,-1.95126 0,-2.92689 0,-0.18506 0.0481,-1.23417 0,-1.3304 -0.32879,-0.65759 -0.26608,0.0918 -0.26608,-0.53216"
       id="path8"
       inkscape:connector-curvature="0" />
    <path
       style="fill:none;stroke:#000000;stroke-width:0.26458332px;stroke-linecap:butt;stroke-linejoin:miter;stroke-opacity:1"
       d="m 85.943947,201.21108 c 0.239263,-1.36228 -0.976903,-0.35541 -1.330402,-0.53216 -0.112188,-0.0561 -0.153892,-0.20999 -0.266081,-0.26608 -0.08098,-0.0405 -0.67841,0 -0.79824,0 -0.532161,0 -1.06432,0 -1.596482,0 -0.139139,0 -0.994357,-0.035 -1.064321,0 -0.112191,0.0561 -0.177387,0.17739 -0.266081,0.26608 -0.177387,0 -0.363876,-0.0561 -0.532162,0 -0.118993,0.0397 -0.147084,0.22641 -0.266078,0.26608 -0.168285,0.0561 -0.354774,0 -0.532162,0 -0.08869,0 -0.18675,-0.0397 -0.266081,0 -0.112188,0.0561 -0.177387,0.17739 -0.26608,0.26608 -0.177385,0 -0.363877,-0.0561 -0.532159,0 -0.118997,0.0397 -0.153893,0.20999 -0.266081,0.26608 -0.07933,0.0397 -0.186751,-0.0397 -0.266081,0 -0.112189,0.0561 -0.15389,0.20999 -0.266081,0.26608 -0.07933,0.0397 -0.186748,-0.0397 -0.266078,0 -0.112192,0.0561 -0.153893,0.20999 -0.266081,0.26608 -0.07933,0.0397 -0.186751,-0.0397 -0.266081,0 -0.112189,0.0561 -0.153892,0.20999 -0.266081,0.26608 -0.07933,0.0397 -0.177387,0 -0.266081,0 -0.177384,0.0887 -0.367144,0.15607 -0.532159,0.26608 -0.104365,0.0696 -0.147087,0.22642 -0.266081,0.26608 -0.168283,0.0561 -0.363876,-0.0561 -0.532162,0 -0.118993,0.0397 -0.153889,0.20999 -0.266078,0.26608 -0.07933,0.0397 -0.181938,-0.0281 -0.266081,0 -1.92733,0.64244 0.419505,-0.0767 -0.798242,0.53216 -0.07933,0.0397 -0.186748,-0.0397 -0.266078,0 -0.261832,0.13092 -0.802492,0.93341 -1.064321,1.06432 -0.07933,0.0397 -0.186751,-0.0397 -0.266081,0 -0.09517,0.0476 -0.990553,0.95367 -1.064321,1.06433 -0.586219,0.13399 -0.14065,0.54737 -0.266081,0.79824 -0.294161,0.58832 -0.165142,0.0826 -0.532162,0.26608 -1.107363,0.55368 0.284451,-0.0184 -0.266081,0.53216 -0.06271,0.0627 -0.203364,-0.0627 -0.266078,0 -0.125433,0.12543 0.125431,0.40673 0,0.53216 -0.06272,0.0627 -0.186751,-0.0397 -0.266081,0 -0.112191,0.0561 -0.177387,0.17738 -0.26608,0.26608 -0.08869,0.0887 -0.209987,0.15389 -0.266081,0.26608 -0.03966,0.0793 0.03967,0.18675 0,0.26608 -0.05609,0.11219 -0.209984,0.15389 -0.266081,0.26608 -0.03966,0.0793 0.06272,0.20336 0,0.26608 -0.06271,0.0627 -0.203364,-0.0627 -0.266078,0 -0.125434,0.12543 0.125431,0.40673 0,0.53216 -0.06272,0.0627 -0.203367,-0.0627 -0.266081,0 -0.125431,0.12543 0.07933,0.3735 0,0.53216 -0.05609,0.11219 -0.209987,0.15389 -0.266081,0.26608 -0.03498,0.07 0,0.92519 0,1.06432 0,0.13914 -0.03498,0.99436 0,1.06432 0.05609,0.11219 0.209986,0.15389 0.266081,0.26608 0.07933,0.15866 -0.125431,0.40673 0,0.53216 0.06271,0.0627 0.203364,-0.0627 0.266081,0 0.06271,0.0627 -0.03967,0.18676 0,0.26609 0.07105,0.1421 0.658159,0.65815 0.79824,0.79824 0.08869,0.0887 0.177387,0.17738 0.26608,0.26608 0.08869,0.0887 0.15389,0.20998 0.266081,0.26608 0.158658,0.0793 0.373499,-0.0793 0.532159,0 0.112189,0.0561 0.153893,0.20998 0.266081,0.26608 0.07933,0.0397 0.186751,-0.0397 0.266081,0 0.112189,0.0561 0.15389,0.20998 0.266081,0.26608 0.158657,0.0793 0.373499,-0.0793 0.532159,0 0.112189,0.0561 0.153892,0.20998 0.266081,0.26608 0.07933,0.0397 0.177387,0 0.266081,0 0.177387,0 0.363876,-0.0561 0.532159,0 0.118996,0.0397 0.147087,0.22641 0.266081,0.26608 0.330459,0.11015 0.980556,-0.0875 1.330402,0 0.192402,0.0481 0.344013,0.20336 0.532161,0.26608 0.282739,0.0943 0.781579,-0.0942 1.064321,0 0.118994,0.0397 0.147085,0.22641 0.266081,0.26608 0.172731,0.0576 1.620861,0 1.862561,0 0.177387,0 0.363876,-0.0561 0.532162,0 0.118993,0.0397 0.153889,0.20998 0.26608,0.26608 0.07933,0.0397 0.177385,0 0.266079,0 0.08869,0 0.177387,0 0.26608,0 0.190225,0 1.460281,-0.0454 1.596483,0 0.118994,0.0397 0.147085,0.22642 0.266081,0.26608 0.121801,0.0406 1.181886,0 1.330402,0 0.886933,0 1.773867,0 2.660803,0 0.06323,0 1.004684,-0.0298 1.064321,0 0.112189,0.0561 0.15389,0.20999 0.266081,0.26608 0.06996,0.035 0.925182,0 1.064321,0 0.975627,0 1.951254,0 2.926884,0 0.79824,0 1.59648,0 2.394722,0 0.13914,0 0.994358,0.035 1.064321,0 0.112189,-0.0561 0.147085,-0.22641 0.266081,-0.26608 0.363305,-0.1211 1.233178,0.1211 1.59648,0 0.118996,-0.0397 0.153892,-0.20999 0.266081,-0.26608 0.144346,-0.0722 0.991515,0.0728 1.064321,0 0.06272,-0.0627 -0.06271,-0.20337 0,-0.26608 0.0544,-0.0544 0.692743,0.0528 0.798242,0 0.112189,-0.0561 0.15389,-0.20999 0.266081,-0.26608 0.07933,-0.0397 0.186751,0.0397 0.266079,0 0.112191,-0.0561 0.153892,-0.20999 0.26608,-0.26608 0.07933,-0.0397 0.186751,0.0397 0.266081,0 0.112189,-0.0561 0.153893,-0.20999 0.266081,-0.26608 0.15866,-0.0793 0.373502,0.0793 0.532159,0 0.112192,-0.0561 0.153893,-0.20999 0.266081,-0.26608 0.07933,-0.0397 0.203364,0.0627 0.266077,0 0.0627,-0.0627 -0.06271,-0.20337 0,-0.26608 0.0627,-0.0627 0.18675,0.0397 0.26608,0 0.22438,-0.11219 0.30779,-0.41997 0.53216,-0.53216 0.0793,-0.0397 0.20337,0.0627 0.26608,0 0.0627,-0.0627 -0.0397,-0.18675 0,-0.26608 0.11219,-0.22438 0.41998,-0.30779 0.53217,-0.53216 0.0397,-0.0793 -0.0397,-0.18675 0,-0.26608 0.0561,-0.11219 0.20998,-0.1539 0.26608,-0.26609 0.0405,-0.081 0,-0.67841 0,-0.79824 0,-0.1886 0.0344,-1.52768 0,-1.59648 -0.0561,-0.11219 -0.20999,-0.15389 -0.26608,-0.26608 -0.0793,-0.15866 0.0793,-0.3735 0,-0.53216 -0.0561,-0.11219 -0.20999,-0.15389 -0.26608,-0.26608 -0.0397,-0.0793 0.0397,-0.18675 0,-0.26608 -0.0561,-0.11219 -0.20999,-0.15389 -0.26609,-0.26608 -0.0793,-0.15866 0.12544,-0.40673 0,-0.53216 -0.0627,-0.0627 -0.20336,0.0627 -0.26608,0 -0.0627,-0.0627 0.0397,-0.18675 0,-0.26608 -0.0561,-0.11219 -0.20998,-0.15389 -0.26607,-0.26608 -0.0397,-0.0793 0.0397,-0.18675 0,-0.26608 -0.0561,-0.11219 -0.20999,-0.15389 -0.26609,-0.26608 -0.0397,-0.0793 0.0627,-0.20337 0,-0.26608 -0.0627,-0.0627 -0.20336,0.0627 -0.26608,0 -0.06271,-0.0627 0.0627,-0.20337 0,-0.26608 -0.06271,-0.0627 -0.20336,0.0627 -0.266077,0 -0.06271,-0.0627 0.03967,-0.18675 0,-0.26608 -0.112188,-0.22438 -0.41997,-0.30778 -0.532159,-0.53216 -0.03967,-0.0793 0.06271,-0.20337 0,-0.26608 -0.06272,-0.0627 -0.203367,0.0627 -0.266081,0 -0.06272,-0.0627 0.06271,-0.20337 0,-0.26608 -0.06272,-0.0627 -0.203364,0.0627 -0.266081,0 -0.06272,-0.0627 0.06272,-0.20337 0,-0.26608 -0.06272,-0.0627 -0.186751,0.0397 -0.266081,0 -0.224377,-0.11219 -0.307781,-0.41997 -0.532159,-0.53217 -0.07933,-0.0397 -0.186751,0.0397 -0.266081,0 -0.224379,-0.11218 -0.307781,-0.41997 -0.532161,-0.53216 -0.07933,-0.0397 -0.203364,0.0627 -0.266081,0 -0.06271,-0.0627 0.06272,-0.20336 0,-0.26608 -0.06271,-0.0627 -0.186748,0.0397 -0.266078,0 -0.112192,-0.0561 -0.153893,-0.20998 -0.266081,-0.26608 -0.07933,-0.0397 -0.203364,0.0627 -0.266081,0 -0.06272,-0.0627 0.06272,-0.20336 0,-0.26608 -0.06272,-0.0627 -0.186751,0.0397 -0.266081,0 -0.224377,-0.11219 -0.307782,-0.41997 -0.532159,-0.53216 -0.07933,-0.0397 -0.186751,0.0397 -0.266081,0 -0.112189,-0.0561 -0.153892,-0.20998 -0.266081,-0.26608 -0.07933,-0.0397 -0.186751,0.0397 -0.266081,0 -0.112188,-0.0561 -0.153889,-0.20998 -0.266078,-0.26608 -0.07933,-0.0397 -0.186751,0.0397 -0.266081,0 -0.112191,-0.0561 -0.153892,-0.20998 -0.266081,-0.26608 -0.15866,-0.0793 -0.373501,0.0793 -0.532161,0 -0.112189,-0.0561 -0.15389,-0.20998 -0.266079,-0.26608 -0.07933,-0.0397 -0.186751,0.0397 -0.266081,0 -0.112191,-0.0561 -0.153892,-0.20998 -0.26608,-0.26608 -0.15866,-0.0793 -0.406728,0.12543 -0.532162,0 -0.06271,-0.0627 0.06272,-0.20336 0,-0.26608 -0.125431,-0.12543 -0.406728,0.12543 -0.532159,0 -0.06272,-0.0627 0.06271,-0.20336 0,-0.26608 -0.133041,-0.13304 -0.665202,0.13304 -0.798243,0 -0.06271,-0.0627 0.06272,-0.20336 0,-0.26608 -0.0544,-0.0544 -0.69274,0.0528 -0.79824,0 -0.112188,-0.0561 -0.153892,-0.20999 -0.266081,-0.26608 -0.105497,-0.0528 -0.743844,0.0544 -0.79824,0 -0.06272,-0.0627 0.06272,-0.20337 0,-0.26608 -0.07281,-0.0728 -0.919977,0.0722 -1.06432,0 -0.112192,-0.0561 -0.153893,-0.20999 -0.266081,-0.26608 -0.08098,-0.0405 -0.678411,0 -0.798243,0 -0.468342,0 -0.532159,0.22007 -0.532159,-0.26608"
       id="path10"
       inkscape:connector-curvature="0" />
    <path
       style="fill:none;stroke:#000000;stroke-width:0.26458332px;stroke-linecap:butt;stroke-linejoin:miter;stroke-opacity:1"
       d="m 65.987921,223.02967 c -0.667623,-0.29094 -1.195382,-0.26608 -1.862561,-0.26608 -0.08869,0 -0.177387,0 -0.26608,0 -0.08869,0 -0.186751,-0.0397 -0.266081,0 -0.112189,0.0561 -0.15389,0.20998 -0.266081,0.26608 -0.07933,0.0397 -0.186751,-0.0397 -0.266081,0 -0.224377,0.11219 -0.307782,0.41997 -0.532159,0.53216 -0.07933,0.0397 -0.186751,-0.0397 -0.266081,0 -0.531977,0.26599 0.0047,0.61928 -0.532162,0.79824 -0.168283,0.0561 -0.363876,-0.0561 -0.532159,0 -0.118994,0.0397 -0.177387,0.17738 -0.266081,0.26608 -0.209076,0.20908 -1.160915,1.24566 -1.330401,1.3304 -0.07933,0.0397 -0.186751,-0.0397 -0.266081,0 -0.142108,0.0711 -0.658159,0.65816 -0.79824,0.79824 -0.882478,0.88248 0.250862,-0.12543 -0.532162,0.26608 -0.112189,0.0561 -0.177387,0.17739 -0.266078,0.26608 -0.08869,0.0887 -0.196504,0.16172 -0.266081,0.26608 -0.110011,0.16502 -0.15607,0.36715 -0.266081,0.53216 -0.139155,0.20873 -0.41997,0.30779 -0.532162,0.53216 -0.03966,0.0793 0,0.17739 0,0.26608 -0.08869,0.17739 -0.15607,0.36715 -0.266078,0.53217 -0.204679,0.30701 -0.593564,0.49122 -0.798243,0.79824 -0.438036,-0.16237 -0.206917,0.67991 -0.26608,0.79824 -0.159647,0.31929 -0.638594,0.47894 -0.79824,0.79824 -0.03966,0.0793 0.03966,0.18675 0,0.26608 -0.112189,0.22438 -0.419971,0.30778 -0.532162,0.53216 -0.03966,0.0793 0.03967,0.18675 0,0.26608 -0.112189,0.22438 -0.419971,0.30778 -0.532159,0.53216 -0.07933,0.15866 0.07933,0.3735 0,0.53216 -0.05609,0.11219 -0.209987,0.15389 -0.266081,0.26608 -0.03966,0.0793 0.03967,0.18675 0,0.26608 -0.05609,0.11219 -0.209987,0.15389 -0.266081,0.26608 -0.03966,0.0793 0.03967,0.18675 0,0.26608 -0.05609,0.11219 -0.209984,0.15389 -0.266081,0.26608 -0.05275,0.1055 0.0544,0.74385 0,0.79824 -0.06271,0.0627 -0.203364,-0.0627 -0.266078,0 -0.06403,0.064 0.06403,1.0003 0,1.06432 -0.06272,0.0627 -0.203367,-0.0627 -0.266081,0 -0.0934,0.0934 0.0919,1.14662 0,1.33041 -0.05609,0.11219 -0.209987,0.15389 -0.266081,0.26608 -0.04049,0.081 0,0.6784 0,0.79824 0,0.70954 0,1.41909 0,2.12864 0,0.11983 -0.04049,0.71726 0,0.79824 0.05609,0.11219 0.209987,0.15389 0.266081,0.26608 0.08393,0.16786 -0.08393,1.16254 0,1.3304 0.05609,0.11219 0.209987,0.15389 0.266081,0.26608 0.106431,0.21287 -0.106434,0.58538 0,0.79825 0.05609,0.11218 0.209984,0.15388 0.266078,0.26607 0.03967,0.0793 -0.03966,0.18675 0,0.26608 0.0561,0.11219 0.209987,0.1539 0.266081,0.26609 0.03967,0.0793 -0.06271,0.20336 0,0.26608 0.06272,0.0627 0.203364,-0.0627 0.266081,0 0.125431,0.12543 -0.07933,0.3735 0,0.53216 0.05609,0.11219 0.209986,0.15389 0.266081,0.26608 0.03966,0.0793 -0.03967,0.18675 0,0.26608 0.159647,0.31929 0.638593,0.47894 0.79824,0.79824 0.03967,0.0793 -0.06271,0.20336 0,0.26608 0.06272,0.0627 0.186751,-0.0397 0.266081,0 0.112188,0.0561 0.153892,0.20998 0.26608,0.26608 0.07933,0.0397 0.186751,-0.0397 0.266081,0 0.112189,0.0561 0.15389,0.20999 0.266079,0.26608 0.15866,0.0793 0.40673,-0.12543 0.532161,0 0.06272,0.0627 -0.06272,0.20336 0,0.26608 0.125431,0.12543 0.373502,-0.0793 0.532162,0 0.112189,0.0561 0.15389,0.20998 0.266078,0.26608 0.212865,0.10643 0.585378,-0.10643 0.798243,0 0.112188,0.0561 0.153889,0.20999 0.266081,0.26608 0.07933,0.0397 0.177384,0 0.266078,0 0.1886,0 1.527688,-0.0344 1.596483,0 0.112188,0.0561 0.140649,0.26608 0.26608,0.26608 0.125431,0 0.15389,-0.20999 0.266081,-0.26608 0.07933,-0.0397 0.177388,0 0.266081,0 0.188598,0 1.527686,0.0344 1.59648,0 0.112191,-0.0561 0.153892,-0.20999 0.266081,-0.26608 0.167238,-0.0836 0.897083,0.0836 1.064321,0 0.112191,-0.0561 0.153892,-0.20999 0.266081,-0.26608 0.212865,-0.10643 0.585377,0.10643 0.79824,0 0.112191,-0.0561 0.153892,-0.20999 0.266081,-0.26608 0.105499,-0.0528 0.743844,0.0544 0.798242,0 0.06271,-0.0627 -0.06272,-0.20336 0,-0.26608 0.125431,-0.12543 0.373499,0.0793 0.532159,0 0.112189,-0.0561 0.153892,-0.20999 0.266081,-0.26608 0.15866,-0.0793 0.406728,0.12543 0.532162,0 0.06271,-0.0627 -0.06272,-0.20337 0,-0.26608 0.125431,-0.12543 0.373499,0.0793 0.532159,0 0.112189,-0.0561 0.153892,-0.20999 0.266081,-0.26608 0.15866,-0.0793 0.373502,0.0793 0.532162,0 0.112188,-0.0561 0.153889,-0.20999 0.266078,-0.26608 0.15866,-0.0793 0.406731,0.12543 0.532162,0 0.06272,-0.0627 -0.06272,-0.20337 0,-0.26608 0.125431,-0.12543 0.406728,0.12543 0.532161,0 0.06271,-0.0627 -0.06272,-0.20337 0,-0.26608 0.125431,-0.12544 0.406728,0.12543 0.532159,0 0.06272,-0.0627 -0.06271,-0.20337 0,-0.26608 0.125431,-0.12544 0.406731,0.12543 0.532162,0 0.06271,-0.0627 -0.06272,-0.20337 0,-0.26608 0.262483,-0.26249 0.532159,0.54522 0.532159,-0.26608"
       id="path12"
       inkscape:connector-curvature="0" />
    <path
       style="fill:none;stroke:#000000;stroke-width:0.26458332px;stroke-linecap:butt;stroke-linejoin:miter;stroke-opacity:1"
       d="m 65.987921,223.02967 c -0.798242,1.50779 -1.596482,3.01558 -2.394722,4.52336 0,0.0887 0.06272,0.20337 0,0.26608 -0.06272,0.0627 -0.177388,0 -0.266081,0 -0.709547,0 0.08869,-0.0887 -0.266081,0.26608 -0.125431,0.12543 -0.406728,-0.12543 -0.532159,0 -0.06272,0.0627 0.06271,0.20337 0,0.26608 -0.125431,0.12544 -0.406731,-0.12543 -0.532162,0 -0.06271,0.0627 0.06272,0.20337 0,0.26608 -0.06271,0.0627 -0.203364,-0.0627 -0.266081,0 -0.06271,0.0627 0.06272,0.20337 0,0.26608 -0.06271,0.0627 -0.186748,-0.0397 -0.266078,0 -0.112191,0.0561 -0.153892,0.20999 -0.266081,0.26608 -0.07933,0.0397 -0.186751,-0.0397 -0.266081,0 -0.112188,0.0561 -0.153889,0.20999 -0.266081,0.26609 -0.07933,0.0397 -0.203364,-0.0627 -0.266078,0 -0.06272,0.0627 0.06271,0.20336 0,0.26608 -0.06272,0.0627 -0.203367,-0.0627 -0.266081,0 -0.06272,0.0627 0.06271,0.20336 0,0.26607 -0.125431,0.12544 -0.40673,-0.12543 -0.532161,0 -0.06271,0.0627 0.06272,0.20337 0,0.26609 -0.06271,0.0627 -0.203364,-0.0627 -0.266081,0 -0.06271,0.0627 0.06272,0.20336 0,0.26608 -0.06271,0.0627 -0.203364,-0.0627 -0.266079,0 -0.06272,0.0627 0.06271,0.20336 0,0.26608 -0.06272,0.0627 -0.203366,-0.0627 -0.26608,0 -0.06272,0.0627 0.06271,0.20336 0,0.26608 -0.06272,0.0627 -0.203364,-0.0627 -0.266081,0 -0.06272,0.0627 0.06272,0.20336 0,0.26608 -0.550529,0.55053 0.02151,-0.84129 -0.532162,0.26608 -0.03966,0.0793 0.06272,0.20336 0,0.26608 -0.06271,0.0627 -0.203364,-0.0627 -0.266078,0 -0.06272,0.0627 0.06271,0.20336 0,0.26608 -0.06272,0.0627 -0.203367,-0.0627 -0.266081,0 -0.06272,0.0627 0.06271,0.20336 0,0.26608 -0.550529,0.55053 0.02151,-0.84128 -0.532162,0.26608 -0.03966,0.0793 0.06272,0.20336 0,0.26608 -0.06271,0.0627 -0.203364,-0.0627 -0.266081,0 -0.125431,0.12543 0.125434,0.40673 0,0.53216 -0.06271,0.0627 -0.203364,-0.0627 -0.266078,0 -0.06272,0.0627 0.03966,0.18675 0,0.26608 -0.0561,0.11219 -0.209987,0.15389 -0.266081,0.26608 -0.03967,0.0793 0.03966,0.18675 0,0.26608 -0.05609,0.11219 -0.209986,0.15389 -0.266081,0.26608 -0.07933,0.15866 0.125431,0.40673 0,0.53216 -0.06272,0.0627 -0.203364,-0.0627 -0.266081,0 -0.06271,0.0627 0,0.17739 0,0.26608 0,0.0887 0,0.17739 0,0.26608 0,0.97563 0,1.95126 0,2.92689 0,0.0645 -0.0085,0.78968 0,0.79824 0.06272,0.0627 0.203364,-0.0627 0.266081,0 0.06272,0.0627 0,0.17738 0,0.26608 0,0.18507 -0.04811,1.23418 0,1.3304 0.05609,0.11219 0.209987,0.15389 0.266081,0.26608 0.05275,0.1055 -0.0544,0.74384 0,0.79824 0.06271,0.0627 0.203364,-0.0627 0.266081,0 0.133038,0.13304 -0.13304,0.6652 0,0.79824 0.06271,0.0627 0.203364,-0.0627 0.266078,0 0.125434,0.12543 -0.125431,0.40673 0,0.53216 0.06272,0.0627 0.203367,-0.0627 0.266081,0 0.06272,0.0627 -0.06271,0.20337 0,0.26608 0.06272,0.0627 0.203364,-0.0627 0.266081,0 0.06272,0.0627 -0.06272,0.20337 0,0.26608 0.06272,0.0627 0.203364,-0.0627 0.266081,0 0.06271,0.0627 -0.06272,0.20337 0,0.26608 0.06271,0.0627 0.203364,-0.0627 0.266081,0 0.06271,0.0627 -0.06272,0.20337 0,0.26608 0.125431,0.12543 0.406728,-0.12543 0.532159,0 0.06272,0.0627 -0.06271,0.20337 0,0.26608 0.125431,0.12543 0.406731,-0.12543 0.532162,0 0.06271,0.0627 -0.06272,0.20337 0,0.26608 0.125431,0.12544 0.406728,-0.12543 0.532159,0 0.06272,0.0627 -0.06271,0.20337 0,0.26609 0.07281,0.0728 0.919977,-0.0722 1.064323,0 0.112189,0.0561 0.15389,0.20998 0.266078,0.26607 0.07933,0.0397 0.177388,0 0.266081,0 0.532162,0 1.064321,0 1.596483,0 0.08869,0 0.203364,0.0627 0.266081,0 0.06271,-0.0627 -0.06272,-0.20336 0,-0.26607 0.13304,-0.13305 0.665199,0.13304 0.79824,0 0.06272,-0.0627 -0.06272,-0.20337 0,-0.26609 0.125431,-0.12543 0.406728,0.12544 0.532161,0 0.06271,-0.0627 -0.06272,-0.20336 0,-0.26608 0.125431,-0.12543 0.373499,0.0793 0.53216,0 0.112191,-0.0561 0.153892,-0.20998 0.26608,-0.26608 0.15866,-0.0793 0.373502,0.0793 0.532162,0 0.112189,-0.0561 0.177385,-0.17738 0.266078,-0.26608"
       id="path14"
       inkscape:connector-curvature="0" />
    <path
       style="fill:none;stroke:#000000;stroke-width:0.26458332px;stroke-linecap:butt;stroke-linejoin:miter;stroke-opacity:1"
       d="m 65.72184,244.05001 c 0.975628,-0.53216 1.932885,-1.09948 2.926885,-1.59648 0.05458,-0.0273 0.760716,-0.0375 0.798242,0 0.06271,0.0627 -0.06272,0.20337 0,0.26608 0.06271,0.0627 0.203364,-0.0627 0.266078,0 0.06272,0.0627 -0.06271,0.20337 0,0.26608 0.06272,0.0627 0.203367,-0.0627 0.266081,0 0.125431,0.12543 -0.07933,0.3735 0,0.53216 0.0561,0.11219 0.209987,0.15389 0.266081,0.26608 0.07933,0.15866 -0.07933,0.3735 0,0.53216 0.0561,0.11219 0.209987,0.15389 0.266081,0.26608 0.0919,0.1838 -0.0934,1.237 0,1.33041 0.140235,0.14023 0.354772,0.17738 0.532159,0.26608"
       id="path16"
       inkscape:connector-curvature="0" />
    <path
       style="fill:none;stroke:#000000;stroke-width:0.26458332px;stroke-linecap:butt;stroke-linejoin:miter;stroke-opacity:1"
       d="m 65.987921,223.02967 c 0.354775,0.0887 0.737235,0.10253 1.064321,0.26608 0.02687,0.0134 0,0.77284 0,1.06432 0,0.0887 0,0.17738 0,0.26608 0,0.0887 0.06272,0.20336 0,0.26608 -0.06271,0.0627 -0.203364,-0.0627 -0.266078,0 -0.06272,0.0627 0.06271,0.20336 0,0.26608 -0.06272,0.0627 -0.203367,-0.0627 -0.266081,0 -0.06272,0.0627 0.06271,0.20336 0,0.26608 -0.06272,0.0627 -0.203364,-0.0627 -0.266081,0 -0.06272,0.0627 0.06272,0.20336 0,0.26608 -0.125431,0.12543 -0.373502,-0.0793 -0.532162,0 -0.112188,0.0561 -0.153889,0.20999 -0.266078,0.26608 -0.15866,0.0793 -0.406731,-0.12543 -0.532162,0 -0.489825,0.48983 -0.886933,1.06432 -1.330401,1.59648"
       id="path18"
       inkscape:connector-curvature="0" />
    <path
       style="fill:none;stroke:#000000;stroke-width:0.26458332px;stroke-linecap:butt;stroke-linejoin:miter;stroke-opacity:1"
       d="m 151.39971,229.4156 c 0.17738,0.35477 0.35477,0.70954 0.53216,1.06432 0,0.0887 -0.0397,0.18675 0,0.26608 0.0561,0.11219 0.20998,0.15389 0.26608,0.26608 0.0397,0.0793 -0.0627,0.20336 0,0.26608 0.0627,0.0627 0.20336,-0.0627 0.26608,0 0.0627,0.0627 -0.0397,0.18675 0,0.26608 0.11219,0.22438 0.41997,0.30778 0.53216,0.53216 0.0397,0.0793 -0.0627,0.20336 0,0.26608 0.12543,0.12543 0.40673,-0.12543 0.53216,0 0.0627,0.0627 -0.0627,0.20336 0,0.26608 0.0627,0.0627 0.20336,-0.0627 0.26608,0 0.0627,0.0627 -0.0627,0.20336 0,0.26608 0.0627,0.0627 0.18675,-0.0397 0.26608,0 0.11219,0.0561 0.15389,0.20999 0.26608,0.26608 0.0793,0.0397 0.18675,-0.0397 0.26608,0 0.11219,0.0561 0.15389,0.20999 0.26608,0.26608 0.15866,0.0793 0.40673,-0.12543 0.53216,0 0.0627,0.0627 -0.0627,0.20336 0,0.26608 0.12544,0.12543 0.3735,-0.0793 0.53216,0 0.11219,0.0561 0.1539,0.20999 0.26608,0.26608 0.21287,0.10643 0.58538,-0.10643 0.79824,0 0.11219,0.0561 0.1539,0.20999 0.26608,0.26608 0.15867,0.0793 0.37351,-0.0793 0.53217,0 0.11219,0.0561 0.15389,0.20999 0.26607,0.26608 0.1055,0.0527 0.74385,-0.0544 0.79825,0 0.0627,0.0627 -0.0627,0.20337 0,0.26608 0.0934,0.0934 1.14661,-0.0919 1.3304,0 0.11219,0.0561 0.15389,0.20999 0.26608,0.26608 0.081,0.0405 0.67841,0 0.79824,0 0.53216,0 1.06432,0 1.59648,0 0.26796,0 1.44934,0.0491 1.59648,0 0.119,-0.0397 0.15389,-0.20998 0.26608,-0.26608 0.16724,-0.0836 0.89709,0.0836 1.06432,0 0.1122,-0.0561 0.1539,-0.20998 0.26609,-0.26608 0.1184,-0.0592 0.94262,0.0406 1.06432,0 0.11899,-0.0397 0.14708,-0.22642 0.26608,-0.26608 0.16828,-0.0561 0.36387,0.0561 0.53216,0 0.11899,-0.0397 0.14708,-0.22641 0.26608,-0.26608 0.16828,-0.0561 0.35477,0 0.53216,0 0.0887,0 0.18675,0.0397 0.26608,0 0.11219,-0.0561 0.14708,-0.22641 0.26608,-0.26608 0.16828,-0.0561 0.35477,0 0.53216,0 0.0887,0 0.18675,0.0397 0.26608,0 0.11219,-0.0561 0.15389,-0.20999 0.26608,-0.26608 0.0793,-0.0397 0.18194,0.0281 0.26608,0 0.18815,-0.0627 0.34402,-0.20337 0.53216,-0.26608 0.0841,-0.028 0.18675,0.0397 0.26608,0 0.11219,-0.0561 0.15389,-0.20999 0.26608,-0.26608 0.0793,-0.0397 0.18675,0.0397 0.26608,0 0.11219,-0.0561 0.15389,-0.20999 0.26608,-0.26608 0.0793,-0.0397 0.18675,0.0397 0.26608,0 0.11219,-0.0561 0.1539,-0.20999 0.26608,-0.26608 0.0793,-0.0397 0.18675,0.0397 0.26608,0 0.11219,-0.0561 0.15389,-0.20999 0.26609,-0.26608 0.0793,-0.0397 0.18193,0.028 0.26607,0 0.18815,-0.0627 0.34402,-0.20337 0.53217,-0.26608 0.0841,-0.028 0.18193,0.028 0.26608,0 0.18814,-0.0627 0.34401,-0.20337 0.53216,-0.26608 0.0841,-0.0281 0.18675,0.0397 0.26608,0 0.11219,-0.0561 0.15389,-0.20999 0.26608,-0.26608 0.0793,-0.0397 0.18675,0.0397 0.26608,0 0.11219,-0.0561 0.15389,-0.20999 0.26608,-0.26608 0.35477,-0.17739 0.26608,0.26608 0.26608,-0.26608"
       id="path20"
       inkscape:connector-curvature="0" />
    <path
       style="fill:none;stroke:#000000;stroke-width:0.26458332px;stroke-linecap:butt;stroke-linejoin:miter;stroke-opacity:1"
       d="m 151.93187,230.47992 c -2.03915,-6.60114 2.2257,1.23334 2.92688,0.53216 0.0627,-0.0627 -0.0627,-0.20337 0,-0.26608 0.0627,-0.0627 0.20337,0.0627 0.26608,0 0.0627,-0.0627 -0.0627,-0.20337 0,-0.26608 0.12543,-0.12543 0.40673,0.12543 0.53216,0 0.0627,-0.0627 -0.0627,-0.20337 0,-0.26608 0.0627,-0.0627 0.18675,0.0397 0.26608,0 0.11219,-0.0561 0.1539,-0.20999 0.26608,-0.26609 0.0793,-0.0397 0.18676,0.0397 0.26609,0 0.11218,-0.0561 0.15388,-0.20998 0.26607,-0.26607 0.0793,-0.0397 0.18675,0.0397 0.26608,0 0.11219,-0.0561 0.1539,-0.20999 0.26608,-0.26608 0.0793,-0.0397 0.18676,0.0397 0.26609,0 0.11218,-0.0561 0.15389,-0.20999 0.26608,-0.26609 0.15865,-0.0793 0.40672,0.12544 0.53216,0 0.0627,-0.0627 -0.0627,-0.20336 0,-0.26608 0.12543,-0.12543 0.40673,0.12543 0.53216,0 0.0627,-0.0627 -0.0627,-0.20336 0,-0.26608 0.12543,-0.12543 0.3735,0.0793 0.53216,0 0.11219,-0.0561 0.15389,-0.20998 0.26608,-0.26608 0.15866,-0.0793 0.3735,0.0793 0.53216,0 0.11219,-0.0561 0.15389,-0.20998 0.26608,-0.26608 0.15866,-0.0793 0.3735,0.0793 0.53216,0 0.11219,-0.0561 0.15389,-0.20998 0.26608,-0.26608 0.16786,-0.0839 1.16254,0.0839 1.3304,0 0.11219,-0.0561 0.15389,-0.20998 0.26608,-0.26608 0.07,-0.035 0.92518,0 1.06432,0 0.11983,0 0.71727,-0.0405 0.79824,0 0.11219,0.0561 0.1539,0.20999 0.26608,0.26608 0.1055,0.0528 0.74385,-0.0544 0.79824,0 0.0627,0.0627 -0.0627,0.20337 0,0.26608 0.12544,0.12543 0.37351,-0.0793 0.53217,0 0.11218,0.0561 0.15389,0.20999 0.26608,0.26608 0.0793,0.0397 0.18675,-0.0397 0.26608,0 0.11219,0.0561 0.15389,0.20999 0.26608,0.26608 0.0793,0.0397 0.20336,-0.0627 0.26608,0 0.0627,0.0627 -0.0627,0.20337 0,0.26608 0.12543,0.12543 0.3735,-0.0793 0.53216,0 0.11219,0.0561 0.15389,0.20999 0.26608,0.26608 0.15866,0.0793 0.40673,-0.12543 0.53216,0 0.0627,0.0627 -0.0627,0.20337 0,0.26609 0.13304,0.13304 0.6652,-0.13304 0.79824,0 0.0627,0.0627 -0.0627,0.20336 0,0.26608 0.12543,0.12543 0.3735,-0.0793 0.53216,0 0.11219,0.0561 0.15389,0.20998 0.26608,0.26607 0.0793,0.0397 0.18675,-0.0397 0.26608,0 0.11219,0.0561 0.15389,0.20999 0.26608,0.26609 0.15866,0.0793 0.40673,-0.12544 0.53216,0 0.0627,0.0627 -0.0627,0.20336 0,0.26608 0.0627,0.0627 0.18675,-0.0397 0.26608,0 0.11219,0.0561 0.15389,0.20998 0.26608,0.26608 0.15866,0.0793 0.40673,-0.12543 0.53216,0 0.0627,0.0627 -0.0627,0.20336 0,0.26608 0.0885,0.0885 0.44366,-0.0885 0.53216,0 0.0627,0.0627 -0.0627,0.20336 0,0.26608 0.12544,0.12543 0.37351,-0.0793 0.53216,0 0.6576,0.32879 -0.0918,0.26608 0.53217,0.26608 0.0887,0 0.20336,-0.0627 0.26608,0 0.0627,0.0627 -0.0815,0.30102 0,0.26608 0.65725,-0.28168 1.2417,-0.70955 1.86256,-1.06432"
       id="path22"
       inkscape:connector-curvature="0" />
    <path
       style="fill:none;stroke:#000000;stroke-width:0.26458332px;stroke-linecap:butt;stroke-linejoin:miter;stroke-opacity:1"
       d="m 160.71252,213.71686 c -0.21332,-1.1215 -0.9259,-0.0638 -1.3304,-0.26609 -0.11219,-0.0561 -0.15389,-0.20998 -0.26608,-0.26608 -0.0793,-0.0397 -0.17739,0 -0.26608,0 -0.0887,0 -0.17739,0 -0.26608,0 -0.44347,0 -0.88694,0 -1.33041,0 -0.11983,0 -0.71726,-0.0405 -0.79823,0 -0.1122,0.0561 -0.17739,0.17739 -0.26609,0.26608 -0.17738,0 -0.36387,-0.0561 -0.53216,0 -0.11899,0.0397 -0.14708,0.22642 -0.26608,0.26609 -0.16828,0.0561 -0.36007,-0.043 -0.53216,0 -0.1924,0.0481 -0.35477,0.17738 -0.53216,0.26608 -0.17739,0.0887 -0.35477,0.17738 -0.53216,0.26607 -1.24801,0.62401 0.31358,-0.12543 -1.3304,0.53217 -0.18414,0.0736 -0.33769,0.22718 -0.53216,0.26608 -0.26092,0.0522 -0.53733,-0.0522 -0.79824,0 -0.19448,0.0389 -0.34802,0.19242 -0.53216,0.26608 -0.26042,0.10416 -0.53783,0.16191 -0.79824,0.26608 -0.36829,0.14731 -0.70955,0.35477 -1.06432,0.53216 -0.17739,0.0887 -0.36715,0.15607 -0.53217,0.26608 -1.14371,0.76248 0.61156,-0.23032 -0.53216,0.53216 -0.0496,0.033 -1.04727,0.51511 -1.06432,0.53216 -0.14024,0.14024 -0.12584,0.39192 -0.26608,0.53216 -0.14023,0.14024 -0.36714,0.15607 -0.53216,0.26608 -0.10436,0.0696 -0.16171,0.1965 -0.26608,0.26608 -0.16501,0.11001 -0.3735,0.14709 -0.53216,0.26608 -0.20069,0.15052 -0.33147,0.38164 -0.53216,0.53216 -0.15866,0.119 -0.36715,0.15607 -0.53216,0.26608 -0.10437,0.0696 -0.16172,0.19651 -0.26608,0.26608 -0.16502,0.11001 -0.39192,0.12585 -0.53216,0.26608 -0.14024,0.14024 -0.12585,0.39193 -0.26608,0.53216 -0.64626,0.64626 -0.39072,-0.0791 -0.79824,0.53216 -0.22003,0.33004 -0.31214,0.73429 -0.53216,1.06433 -0.26102,0.39153 -0.80331,0.67279 -1.06433,1.06432 -0.41426,0.6214 -0.65005,1.50724 -1.06432,2.12864 -0.0696,0.10437 -0.1965,0.16171 -0.26608,0.26608 -0.11001,0.16502 -0.15607,0.36714 -0.26608,0.53216 -0.71049,1.06573 0.17833,-0.53357 -0.53216,0.53216 -0.40787,0.6118 -0.12429,0.71861 -0.53216,1.3304 -0.0696,0.10437 -0.22641,0.14709 -0.26608,0.26608 -0.0561,0.16829 0.0561,0.36388 0,0.53216 -0.0397,0.119 -0.22641,0.14709 -0.26608,0.26608 -0.0561,0.16829 0.0561,0.36388 0,0.53217 -0.0397,0.11899 -0.22642,0.14708 -0.26608,0.26607 -0.0561,0.16829 0.043,0.36008 0,0.53217 -0.0481,0.1924 -0.20337,0.34401 -0.26608,0.53216 -0.0561,0.16828 0.0561,0.36387 0,0.53216 -0.0627,0.18814 -0.20336,0.34401 -0.26608,0.53216 -0.0943,0.28274 0.0942,0.78158 0,1.06432 -0.0397,0.11899 -0.20999,0.15389 -0.26608,0.26608 -0.035,0.07 0,0.92518 0,1.06432 0,0.11193 -0.0396,1.51733 0,1.59648 0.0561,0.11219 0.22641,0.14709 0.26608,0.26608 0.0561,0.16829 0,0.35478 0,0.53216 0,0.0887 -0.0397,0.18675 0,0.26608 0.0561,0.11219 0.20999,0.15389 0.26608,0.26609 0.0397,0.0793 -0.0397,0.18674 0,0.26607 0.0561,0.1122 0.20998,0.1539 0.26608,0.26608 0.0397,0.0793 -0.0397,0.18676 0,0.26609 0.0561,0.11218 0.20999,0.15389 0.26608,0.26608 0.0397,0.0793 0,0.17738 0,0.26608 0.0887,0.17738 0.15607,0.36714 0.26608,0.53216 0.13916,0.20873 0.41997,0.30778 0.53216,0.53216 0.0397,0.0793 -0.0397,0.18675 0,0.26608 0.0711,0.14211 0.65816,0.65816 0.79824,0.79824 0.20783,0.20783 0.56864,0.64517 0.79824,0.79824 0.16502,0.11001 0.36715,0.15607 0.53216,0.26608 0.20873,0.13915 0.30779,0.41997 0.53217,0.53216 0.0793,0.0397 0.18675,-0.0397 0.26607,0 0.23584,0.11792 0.55603,0.63676 0.79825,0.79824 0.10221,0.57033 0.56159,0.14776 0.79824,0.26608 0.22438,0.11219 0.30778,0.41997 0.53216,0.53216 0.0793,0.0397 0.18675,-0.0397 0.26608,0 1.21774,0.60888 -1.12909,-0.11028 0.79824,0.53216 0.0841,0.0281 0.18675,-0.0397 0.26608,0 0.22438,0.11219 0.30778,0.41997 0.53216,0.53217 0.0793,0.0397 0.18194,-0.0281 0.26608,0 0.18815,0.0627 0.34401,0.20336 0.53216,0.26607 0.0841,0.028 0.18675,-0.0397 0.26608,0 0.11219,0.0561 0.15389,0.20999 0.26608,0.26608 0.0793,0.0397 0.17739,0 0.26608,0 0.17739,0.0887 0.36715,0.15607 0.53216,0.26609 0.10437,0.0696 0.14709,0.22641 0.26608,0.26608 0.16829,0.0561 0.36388,-0.0561 0.53216,0 0.119,0.0397 0.14709,0.22641 0.26608,0.26608 0.16829,0.0561 0.36007,-0.043 0.53217,0 0.1924,0.0481 0.33975,0.21798 0.53215,0.26608 0.1721,0.043 0.36388,-0.0561 0.53217,0 0.11899,0.0397 0.14708,0.22641 0.26608,0.26608 0.16828,0.0561 0.36007,-0.043 0.53216,0 0.1924,0.0481 0.34401,0.20336 0.53216,0.26608 0.0841,0.0281 0.18194,-0.028 0.26608,0 0.18814,0.0627 0.34401,0.20336 0.53216,0.26608 0.0841,0.028 0.18194,-0.0281 0.26608,0 0.18815,0.0627 0.33976,0.21798 0.53216,0.26608 0.17209,0.043 0.35477,0 0.53216,0 0.17739,0 0.35477,0 0.53216,0 0.70955,0 1.4191,0 2.12864,0 0.26608,0 0.54011,-0.0645 0.79824,0 0.19241,0.0481 0.34402,0.20336 0.53216,0.26608 0.0841,0.028 0.17739,0 0.26609,0 0.17738,0 0.35477,0 0.53215,0 0.35478,0 0.70955,0 1.06433,0 0.70954,0 1.41909,0 2.12864,0 0.17739,0 0.35477,0 0.53216,0 0.17739,0 0.36007,0.043 0.53216,0 0.1924,-0.0481 0.34401,-0.20337 0.53216,-0.26608 0.0841,-0.0281 0.17739,0 0.26608,0 0.22581,0 1.4498,0.0489 1.59648,0 0.119,-0.0397 0.14709,-0.22642 0.26608,-0.26608 0.16829,-0.0561 0.35478,0 0.53217,0 0.2767,0 1.38717,0.0523 1.59648,0 0.1924,-0.0481 0.33976,-0.21798 0.53216,-0.26608 0.2093,-0.0523 1.31978,0 1.59648,0 0.0887,0 0.18194,0.0281 0.26608,0 0.18815,-0.0627 0.34401,-0.20337 0.53216,-0.26608 0.0841,-0.0281 0.17739,0 0.26608,0 0.17739,0 0.35478,0 0.53216,0 0.17739,0 0.36007,0.043 0.53216,0 0.1924,-0.0481 0.33976,-0.21798 0.53216,-0.26608 0.17209,-0.043 0.36007,0.043 0.53216,0 0.19241,-0.0481 0.33976,-0.21798 0.53216,-0.26608 0.17209,-0.043 0.36388,0.0561 0.53216,0 0.119,-0.0397 0.14709,-0.22642 0.26608,-0.26608 0.16829,-0.0561 0.36388,0.0561 0.53217,0 0.11899,-0.0397 0.14708,-0.22642 0.26608,-0.26608 0.16828,-0.0561 0.36007,0.043 0.53216,0 0.1924,-0.0481 0.34401,-0.20337 0.53216,-0.26609 0.0841,-0.028 0.18194,0.0281 0.26608,0 0.18814,-0.0627 0.34401,-0.20336 0.53216,-0.26608 0.0841,-0.028 0.18194,0.028 0.26608,0 0.37629,-0.12543 0.68803,-0.40672 1.06432,-0.53216 0.79208,-0.26402 -0.54594,0.63005 0.79824,-0.26608 0.10437,-0.0696 0.14709,-0.22641 0.26608,-0.26608 0.16829,-0.0561 0.36388,0.0561 0.53216,0 0.119,-0.0397 0.15389,-0.20998 0.26608,-0.26608 0.0793,-0.0397 0.18675,0.0397 0.26608,0 0.11219,-0.0561 0.15389,-0.20998 0.26608,-0.26608 0.0793,-0.0397 0.18675,0.0397 0.26608,0 0.3193,-0.15965 0.47895,-0.63859 0.79825,-0.79824 0.36702,-0.18351 0.238,0.32224 0.53215,-0.26608 0.0397,-0.0793 -0.0397,-0.18675 0,-0.26608 0.11792,-0.23584 0.63677,-0.55602 0.79825,-0.79824 0.0887,-0.17739 0.17738,-0.35477 0.26608,-0.53216 0,-0.0887 -0.0397,-0.18675 0,-0.26608 0.11219,-0.22438 0.45283,-0.29417 0.53216,-0.53216 0.0561,-0.16829 -0.0561,-0.36388 0,-0.53216 0.0793,-0.23799 0.41997,-0.30778 0.53216,-0.53216 0.0397,-0.0793 -0.0397,-0.18675 0,-0.26608 0.0561,-0.11219 0.22641,-0.14709 0.26608,-0.26608 0.0561,-0.16829 -0.0561,-0.36388 0,-0.53216 0.0397,-0.119 0.20998,-0.1539 0.26608,-0.26609 0.0397,-0.0793 0,-0.17738 0,-0.26608 0.0887,-0.0887 0.20998,-0.15389 0.26608,-0.26607 0.0793,-0.15866 -0.0793,-0.37351 0,-0.53217 0.0561,-0.11218 0.20999,-0.15389 0.26608,-0.26608 0.0836,-0.16723 -0.0836,-0.89708 0,-1.06432 0.0561,-0.11219 0.22641,-0.14708 0.26608,-0.26608 0.0561,-0.16828 0,-0.35477 0,-0.53216 0,-0.0887 -0.0397,-0.18675 0,-0.26608 0.0561,-0.11219 0.20998,-0.15389 0.26608,-0.26608 0.0397,-0.0793 -0.0281,-0.18194 0,-0.26608 0.0627,-0.18815 0.20336,-0.34401 0.26608,-0.53216 0.0516,-0.15493 0,-1.4134 0,-1.59648 0,-0.27412 0.0393,-1.78403 0,-1.86257 -0.0561,-0.11218 -0.22641,-0.14708 -0.26608,-0.26607 -0.0942,-0.28275 0.0943,-0.78159 0,-1.06433 -0.0627,-0.18814 -0.20336,-0.34401 -0.26608,-0.53216 -0.0827,-0.24819 0.082,-1.08448 0,-1.3304 -0.0397,-0.11899 -0.20999,-0.15389 -0.26608,-0.26608 -0.0397,-0.0793 0.0397,-0.18675 0,-0.26608 -0.0561,-0.11219 -0.22642,-0.14708 -0.26608,-0.26608 -0.0561,-0.16828 0.0561,-0.36388 0,-0.53216 -0.0397,-0.119 -0.20999,-0.15389 -0.26608,-0.26608 -0.0397,-0.0793 0,-0.17739 0,-0.26608 -0.0887,-0.0887 -0.20999,-0.15389 -0.26608,-0.26608 -0.0397,-0.0793 0.0281,-0.18194 0,-0.26608 -0.64245,-1.92733 0.0767,0.4195 -0.53216,-0.79824 -0.0397,-0.0793 0,-0.17739 0,-0.26608 -0.0887,-0.17739 -0.15607,-0.36715 -0.26608,-0.53216 -0.38257,-0.57386 -0.14959,0.0417 -0.53216,-0.53216 -0.11002,-0.16502 -0.15607,-0.36715 -0.26608,-0.53216 -0.13916,-0.20874 -0.41998,-0.30779 -0.53216,-0.53217 -0.0397,-0.0793 0.0397,-0.18675 0,-0.26608 -0.13092,-0.26183 -0.93341,-0.80249 -1.06433,-1.06432 -0.0397,-0.0793 0.0397,-0.18675 0,-0.26608 -0.0616,-0.12321 -0.90782,-0.90783 -1.06432,-1.06432 -0.15649,-0.15649 -0.9411,-1.00271 -1.06432,-1.06432 -0.0793,-0.0397 -0.18675,0.0397 -0.26608,0 -0.12321,-0.0616 -0.90783,-0.90783 -1.06432,-1.06432 -0.0887,-0.0887 -0.14709,-0.22642 -0.26608,-0.26608 -0.16828,-0.0561 -0.36388,0.0561 -0.53216,0 -0.23799,-0.0793 -0.30778,-0.41997 -0.53216,-0.53216 -0.0793,-0.0397 -0.20337,0.0627 -0.26608,0 -0.0627,-0.0627 0.0627,-0.20337 0,-0.26608 -0.12543,-0.12544 -0.3735,0.0793 -0.53216,0 -0.11219,-0.0561 -0.15389,-0.20999 -0.26608,-0.26608 -0.15866,-0.0793 -0.40673,0.12543 -0.53216,0 -0.0627,-0.0627 0.0793,-0.22642 0,-0.26608 -0.23799,-0.119 -0.56026,0.11899 -0.79825,0 -0.11218,-0.0561 -0.15388,-0.20999 -0.26608,-0.26608 -0.21286,-0.10644 -0.58537,0.10643 -0.79824,0 -0.11218,-0.0561 -0.15389,-0.20999 -0.26608,-0.26609 -0.16723,-0.0836 -0.89708,0.0836 -1.06432,0 -0.11219,-0.0561 -0.15389,-0.20998 -0.26608,-0.26607 -0.21286,-0.10644 -0.58537,0.10643 -0.79824,0 -0.11219,-0.0561 -0.15389,-0.20999 -0.26608,-0.26608 -0.17003,-0.085 -0.85015,0.0714 -1.06432,0 -0.18815,-0.0627 -0.34401,-0.20337 -0.53216,-0.26609 -0.2482,-0.0827 -1.08448,0.082 -1.3304,0 -0.119,-0.0397 -0.15389,-0.20998 -0.26608,-0.26608 -0.07,-0.035 -0.92519,0 -1.06433,0 -0.97562,0 -1.95125,0 -2.92688,0 -0.0887,0 -0.17738,0 -0.26608,0 -0.0887,0 -0.20336,0.0627 -0.26608,0 -0.0627,-0.0627 0.0627,-0.20336 0,-0.26608 -0.0627,-0.0627 -0.17739,0 -0.26608,0 -0.0887,0 -0.19003,-0.0456 -0.26608,0 -0.38027,0.22817 -0.70955,0.53216 -1.06432,0.79825 z"
       id="path24"
       inkscape:connector-curvature="0" />
    <path
       style="fill:none;stroke:#000000;stroke-width:0.26458332px;stroke-linecap:butt;stroke-linejoin:miter;stroke-opacity:1"
       d="m 160.71252,213.71686 v 13.83617"
       id="path28"
       inkscape:connector-curvature="0" />
    <path
       style="fill:none;stroke:#000000;stroke-width:0.26458332px;stroke-linecap:butt;stroke-linejoin:miter;stroke-opacity:1"
       d="m 162.04292,234.47112 -0.26608,13.03794"
       id="path30"
       inkscape:connector-curvature="0" />
    <path
       style="opacity:1;vector-effect:none;fill:none;fill-opacity:1;stroke:#000000;stroke-width:1.06760645;stroke-linecap:round;stroke-linejoin:round;stroke-miterlimit:4;stroke-dasharray:none;stroke-dashoffset:0;stroke-opacity:1;marker-start:none;marker-end:none"
       d="m 318.06638,150.9112 c -21.46937,-1.02813 -45.97348,-4.61945 -53.58211,-7.853 -10.82843,-4.60191 -10.11631,-18.23877 1.53931,-29.47722 0.96794,-0.9333 1.7599,-2.25461 1.7599,-2.93624 0,-1.38136 11.94161,-11.38723 13.5902,-11.38723 0.57672,0 4.28787,-1.552387 8.247,-3.449749 11.11407,-5.326272 18.21559,-6.997404 26.70956,-6.285301 3.98287,0.33391 7.39821,1.076985 7.58964,1.651277 0.53151,1.594536 2.19176,1.242817 2.19176,-0.464319 0,-0.829668 0.57478,-1.508487 1.27729,-1.508487 4.64493,0 32.91508,10.25486 32.91508,11.939789 0,0.37201 1.58391,1.52938 3.5198,2.57192 1.9359,1.04255 3.51981,2.27682 3.51981,2.74284 0,0.46601 0.53405,0.84729 1.18678,0.84729 2.18875,0 10.12388,9.49241 13.03047,15.5877 1.98295,4.15835 2.83503,7.44065 2.74119,10.55941 -0.0749,2.489 -0.31436,3.3941 -0.53217,2.01132 -1.42343,-9.03712 -3.17266,-9.72753 -2.5416,-1.00315 0.27177,3.75708 -0.008,6.57239 -0.74127,7.45575 -1.54499,1.86161 -9.3415,5.52473 -15.65755,7.35656 -5.09204,1.47684 -31.11809,2.39005 -46.76309,1.64084 z"
       id="path134"
       inkscape:connector-curvature="0"
       transform="matrix(0.26458333,0,0,0.26458333,0,177)" />
    <path
       style="opacity:1;vector-effect:none;fill:none;fill-opacity:1;stroke:#000000;stroke-width:1.06760645;stroke-linecap:round;stroke-linejoin:round;stroke-miterlimit:4;stroke-dasharray:none;stroke-dashoffset:0;stroke-opacity:1;marker-start:none;marker-end:none"
       d="m 305.99848,299.39101 c -7.84981,-0.50334 -12.88192,-1.47181 -19.61033,-3.77417 -14.89018,-5.0952 -21.32391,-9.59607 -28.10233,-19.65961 -3.92428,-5.82614 -3.47717,-6.89995 4.05396,-9.73609 7.4221,-2.7951 7.91205,-3.2246 6.57757,-5.76603 -0.52007,-0.99045 -1.48513,-3.83727 -2.14458,-6.32627 -1.34556,-5.07863 -3.54114,-8.05122 -5.93335,-8.03315 -0.88222,0.007 -3.51835,1.10668 -5.85808,2.44447 l -4.25404,2.43237 -0.97178,-3.70156 c -3.88043,-14.78071 -4.97143,-31.53609 -3.09119,-47.47405 1.53817,-13.03845 1.99559,-15.05848 3.40984,-15.05848 2.25264,0 4.63576,-3.54313 4.63576,-6.89227 0,-2.51086 -0.55516,-3.42517 -2.53734,-4.17879 -1.93171,-0.73443 -2.42638,-1.50862 -2.07245,-3.2435 0.25569,-1.25334 0.98906,-8.1619 1.62972,-15.35235 0.64066,-7.19046 1.50632,-14.88374 1.9237,-17.09619 l 0.75887,-4.02263 1.21102,3.01697 c 0.66606,1.65934 2.20377,3.92553 3.41714,5.03599 6.69341,6.12574 31.88137,10.0658 71.09368,11.12091 25.82767,0.69497 34.52993,-0.33309 44.98943,-5.3149 l 6.26519,-2.98409 -0.50379,11.65875 c -2.49204,57.67225 -2.54911,58.44458 -5.0111,67.8068 -4.05017,15.40166 -7.22706,25.75033 -8.31081,27.07231 -0.56581,0.69019 -1.96075,4.10535 -3.09985,7.58922 -5.28934,16.17705 -12.83438,26.94262 -24.12323,34.42005 -5.31847,3.52281 -16.03935,7.08636 -20.61976,6.85387 -1.73935,-0.0883 -7.91419,-0.4652 -13.72187,-0.83758 z"
       id="path136"
       inkscape:connector-curvature="0"
       transform="matrix(0.26458333,0,0,0.26458333,0,177)" />
    <path
       style="opacity:1;vector-effect:none;fill:none;fill-opacity:1;stroke:#000000;stroke-width:1.06760645;stroke-linecap:round;stroke-linejoin:round;stroke-miterlimit:4;stroke-dasharray:none;stroke-dashoffset:0;stroke-opacity:1;marker-start:none;marker-end:none"
       d="m 220.31525,273.0546 c -9.3023,-1.19953 -14.91654,-4.45444 -18.07195,-10.47742 -7.85685,-14.997 -5.84738,-38.20951 4.64898,-53.70295 1.68623,-2.48901 3.51841,-5.24801 4.07153,-6.13113 4.84996,-7.74363 8.04177,-11.50926 14.27592,-16.84244 3.97998,-3.40478 7.69099,-6.19051 8.24671,-6.19051 0.55571,0 1.37228,-0.593 1.8146,-1.31777 2.13138,-3.49244 9.62026,-6.12432 11.65023,-4.09435 0.75332,0.75331 -7.01746,16.47435 -8.14313,16.47435 -1.82528,0 -14.15947,8.67323 -19.12631,13.44935 -7.83534,7.53448 -10.23061,12.80631 -10.20905,22.46949 0.0211,9.44388 2.30978,20.97966 4.84508,24.42064 2.96172,4.01974 9.40842,7.03936 16.42583,7.69382 5.39771,0.50341 7.28599,0.20547 12.40117,-1.95673 l 6.03395,-2.55056 0.60532,2.19773 c 0.33292,1.20875 0.92326,4.31791 1.31185,6.90924 l 0.70654,4.71151 -6.84298,2.05679 c -9.23907,2.77697 -17.74204,3.77098 -24.64429,2.88094 z"
       id="path138"
       inkscape:connector-curvature="0"
       transform="matrix(0.26458333,0,0,0.26458333,0,177)" />
    <path
       style="opacity:1;vector-effect:none;fill:none;fill-opacity:1;stroke:#000000;stroke-width:1.06760645;stroke-linecap:round;stroke-linejoin:round;stroke-miterlimit:4;stroke-dasharray:none;stroke-dashoffset:0;stroke-opacity:1;marker-start:none;marker-end:none"
       d="m 584.06291,266.24038 c -20.57764,-1.38486 -51.64955,-15.83256 -60.91527,-28.32416 -7.56443,-10.19802 -8.55899,-22.73995 -3.08646,-38.922 1.74418,-5.15744 4.24651,-10.81427 5.56075,-12.57072 1.31423,-1.75645 3.18525,-4.77746 4.15781,-6.71335 3.24847,-6.46611 11.61046,-15.75641 18.1034,-20.11316 2.06079,-1.38278 4.76053,-3.53238 5.99943,-4.77688 1.2389,-1.2445 2.57026,-2.26273 2.95858,-2.26273 0.38831,0 2.1466,-1.08687 3.90731,-2.41526 3.82416,-2.8852 10.16131,-5.61783 13.12927,-5.66145 1.17695,-0.0173 4.38674,-1.13176 7.13287,-2.47659 7.55477,-3.69971 13.44742,-4.90949 19.95374,-4.09658 l 5.72587,0.7154 v 26.67172 26.67172 l -2.26273,0.58491 c -1.2445,0.3217 -6.43202,2.67301 -11.52781,5.22514 l -9.26507,4.64024 -5.13779,-5.83683 c -2.82578,-3.21025 -5.55783,-5.57723 -6.07121,-5.25994 -2.90206,1.79357 0.77145,13.76008 5.49619,17.90389 4.70501,4.12651 18.00102,8.9059 28.6521,10.2993 l 5.41481,0.70838 -0.63793,7.54668 c -0.35086,4.15068 -0.63793,14.71914 -0.63793,23.48548 v 15.9388 l -8.79951,-0.17644 c -4.83972,-0.0971 -12.87242,-0.45056 -17.85042,-0.78557 z"
       id="path140"
       inkscape:connector-curvature="0"
       transform="matrix(0.26458333,0,0,0.26458333,0,177)" />
    <path
       style="opacity:1;vector-effect:none;fill:none;fill-opacity:1;stroke:#000000;stroke-width:1.06760645;stroke-linecap:round;stroke-linejoin:round;stroke-miterlimit:4;stroke-dasharray:none;stroke-dashoffset:0;stroke-opacity:1;marker-start:none;marker-end:none"
       d="m 612.72416,248.2544 c 0,-10.44246 0.27949,-21.02544 0.6211,-23.51773 l 0.6211,-4.53145 6.16709,-0.59994 c 8.32292,-0.80967 24.04855,-5.02675 31.9169,-8.55904 3.53718,-1.58792 8.35456,-3.70005 10.70529,-4.69362 2.35073,-0.99357 4.27405,-2.19031 4.27405,-2.65942 0,-1.32728 -3.31576,-0.94353 -5.38377,0.62309 -2.04052,1.5458 -2.5456,1.42102 -12.21525,-3.01791 -7.55525,-3.4683 -18.85883,-8.24993 -24.13579,-10.2099 -2.87844,-1.06911 -5.81042,-1.30379 -10.30799,-0.82505 l -6.28536,0.66904 v -26.17718 c 0,-21.80633 0.24316,-26.31326 1.45633,-26.99218 2.32698,-1.30225 23.23368,0.35671 34.74735,2.75721 11.55083,2.40825 21.11882,5.61635 21.11882,7.08103 0,0.51337 0.72682,0.9334 1.61517,0.9334 0.88834,0 2.50509,1.13137 3.59279,2.51414 1.08769,1.38278 2.53176,2.51415 3.20903,2.51415 1.55666,0 8.67919,7.22702 8.67919,8.80653 0,0.6486 0.9051,1.66367 2.01132,2.25571 1.10622,0.59203 2.01132,1.54537 2.01132,2.11853 0,0.57316 0.56568,1.6729 1.25707,2.44386 2.82098,3.14566 3.49678,4.23877 6.19449,10.01965 1.54869,3.31867 3.19247,6.93904 3.65285,8.04526 1.45362,3.49288 3.25274,18.98117 2.68921,23.15096 -1.7386,12.86481 -8.90552,30.36202 -14.98278,36.57876 -7.60205,7.77653 -30.40357,15.30194 -53.6192,17.69647 -8.29668,0.85574 -16.1031,1.78226 -17.3476,2.05892 l -2.26273,0.50301 z"
       id="path144"
       inkscape:connector-curvature="0"
       transform="matrix(0.26458333,0,0,0.26458333,0,177)" />
    <text
       id="text148"
       xml:space="preserve"
       style="font-size:2.64583325px;font-family:monospace;-inkscape-font-specification:'monospace, Normal';fill:#000000;fill-opacity:1;stroke:none;stroke-width:0.26458332"
       y="232.26512"
       x="113.3168"><tspan
         id="tspan146"
         sodipodi:role="line"
         x="113.3168"
         y="232.26512"
         style="stroke-width:0.26458332">$\cong$</tspan></text>
    <path
       style="opacity:1;vector-effect:none;fill:#ff0000;fill-opacity:1;stroke:#000000;stroke-width:1.06760645;stroke-linecap:round;stroke-linejoin:round;stroke-miterlimit:4;stroke-dasharray:none;stroke-dashoffset:0;stroke-opacity:1;marker-start:none;marker-end:none"
       d="m 305.99848,298.35398 c -13.9658,-1.1979 -27.82897,-5.77671 -36.63327,-12.09948 -3.98587,-2.86244 -12.64397,-13.15631 -12.64397,-15.0328 0,-1.24098 2.23423,-2.62632 7.27675,-4.51199 6.98442,-2.61184 7.23806,-3.24405 4.41826,-11.01252 -2.55884,-7.04953 -5.0348,-10.61928 -7.36548,-10.61928 -0.76597,0 -3.22869,0.93666 -5.4727,2.08147 -2.24402,1.14481 -4.22395,1.93677 -4.39986,1.75991 -0.17591,-0.17687 -1.05727,-4.16822 -1.95858,-8.86967 -2.44737,-12.7661 -2.96621,-29.86545 -1.28222,-42.25841 1.30638,-9.61401 1.72717,-10.86968 4.60792,-13.75043 3.9528,-3.9528 4.26527,-8.3447 0.7851,-11.03495 l -2.38516,-1.84378 1.82349,-16.09052 c 1.00292,-8.84979 1.84997,-16.23839 1.88233,-16.4191 0.0324,-0.18072 1.20898,1.03829 2.61472,2.70892 6.0504,7.19049 28.68068,11.14857 72.86846,12.74481 21.29026,0.76909 32.25836,-0.36861 42.72145,-4.43144 l 7.71152,-2.9944 -0.58076,9.72672 c -0.31942,5.3497 -1.04064,19.68274 -1.6027,31.8512 -0.56207,12.16846 -1.27458,23.93466 -1.58335,26.14711 -1.7905,12.8296 -11.52356,42.42591 -18.60916,56.58677 -6.69386,13.378 -16.85978,22.38249 -29.77205,26.37068 -6.84401,2.11391 -8.48534,2.18647 -22.42074,0.99118 z"
       id="path41"
       inkscape:connector-curvature="0"
       transform="matrix(0.26458333,0,0,0.26458333,0,177)" />
    <path
       style="opacity:1;vector-effect:none;fill:#ff0000;fill-opacity:1;stroke:#000000;stroke-width:1.06760645;stroke-linecap:round;stroke-linejoin:round;stroke-miterlimit:4;stroke-dasharray:none;stroke-dashoffset:0;stroke-opacity:1;marker-start:none;marker-end:none"
       d="m 317.56355,149.87613 c -19.72417,-1.20583 -42.88826,-4.44093 -50.15441,-7.00457 -8.06229,-2.84455 -11.10133,-8.51918 -8.64606,-16.14432 1.54184,-4.78834 11.16837,-17.57321 16.5473,-21.97625 4.71806,-3.86206 20.4505,-11.007392 29.13388,-13.231973 6.6167,-1.69512 16.84815,-1.214165 19.41055,0.912444 1.17866,0.978196 1.73093,0.86056 2.79561,-0.595477 1.26429,-1.729019 1.60259,-1.734735 7.18219,-0.121365 24.04381,6.952389 39.29669,17.267521 46.47117,31.427271 1.19107,2.35072 1.70384,4.27404 1.13948,4.27404 -0.58988,0 -1.02609,2.71268 -1.02609,6.38091 0,7.58516 -0.77677,8.53161 -10.11686,12.32683 -5.45773,2.21768 -8.81079,2.74711 -22.04435,3.48069 -15.27503,0.84675 -20.52654,0.89325 -30.69241,0.27177 z"
       id="path43"
       inkscape:connector-curvature="0"
       transform="matrix(0.26458333,0,0,0.26458333,0,177)" />
    <path
       style="opacity:1;vector-effect:none;fill:#ff0000;fill-opacity:1;stroke:#000000;stroke-width:1.06760645;stroke-linecap:round;stroke-linejoin:round;stroke-miterlimit:4;stroke-dasharray:none;stroke-dashoffset:0;stroke-opacity:1;marker-start:none;marker-end:none"
       d="m 613.74088,247.40842 c 0.006,-10.40813 0.2777,-20.53537 0.60357,-22.505 l 0.5925,-3.58114 7.69311,-1.13787 c 10.42779,-1.54235 23.84887,-5.56609 35.12396,-10.53042 9.88634,-4.35288 11.17283,-5.31881 9.41937,-7.07227 -0.78151,-0.78151 -2.17006,-0.73217 -4.91813,0.17478 -3.71332,1.2255 -4.34561,1.04071 -20.89761,-6.10751 -16.22187,-7.00566 -17.43004,-7.36648 -24.35945,-7.27505 l -7.29102,0.0962 v -23.90525 c 0,-13.14788 0.27469,-24.62108 0.61043,-25.49598 1.89321,-4.93363 45.14425,1.7727 56.20453,8.71485 5.35425,3.36068 13.95653,11.58152 18.97514,18.13376 8.36318,10.91887 12.45843,20.58405 13.82911,32.63805 1.02177,8.98566 0.93237,10.72292 -0.93102,18.09161 -2.32048,9.17627 -7.74368,21.57894 -11.70864,26.77728 -6.72672,8.81917 -29.90171,16.53696 -59.38053,19.77502 -5.53112,0.60756 -10.84854,1.33598 -11.81648,1.61872 -1.63223,0.47677 -1.7591,-0.85877 -1.74884,-18.40978 z"
       id="path45"
       inkscape:connector-curvature="0"
       transform="matrix(0.26458333,0,0,0.26458333,0,177)" />
    <path
       style="opacity:1;vector-effect:none;fill:#0000ff;fill-opacity:1;stroke:#000000;stroke-width:1.06159997;stroke-linecap:round;stroke-linejoin:round;stroke-miterlimit:4;stroke-dasharray:none;stroke-dashoffset:0;stroke-opacity:1;marker-start:none;marker-end:none"
       d="m 214.43409,270.73064 c -6.16753,-2.19709 -8.82307,-4.63123 -12.05782,-11.05256 -2.85572,-5.6689 -3,-6.5565 -3,-18.45532 0,-10.52407 0.37156,-13.57604 2.35054,-19.30714 4.50378,-13.04286 20.03206,-33.34356 30.97271,-40.49177 1.43197,-0.9356 3.64402,-2.66333 4.91566,-3.83939 2.09128,-1.9341 7.22005,-3.71873 8.12421,-2.82694 0.6417,0.63291 -7.06653,15.46524 -8.03714,15.46524 -1.68178,0 -13.20324,8.27533 -18.71927,13.44518 -7.68727,7.20482 -10.08469,12.84537 -10.09694,23.7556 -0.0192,17.08 3.12397,25.25955 11.21731,29.19126 7.80025,3.78932 14.92131,4.30669 22.09192,1.60504 3.20045,-1.20583 6.01243,-1.99898 6.24885,-1.76256 0.87573,0.87573 2.2654,10.28833 1.6108,10.91039 -0.37326,0.3547 -4.47683,1.5922 -9.11904,2.75 -9.68597,2.41574 -20.72443,2.67106 -26.50179,0.61297 z"
       id="path49"
       inkscape:connector-curvature="0"
       transform="matrix(0.26458333,0,0,0.26458333,0,177)" />
    <path
       style="opacity:1;vector-effect:none;fill:#0000ff;fill-opacity:1;stroke:#000000;stroke-width:1.06159997;stroke-linecap:round;stroke-linejoin:round;stroke-miterlimit:4;stroke-dasharray:none;stroke-dashoffset:0;stroke-opacity:1;marker-start:none;marker-end:none"
       d="m 584.29853,265.13659 c -11.31739,-1.01125 -25.79058,-5.52711 -38.43694,-11.99291 -19.80078,-10.1237 -27.15864,-19.10033 -27.83478,-33.95861 -0.6804,-14.95168 6.68288,-33.01928 20.01475,-49.11109 7.32521,-8.84167 30.47101,-24.80914 36.00915,-24.84145 0.92094,-0.005 4.97094,-1.32285 9,-2.92771 7.17903,-2.85957 11.56127,-3.60783 19.07556,-3.2571 l 3.75,0.17504 -0.03,25.75 -0.03,25.75 -10.85048,5.13037 -10.85048,5.13038 -5.50819,-5.50819 c -3.10253,-3.10253 -5.99355,-5.20822 -6.61951,-4.82136 -1.95962,1.21111 -1.214,8.43265 1.40411,13.59923 3.76756,7.43494 12.35561,12.00301 29.04793,15.4509 4.33329,0.89507 7.90973,1.71543 7.94765,1.82303 0.0379,0.1076 -0.10561,10.20814 -0.31896,22.44564 l -0.38791,22.25 -8.15207,-0.13752 c -4.48364,-0.0756 -12.23705,-0.50253 -17.22981,-0.94865 z"
       id="path51"
       inkscape:connector-curvature="0"
       transform="matrix(0.26458333,0,0,0.26458333,0,177)" />
    <path
       style="opacity:1;vector-effect:none;fill:#0000ff;fill-opacity:1;stroke:#000000;stroke-width:1.06159997;stroke-linecap:round;stroke-linejoin:round;stroke-miterlimit:4;stroke-dasharray:none;stroke-dashoffset:0;stroke-opacity:1;marker-start:none;marker-end:none"
       d="m 253.75127,266.73618 c -0.0687,-0.28238 -0.18814,-0.85092 -0.26531,-1.26342 -0.0772,-0.4125 -0.47238,-1.27189 -0.87825,-1.90976 -0.40586,-0.63787 -0.47159,-1.85382 -0.14607,-2.70211 0.32552,-0.8483 0.23578,-2.1185 -0.19942,-2.82266 -1.82921,-2.95973 -0.97973,-4.96922 3.11509,-7.36895 2.29607,-1.34559 4.68726,-2.44652 5.31376,-2.44652 1.86104,0 4.12972,4.3161 4.78619,9.10559 0.57589,4.20152 0.43845,4.55736 -2.24376,5.80945 -6.1476,2.86976 -9.36258,4.08981 -9.48223,3.59838 z"
       id="path53"
       inkscape:connector-curvature="0"
       transform="matrix(0.26458333,0,0,0.26458333,0,177)" />
    <path
       style="opacity:1;vector-effect:none;fill:#0000ff;fill-opacity:1;stroke:#000000;stroke-width:1.06159997;stroke-linecap:round;stroke-linejoin:round;stroke-miterlimit:4;stroke-dasharray:none;stroke-dashoffset:0;stroke-opacity:1;marker-start:none;marker-end:none"
       d=""
       id="path55"
       inkscape:connector-curvature="0"
       transform="matrix(0.26458333,0,0,0.26458333,0,177)" />
    <path
       style="opacity:1;vector-effect:none;fill:#0000ff;fill-opacity:1;stroke:#000000;stroke-width:1.06159997;stroke-linecap:round;stroke-linejoin:round;stroke-miterlimit:4;stroke-dasharray:none;stroke-dashoffset:0;stroke-opacity:1;marker-start:none;marker-end:none"
       d="m 247.87627,181.15702 c 0,-2.90888 1.8023,-5.93426 3.53518,-5.93426 2.09173,0 1.84232,4.34839 -0.36392,6.34501 -2.41483,2.18539 -3.17126,2.08742 -3.17126,-0.41075 z"
       id="path57"
       inkscape:connector-curvature="0"
       transform="matrix(0.26458333,0,0,0.26458333,0,177)" />
  </g>
</svg>
