<?xml version="1.0" encoding="UTF-8" standalone="no"?>
<!-- Created with Inkscape (http://www.inkscape.org/) -->

<svg
   xmlns:dc="http://purl.org/dc/elements/1.1/"
   xmlns:cc="http://creativecommons.org/ns#"
   xmlns:rdf="http://www.w3.org/1999/02/22-rdf-syntax-ns#"
   xmlns:svg="http://www.w3.org/2000/svg"
   xmlns="http://www.w3.org/2000/svg"
   xmlns:sodipodi="http://sodipodi.sourceforge.net/DTD/sodipodi-0.dtd"
   xmlns:inkscape="http://www.inkscape.org/namespaces/inkscape"
   width="240mm"
   height="120mm"
   viewBox="0 0 240 120"
   version="1.1"
   id="svg8"
   inkscape:version="0.92.5 (2060ec1f9f, 2020-04-08)"
   sodipodi:docname="trennung-von-abgeschlossenen-mengen-durch-offene-in-normalem-raum.svg">
  <defs
     id="defs2" />
  <sodipodi:namedview
     id="base"
     pagecolor="#ffffff"
     bordercolor="#666666"
     borderopacity="1.0"
     inkscape:pageopacity="0.0"
     inkscape:pageshadow="2"
     inkscape:zoom="1.406257"
     inkscape:cx="628.31276"
     inkscape:cy="198.96785"
     inkscape:document-units="mm"
     inkscape:current-layer="layer1"
     showgrid="false"
     showborder="true"
     width="200mm"
     showguides="true"
     inkscape:guide-bbox="true"
     inkscape:window-width="636"
     inkscape:window-height="1027"
     inkscape:window-x="640"
     inkscape:window-y="1100"
     inkscape:window-maximized="0"
     inkscape:snap-global="false">
    <inkscape:grid
       type="xygrid"
       id="grid815"
       units="mm"
       spacingx="10"
       spacingy="10"
       empspacing="4"
       dotted="false" />
  </sodipodi:namedview>
  <metadata
     id="metadata5">
    <rdf:RDF>
      <cc:Work
         rdf:about="">
        <dc:format>image/svg+xml</dc:format>
        <dc:type
           rdf:resource="http://purl.org/dc/dcmitype/StillImage" />
        <dc:title />
      </cc:Work>
    </rdf:RDF>
  </metadata>
  <g
     inkscape:label="Layer 1"
     inkscape:groupmode="layer"
     id="layer1"
     transform="translate(0,-177)">
    <path
       style="color:#000000;clip-rule:nonzero;display:inline;overflow:visible;visibility:visible;opacity:1;isolation:auto;mix-blend-mode:normal;color-interpolation:sRGB;color-interpolation-filters:linearRGB;solid-color:#000000;solid-opacity:1;vector-effect:none;fill:none;fill-opacity:1;fill-rule:nonzero;stroke:#000000;stroke-width:0.52127999;stroke-linecap:round;stroke-linejoin:round;stroke-miterlimit:4;stroke-dasharray:none;stroke-dashoffset:0;stroke-opacity:1;marker-start:none;marker-end:none;color-rendering:auto;image-rendering:auto;shape-rendering:auto;text-rendering:auto;enable-background:accumulate"
       d="m 201.60067,218.24364 c 6.53435,34.40617 -70.35148,73.42831 -95.55842,69.00416 -13.317537,-2.33744 -21.547802,-20.18148 -31.670771,-28.1767 -7.823698,-6.17926 -20.619375,-1.26587 -28.394502,-11.5007 -14.138178,-18.61091 9.238451,-26.19439 25.148322,-33.62418 15.909882,-7.42976 116.891811,-67.22569 130.475371,4.29742 z"
       id="path24"
       inkscape:connector-curvature="0"
       sodipodi:nodetypes="scsscs" />
    <rect
       style="opacity:1;vector-effect:none;fill:#000000;fill-opacity:0.12000002;stroke:#000000;stroke-width:0.23053363;stroke-linecap:round;stroke-linejoin:round;stroke-miterlimit:4;stroke-dasharray:none;stroke-dashoffset:0;stroke-opacity:1;marker-start:none;marker-end:none"
       id="rect26"
       width="18.493481"
       height="13.93504"
       x="103.3937"
       y="226.50101" />
    <text
       id="text22"
       xml:space="preserve"
       style="font-size:2.64583325px;font-family:monospace;-inkscape-font-specification:'monospace, Normal';fill:#000000;fill-opacity:1;stroke:none;stroke-width:0.26458332"
       y="234.9055"
       x="109.2673"><tspan
         id="tspan20"
         sodipodi:role="line"
         x="109.2673"
         y="234.9055"
         style="stroke-width:0.26458332">$A$</tspan></text>
    <text
       id="text36"
       xml:space="preserve"
       style="font-size:2.64583325px;font-family:monospace;-inkscape-font-specification:'monospace, Normal';fill:#000000;fill-opacity:1;stroke:none;stroke-width:0.26458332"
       y="230.29773"
       x="171.84709"><tspan
         id="tspan34"
         sodipodi:role="line"
         x="171.84709"
         y="230.29773"
         style="stroke-width:0.26458332">$U$</tspan></text>
    <text
       id="text50"
       xml:space="preserve"
       style="font-size:2.64583325px;font-family:monospace;-inkscape-font-specification:'monospace, Normal';fill:#000000;fill-opacity:1;stroke:none;stroke-width:0.26458332"
       y="232.48012"
       x="129.65393"><tspan
         id="tspan48"
         sodipodi:role="line"
         x="129.65393"
         y="232.48012"
         style="stroke-width:0.26458332">$V$</tspan></text>
    <text
       id="text64"
       xml:space="preserve"
       style="font-size:2.64583325px;font-family:monospace;-inkscape-font-specification:'monospace, Normal';fill:#000000;fill-opacity:1;stroke:none;stroke-width:0.26458332"
       y="211.42625"
       x="159.1483"><tspan
         id="tspan62"
         sodipodi:role="line"
         x="159.1483"
         y="211.42625"
         style="stroke-width:0.26458332">$V'$</tspan></text>
    <text
       id="text78"
       xml:space="preserve"
       style="font-size:2.64583325px;font-family:monospace;-inkscape-font-specification:'monospace, Normal';fill:#000000;fill-opacity:1;stroke:none;stroke-width:0.26458332"
       y="214.17065"
       x="136.26672"><tspan
         id="tspan76"
         sodipodi:role="line"
         x="136.26672"
         y="214.17065"
         style="stroke-width:0.26458332">$\overline{V}$</tspan></text>
    <path
       style="color:#000000;clip-rule:nonzero;display:inline;overflow:visible;visibility:visible;opacity:1;isolation:auto;mix-blend-mode:normal;color-interpolation:sRGB;color-interpolation-filters:linearRGB;solid-color:#000000;solid-opacity:1;vector-effect:none;fill:none;fill-opacity:1;fill-rule:nonzero;stroke:#000000;stroke-width:0.41548026;stroke-linecap:round;stroke-linejoin:round;stroke-miterlimit:4;stroke-dasharray:none;stroke-dashoffset:0;stroke-opacity:1;marker-start:none;marker-end:none;color-rendering:auto;image-rendering:auto;shape-rendering:auto;text-rendering:auto;enable-background:accumulate"
       d="m 187.0933,221.29143 c 5.3446,26.72294 -57.54188,57.03106 -78.15914,53.59487 -10.892701,-1.81547 -17.624408,-15.67475 -25.904191,-21.88457 -6.399156,-4.79937 -16.865014,-0.9832 -23.224437,-8.9325 -11.563895,-14.45489 7.556332,-20.34491 20.569334,-26.11555 13.013012,-5.77062 95.608174,-52.21355 106.718434,3.33775 z"
       id="path24-3"
       inkscape:connector-curvature="0"
       sodipodi:nodetypes="scsscs" />
    <text
       id="text112"
       xml:space="preserve"
       style="font-size:2.64583325px;font-family:monospace;-inkscape-font-specification:'monospace, Normal';fill:#000000;fill-opacity:1;stroke:none;stroke-width:0.26458332"
       y="207.1095"
       x="181.27226"><tspan
         id="tspan110"
         sodipodi:role="line"
         x="181.27226"
         y="207.1095"
         style="stroke-width:0.26458332">$\color{blue} X\setminus U$</tspan></text>
    <text
       id="text130"
       xml:space="preserve"
       style="font-size:2.64583325px;font-family:monospace;-inkscape-font-specification:'monospace, Normal';fill:#000000;fill-opacity:1;stroke:none;stroke-width:0.26458332"
       y="200.01176"
       x="76.883469"><tspan
         id="tspan128"
         sodipodi:role="line"
         x="76.883469"
         y="200.01176"
         style="stroke-width:0.26458332">$X$</tspan></text>
    <path
       style="color:#000000;clip-rule:nonzero;display:inline;overflow:visible;visibility:visible;opacity:1;isolation:auto;mix-blend-mode:normal;color-interpolation:sRGB;color-interpolation-filters:linearRGB;solid-color:#000000;solid-opacity:1;vector-effect:none;fill:none;fill-opacity:1;fill-rule:nonzero;stroke:#000000;stroke-width:0.1118741;stroke-linecap:round;stroke-linejoin:round;stroke-miterlimit:4;stroke-dasharray:0.1118741, 0.55937049;stroke-dashoffset:0;stroke-opacity:1;marker-start:none;marker-end:none;color-rendering:auto;image-rendering:auto;shape-rendering:auto;text-rendering:auto;enable-background:accumulate"
       d="m 164.41557,224.57216 c 3.92817,17.83327 -42.29214,38.05903 -57.44539,35.76596 -8.005889,-1.21154 -12.953557,-10.46039 -19.03902,-14.60444 -4.703254,-3.20281 -12.395447,-0.65612 -17.069501,-5.961 -8.49923,-9.64632 5.553732,-13.57696 15.11803,-17.42793 9.564323,-3.85097 70.270061,-34.84414 78.435881,2.22741 z"
       id="path24-6"
       inkscape:connector-curvature="0"
       sodipodi:nodetypes="scsscs" />
    <path
       style="color:#000000;clip-rule:nonzero;display:inline;overflow:visible;visibility:visible;opacity:1;isolation:auto;mix-blend-mode:normal;color-interpolation:sRGB;color-interpolation-filters:linearRGB;solid-color:#000000;solid-opacity:1;vector-effect:none;fill:none;fill-opacity:1;fill-rule:nonzero;stroke:black;stroke-width:0.28088167;stroke-linecap:round;stroke-linejoin:round;stroke-miterlimit:4;stroke-dasharray:none;stroke-dashoffset:0;stroke-opacity:1;marker-start:none;marker-end:none;color-rendering:auto;image-rendering:auto;shape-rendering:auto;text-rendering:auto;enable-background:accumulate"
       d="m 143.48703,227.5588 c 2.41461,12.07297 -25.99645,25.76567 -35.31099,24.21326 -4.92112,-0.8202 -7.9624,-7.08159 -11.703064,-9.88708 -2.891031,-2.16828 -7.619328,-0.44419 -10.492411,-4.03555 -5.224373,-6.53048 3.413815,-9.1915 9.292871,-11.79857 5.879064,-2.60707 43.194174,-23.58921 48.213594,1.50794 z"
       id="path24-7"
       inkscape:connector-curvature="0"
       sodipodi:nodetypes="scsscs" />
    <path
       style="opacity:1;vector-effect:none;fill:none;fill-opacity:1;stroke:#000000;stroke-width:0.37745589;stroke-linecap:round;stroke-linejoin:round;stroke-miterlimit:4;stroke-dasharray:0.37745589, 1.88727946;stroke-dashoffset:0;stroke-opacity:1;marker-start:none;marker-end:none"
       d=""
       id="path222"
       inkscape:connector-curvature="0"
       transform="matrix(0.26458333,0,0,0.26458333,0,177)" />
    <path
       style="opacity:1;vector-effect:none;fill:none;fill-opacity:1;stroke:#000000;stroke-width:0.37745589;stroke-linecap:round;stroke-linejoin:round;stroke-miterlimit:4;stroke-dasharray:0.37745589, 1.88727946;stroke-dashoffset:0;stroke-opacity:1;marker-start:none;marker-end:none"
       d=""
       id="path224"
       inkscape:connector-curvature="0"
       transform="matrix(0.26458333,0,0,0.26458333,0,177)" />
    <path
       style="opacity:1;vector-effect:none;fill:none;fill-opacity:1;stroke:#000000;stroke-width:0.37745589;stroke-linecap:round;stroke-linejoin:round;stroke-miterlimit:4;stroke-dasharray:0.37745589, 1.88727946;stroke-dashoffset:0;stroke-opacity:1;marker-start:none;marker-end:none"
       d=""
       id="path226"
       inkscape:connector-curvature="0"
       transform="matrix(0.26458333,0,0,0.26458333,0,177)" />
    <path
       style="opacity:1;vector-effect:none;fill:none;fill-opacity:1;stroke:#000000;stroke-width:0.37745589;stroke-linecap:round;stroke-linejoin:round;stroke-miterlimit:4;stroke-dasharray:0.37745589, 1.88727946;stroke-dashoffset:0;stroke-opacity:1;marker-start:none;marker-end:none"
       d="m 408.3023,416.20806 c -13.49917,-1.13775 -25.96614,-5.95251 -38.75536,-14.96741 -10.49501,-7.39774 -27.79078,-25.26878 -47.71595,-49.30304 -32.59119,-39.31232 -42.92431,-48.17744 -62.13407,-53.30677 -3.70669,-0.98975 -14.10663,-2.95578 -23.111,-4.36895 -18.1791,-2.85309 -26.39091,-4.74165 -34.87788,-8.02124 -11.85501,-4.58111 -22.41099,-13.4562 -30.61118,-25.73679 -22.81344,-34.16535 -14.37917,-60.1614 27.78426,-85.63648 9.20511,-5.56171 30.52796,-16.09088 50.48864,-24.93115 7.82218,-3.46432 34.06205,-16.25479 58.31082,-28.42325 24.24877,-12.16847 50.85097,-25.221545 59.11601,-29.006839 82.04226,-37.574424 145.79504,-57.701121 205.77155,-64.961893 14.60293,-1.767834 48.66098,-1.778139 61.15525,-0.0185 62.46145,8.796777 101.53627,42.102726 120.50254,102.711972 7.25442,23.18244 9.28278,41.07061 6.47091,57.06696 -3.67342,20.89759 -15.63231,44.6185 -34.23723,67.91077 -8.23282,10.30703 -32.30725,34.3201 -44.44174,44.32847 -51.74488,42.67855 -118.28061,79.3032 -183.23046,100.85938 -26.6926,8.85899 -52.65271,14.67331 -69.40709,15.5452 -3.96628,0.2064 -8.81142,0.47734 -10.76696,0.6021 -1.95555,0.12476 -6.59552,-0.0294 -10.31106,-0.34254 z m 38.14542,-45.81076 c 49.08971,-7.20154 115.34259,-34.53187 168.78688,-69.62716 21.38583,-14.04344 37.06399,-26.6831 53.35615,-43.01547 20.22792,-20.27785 31.78004,-38.0763 38.1102,-58.71671 1.81615,-5.92182 1.96528,-7.3297 1.99607,-18.84435 0.0315,-11.766 -0.0897,-12.90957 -2.22269,-20.97768 C 699.24851,131.88402 689.53187,113.60177 673.94658,98.013652 633.05246,57.11212 561.32051,53.375909 459.14649,86.825632 419.75554,99.721441 383.53057,114.99388 324.03605,143.78816 c -11.34216,5.48941 -28.62208,13.3966 -38.3998,17.57152 -21.88815,9.34587 -38.503,17.46532 -46.9331,22.93554 -22.03524,14.29849 -30.51343,29.51488 -26.00893,46.68001 3.52335,13.4263 15.02047,28.79914 26.62428,35.59942 8.2591,4.84016 17.25644,7.34969 37.01548,10.32431 17.54669,2.64156 22.01562,3.72497 29.21328,7.0822 10.03254,4.67952 17.15968,11.21534 37.25859,34.16731 18.21839,20.80451 26.38272,29.28552 34.56327,35.90392 12.68412,10.26198 23.99512,15.62508 36.75918,17.42931 6.0923,0.86116 22.90198,0.29715 32.31942,-1.0844 z"
       id="path230"
       inkscape:connector-curvature="0"
       transform="matrix(0.26458333,0,0,0.26458333,0,177)" />
    <path
       style="opacity:1;vector-effect:none;fill:#0000ff;fill-opacity:0.12000002;stroke:#000000;stroke-width:0.75491178;stroke-linecap:round;stroke-linejoin:round;stroke-miterlimit:4;stroke-dasharray:none;stroke-dashoffset:0;stroke-opacity:1;marker-start:none;marker-end:none"
       d="m 415.2661,416.60811 c -0.19011,-0.1901 -2.71473,-0.47189 -5.61027,-0.62618 -2.89554,-0.1543 -5.26462,-0.33211 -5.26462,-0.39512 0,-0.063 -0.96,-0.27569 -2.13333,-0.47258 -4.38036,-0.73506 -4.97775,-0.85043 -4.97775,-0.96139 0,-0.0625 -0.48898,-0.21044 -1.08663,-0.32873 -3.24526,-0.64229 -9.22443,-2.8705 -9.22443,-3.4376 0,-0.36152 -0.48,-0.47313 -1.06666,-0.248 -0.58666,0.22512 -1.06666,0.12478 -1.06666,-0.22298 0,-0.34776 -0.96,-0.84314 -2.13332,-1.10084 -1.17333,-0.25771 -2.13333,-0.78201 -2.13333,-1.16513 0,-0.38312 -0.27153,-0.52876 -0.60341,-0.32365 -0.33188,0.20511 -1.21187,-0.176 -1.95555,-0.84691 -0.74367,-0.67092 -2.55212,-1.85262 -4.01878,-2.62599 -1.46666,-0.77339 -2.66665,-1.65339 -2.66665,-1.95555 0,-0.30217 -0.48,-0.5494 -1.06667,-0.5494 -0.58666,0 -1.06666,-0.32 -1.06666,-0.71111 0,-0.39111 -0.33454,-0.71111 -0.74342,-0.71111 -0.40889,0 -1.48868,-0.71999 -2.39952,-1.59999 -2.75205,-2.65883 -4.65479,-4.08887 -5.44045,-4.08887 -0.40971,0 -0.54717,-0.32 -0.30545,-0.71111 0.24172,-0.3911 0.0777,-0.7111 -0.36438,-0.7111 -1.03814,0 -2.83561,-1.79747 -2.83561,-2.83561 0,-0.44212 -0.31999,-0.6061 -0.7111,-0.36438 -0.39111,0.24172 -0.71111,0.0777 -0.71111,-0.36438 0,-0.85097 -1.72903,-2.8356 -2.47041,-2.8356 -0.57118,0 -3.92956,-3.35838 -3.92956,-3.92956 0,-0.74138 -1.98463,-2.47041 -2.8356,-2.47041 -0.44213,0 -0.6061,-0.32 -0.36438,-0.71111 0.24172,-0.39111 -0.0594,-0.7111 -0.66914,-0.7111 -0.60975,0 -1.10863,-0.49889 -1.10863,-1.10863 0,-0.60975 -0.32,-0.91086 -0.71111,-0.66914 -0.39111,0.24172 -0.71111,-0.0594 -0.71111,-0.66914 0,-0.60975 -0.49888,-1.10863 -1.10863,-1.10863 -0.60974,0 -0.91086,-0.32 -0.66914,-0.71111 0.24172,-0.39111 0.10061,-0.71111 -0.31358,-0.71111 -0.41419,0 -0.75308,-0.47999 -0.75308,-1.06666 0,-0.58666 -0.49888,-1.06666 -1.10863,-1.06666 -0.60974,0 -0.91086,-0.32 -0.66914,-0.71111 0.24172,-0.39111 -0.0594,-0.7111 -0.66913,-0.7111 -0.60975,0 -1.02863,-0.27106 -0.93086,-0.60237 0.0978,-0.3313 -0.86222,-1.57968 -2.13332,-2.77418 -1.27111,-1.1945 -2.3111,-2.45278 -2.3111,-2.79619 0,-0.34341 -0.64,-1.08565 -1.42222,-1.64945 -0.78221,-0.56379 -1.42221,-1.30604 -1.42221,-1.64945 0,-0.34341 -0.96,-1.52114 -2.13332,-2.61719 -1.17333,-1.09605 -2.13333,-2.27379 -2.13333,-2.6172 0,-0.34341 -0.63999,-1.08565 -1.42221,-1.64945 -0.78222,-0.56379 -1.42222,-1.28897 -1.42222,-1.61152 0,-0.32255 -0.71999,-1.33274 -1.59999,-2.24489 -0.87999,-0.91213 -2.71998,-3.00344 -4.08887,-4.64735 -4.08349,-4.90392 -10.02729,-11.82322 -14.5777,-16.97019 -6.05819,-6.85243 -18.38524,-18.61472 -19.50849,-18.61472 -0.35176,0 -0.74622,-0.27133 -0.8766,-0.60295 -0.26492,-0.67389 -9.35105,-6.50812 -10.13564,-6.50812 -0.27528,0 -2.16069,-0.77602 -4.1898,-1.72449 -2.02911,-0.94847 -4.64927,-1.88829 -5.8226,-2.08848 -1.17333,-0.2002 -4.53331,-0.89144 -7.46663,-1.5361 -2.93332,-0.64466 -6.2933,-1.32874 -7.46663,-1.52019 -1.17333,-0.19145 -2.77332,-0.46785 -3.55554,-0.61423 -0.78222,-0.14638 -2.62221,-0.44247 -4.08887,-0.65798 -4.55674,-0.66955 -7.94145,-1.19981 -9.42217,-1.47611 -1.44531,-0.26969 -5.94914,-1.01959 -8.53329,-1.42081 -0.78222,-0.12145 -1.58222,-0.28537 -1.77777,-0.36429 -0.19556,-0.0789 -0.57487,-0.11247 -0.84291,-0.0746 -0.26805,0.0379 -1.82212,-0.40204 -3.45348,-0.97762 -1.63137,-0.57558 -3.25205,-0.8698 -3.60151,-0.65381 -0.34947,0.21597 -0.63539,0.0196 -0.63539,-0.43647 0,-0.45603 -0.48,-0.64497 -1.06666,-0.41984 -0.58667,0.22513 -1.06666,0.0651 -1.06666,-0.35555 0,-0.42068 -0.48,-0.58068 -1.06667,-0.35555 -0.58666,0.22512 -1.06666,0.0651 -1.06666,-0.35556 0,-0.42068 -0.48,-0.58068 -1.06666,-0.35555 -0.58666,0.22512 -1.06666,0.0651 -1.06666,-0.35555 0,-0.42069 -0.48,-0.58069 -1.06666,-0.35556 -0.58667,0.22512 -1.06666,0.14095 -1.06666,-0.18706 0,-0.328 -1.44,-0.99954 -3.19999,-1.49231 -1.75999,-0.49277 -3.19998,-1.13967 -3.19998,-1.43754 0,-0.29788 -0.8,-0.74239 -1.77777,-0.98779 -0.97777,-0.24541 -1.77777,-0.7601 -1.77777,-1.14376 0,-0.38365 -0.34285,-0.69756 -0.7619,-0.69756 -0.41905,0 -1.16837,-0.4 -1.66516,-0.88888 -0.49679,-0.48889 -1.96475,-1.68888 -3.26214,-2.66665 -3.3075,-2.4927 -11.37738,-10.58272 -11.37738,-11.40579 0,-0.37567 -0.33888,-0.68304 -0.75308,-0.68304 -0.41419,0 -0.5553,-0.32 -0.31358,-0.71111 0.24172,-0.39111 0.1006,-0.71111 -0.31359,-0.71111 -0.41419,0 -0.75307,-0.40935 -0.75307,-0.90968 0,-0.50032 -0.64,-1.37095 -1.42222,-1.93475 -0.78222,-0.56379 -1.42221,-1.43443 -1.42221,-1.93475 0,-0.50032 -0.32,-0.90968 -0.71111,-0.90968 -0.39111,0 -0.71111,-0.40571 -0.71111,-0.90159 0,-0.49587 -0.78528,-2.05724 -1.74508,-3.46971 -0.95979,-1.41246 -1.54646,-2.76674 -1.3037,-3.0095 0.24276,-0.24276 0.10964,-0.44138 -0.29582,-0.44138 -0.40547,0 -1.14038,-1.43999 -1.63315,-3.19999 -0.49277,-1.75999 -1.16431,-3.19998 -1.49231,-3.19998 -0.32801,0 -0.41219,-0.48 -0.18706,-1.06666 0.22512,-0.58667 0.0651,-1.06666 -0.35556,-1.06666 -0.42067,0 -0.58067,-0.48 -0.35555,-1.06666 0.22512,-0.58667 0.13508,-1.06689 -0.20009,-1.06717 -0.54563,-4.5e-4 -0.81968,-1.21659 -1.16167,-5.15503 -0.0594,-0.68444 -0.30358,-1.24443 -0.54255,-1.24443 -0.23897,0 -0.35613,-2.79999 -0.26036,-6.22219 0.0958,-3.42221 0.22191,-6.2222 0.28031,-6.2222 0.0584,0 0.23712,-0.79999 0.39716,-1.77776 0.42927,-2.62263 0.72508,-3.69237 1.63509,-5.91294 0.45121,-1.101 0.82037,-2.301 0.82037,-2.66665 0,-0.36564 0.33889,-0.66481 0.75308,-0.66481 0.41419,0 0.5553,-0.32 0.31359,-0.71111 -0.24172,-0.39111 -0.18061,-0.71478 0.1358,-0.71926 0.31642,-0.004 1.18161,-1.27385 1.92265,-2.82081 0.74105,-1.54696 1.94104,-3.4499 2.66666,-4.22876 0.72561,-0.77885 1.3193,-1.5917 1.3193,-1.80632 0,-0.60738 9.89669,-10.33586 10.51457,-10.33586 0.30205,0 1.01047,-0.64 1.57426,-1.42222 0.56379,-0.78222 1.36378,-1.42221 1.77777,-1.42221 0.41398,0 1.21397,-0.64 1.77777,-1.42222 0.56379,-0.78222 1.40776,-1.42221 1.87549,-1.42221 0.46773,0 0.95708,-0.27289 1.08745,-0.60642 0.32316,-0.82674 15.14201,-10.0602 16.14569,-10.0602 0.44131,0 0.80238,-0.29457 0.80238,-0.6546 0,-0.36003 0.95999,-0.86546 2.13332,-1.12316 1.17333,-0.25771 2.13332,-0.76314 2.13332,-1.12317 0,-0.36003 0.48,-0.6546 1.06666,-0.6546 0.58667,0 1.06667,-0.33889 1.06667,-0.75308 0,-0.41419 0.31999,-0.5553 0.7111,-0.31358 0.39111,0.24171 0.71111,0.0663 0.71111,-0.38967 0,-0.45603 0.48,-0.64497 1.06666,-0.41984 0.58667,0.22512 1.06666,0.0994 1.06666,-0.27947 0,-0.37884 0.48,-0.68879 1.06666,-0.68879 0.58667,0 1.06667,-0.32 1.06667,-0.71111 0,-0.39111 0.23999,-0.6765 0.53333,-0.6342 1.07419,0.1549 3.73331,-0.97195 3.73331,-1.58206 0,-0.34549 0.24,-0.57875 0.53333,-0.51835 0.29333,0.0604 1.81333,-0.47904 3.37776,-1.19876 1.56444,-0.71973 3.08443,-1.24915 3.37776,-1.17649 0.29334,0.0727 0.53333,-0.16247 0.53333,-0.5225 0,-0.36003 0.96,-0.86546 2.13333,-1.12316 1.17332,-0.25771 2.13332,-0.76314 2.13332,-1.12317 0,-0.36003 0.24,-0.60293 0.53333,-0.53977 0.29333,0.0631 1.43415,-0.25684 2.53517,-0.71111 1.10101,-0.45426 2.301,-0.82594 2.66665,-0.82594 0.36565,0 0.66482,-0.32 0.66482,-0.7111 0,-0.39111 0.24,-0.66169 0.53333,-0.60129 0.29333,0.0604 1.81332,-0.47904 3.37776,-1.19876 1.56444,-0.71973 3.08443,-1.24915 3.37776,-1.17649 0.29333,0.0727 0.53333,-0.18789 0.53333,-0.579 0,-0.39111 0.37896,-0.71111 0.84215,-0.71111 0.46318,0 2.30317,-0.68138 4.08887,-1.51418 19.45555,-9.07352 45.74679,-22.0598 46.34823,-22.8932 0.23928,-0.33157 0.63194,-0.60357 0.87259,-0.60443 1.35442,-0.005 3.31455,-0.84703 3.31455,-1.42408 0,-0.36857 0.32,-0.47236 0.71111,-0.23064 0.39111,0.24172 0.71111,0.12603 0.71111,-0.25709 0,-0.38312 0.95999,-0.90742 2.13332,-1.16513 1.17333,-0.2577 2.13332,-0.7377 2.13332,-1.06666 0,-0.32896 0.96,-0.80896 2.13332,-1.06666 1.17333,-0.25771 2.13333,-0.76313 2.13333,-1.12317 0,-0.36002 0.23999,-0.61999 0.53333,-0.57769 1.1092,0.15995 3.73331,-0.98157 3.73331,-1.62403 0,-0.36858 0.32,-0.47237 0.71111,-0.23065 0.39111,0.24172 0.71111,0.12603 0.71111,-0.25709 0,-0.38311 0.95999,-0.90742 2.13332,-1.16512 1.17333,-0.25771 2.13332,-0.76314 2.13332,-1.12317 0,-0.36003 0.24,-0.61999 0.53333,-0.5777 1.17013,0.16873 3.73332,-0.99883 3.73332,-1.70057 0,-0.41068 0.20387,-0.54281 0.45306,-0.29363 0.24918,0.24919 1.3253,-0.16803 2.39137,-0.92713 1.06607,-0.75911 2.14218,-1.17632 2.39137,-0.92714 0.24918,0.24919 0.45306,0.10516 0.45306,-0.32006 0,-0.42521 0.95999,-0.98397 2.13332,-1.24168 1.17333,-0.25771 2.13332,-0.76313 2.13332,-1.12317 0,-0.36002 0.24,-0.61999 0.53333,-0.57769 1.17013,0.16873 3.73332,-0.99884 3.73332,-1.70058 0,-0.41068 0.20387,-0.54281 0.45306,-0.29362 0.24919,0.24918 1.3253,-0.16803 2.39137,-0.92714 1.06607,-0.75911 2.14218,-1.17632 2.39137,-0.92713 0.24918,0.24918 0.45306,0.0455 0.45306,-0.45265 0,-0.51292 0.46259,-0.72819 1.06666,-0.49638 0.58666,0.22512 1.06666,0.12478 1.06666,-0.22298 0,-0.34776 0.96,-0.84314 2.13332,-1.10084 1.17333,-0.257708 2.13333,-0.737706 2.13333,-1.066664 0,-0.328959 0.95999,-0.808956 2.13332,-1.066662 1.17333,-0.257705 2.13332,-0.763132 2.13332,-1.123166 0,-0.360026 0.24,-0.605181 0.53333,-0.544779 0.29333,0.06044 1.81333,-0.479037 3.37776,-1.198763 1.56444,-0.719726 3.08443,-1.249145 3.37776,-1.176488 0.29334,0.07266 0.53334,-0.162468 0.53334,-0.522502 0,-0.360033 0.95999,-0.865456 2.13332,-1.123162 1.17333,-0.257706 2.13332,-0.763129 2.13332,-1.123162 0,-0.360034 0.24,-0.602933 0.53333,-0.539776 0.29333,0.06315 1.43416,-0.256842 2.53517,-0.711107 1.10101,-0.454267 2.301,-0.825939 2.66665,-0.825939 0.36565,0 0.66482,-0.319998 0.66482,-0.711108 0,-0.391109 0.24,-0.661685 0.53333,-0.601281 0.29333,0.0604 1.81332,-0.47904 3.37776,-1.198766 1.56444,-0.719725 3.08443,-1.249145 3.37776,-1.176487 0.29333,0.07266 0.53333,-0.13723 0.53333,-0.466416 0,-0.329186 1.91999,-1.179846 4.26665,-1.890356 2.34665,-0.710511 4.26664,-1.519583 4.26664,-1.79794 0,-0.278357 1.44,-0.909277 3.19999,-1.402044 1.75999,-0.492767 3.19998,-1.174352 3.19998,-1.514632 0,-0.34028 0.24,-0.567889 0.53333,-0.505796 0.54785,0.115966 1.54896,-0.243949 5.86664,-2.109147 1.36888,-0.591345 2.64887,-1.133024 2.84443,-1.203732 0.19555,-0.0707 1.47555,-0.626515 2.84443,-1.235126 1.36888,-0.608612 3.84887,-1.510333 5.51108,-2.003825 1.66222,-0.493493 3.02221,-1.110267 3.02221,-1.370611 0,-0.260343 2.39999,-1.226025 5.33331,-2.14596 2.93332,-0.919935 5.3333,-1.926225 5.3333,-2.236201 0,-0.309976 0.48,-0.379401 1.06666,-0.154276 0.58667,0.225123 1.06667,0.11806 1.06667,-0.237917 0,-0.355978 3.35998,-1.733188 7.46663,-3.060466 4.10664,-1.327278 7.46662,-2.660209 7.46662,-2.962068 0,-0.301858 0.48,-0.364642 1.06667,-0.139517 0.58666,0.225123 1.06666,0.05508 1.06666,-0.377872 0,-0.432954 0.24,-0.749294 0.53333,-0.702979 0.29333,0.04631 0.77333,0.0063 1.06666,-0.08889 0.29333,-0.0952 0.77333,-0.240736 1.06666,-0.323403 0.29333,-0.08267 1.01333,-0.362952 1.59999,-0.622856 3.75769,-1.66473 30.89069,-10.317237 31.38852,-10.009561 0.33622,0.2078 0.61132,0.0047 0.61132,-0.451336 0,-0.456035 0.48,-0.644963 1.06666,-0.419839 0.58667,0.225124 1.06667,0.06512 1.06667,-0.355554 0,-0.420678 0.44871,-0.592682 0.99713,-0.382232 0.54843,0.210451 1.21509,0.164688 1.48148,-0.101696 0.26638,-0.266384 0.77767,-0.524334 1.13618,-0.573223 0.35852,-0.04889 0.73185,-0.153372 0.82963,-0.232184 0.0978,-0.07881 0.65777,-0.241771 1.24444,-0.362129 0.58666,-0.120358 2.50665,-0.612913 4.26664,-1.094567 1.75999,-0.481655 3.59072,-0.936098 4.06829,-1.009875 0.47757,-0.07378 1.06884,-0.334685 1.31396,-0.579798 0.24511,-0.245111 0.89437,-0.27347 1.4428,-0.06302 0.54842,0.210451 0.99713,0.0095 0.99713,-0.446517 0,-0.456036 0.28246,-0.65459 0.62768,-0.441231 0.34522,0.213358 2.39836,-0.221278 4.56251,-0.965859 2.16417,-0.744581 4.07178,-1.216844 4.23916,-1.049472 0.16737,0.167371 1.66829,-0.17693 3.33538,-0.765114 1.6671,-0.588183 3.29489,-0.906379 3.61733,-0.7071 0.32244,0.199277 0.79047,0.03189 1.04008,-0.371983 0.24961,-0.403868 0.71764,-0.57126 1.04008,-0.371982 0.32244,0.199278 1.87139,-0.0911 3.44211,-0.645281 1.57072,-0.554183 3.00041,-0.863055 3.17708,-0.686383 0.17667,0.176672 1.20478,-0.01471 2.28469,-0.425286 1.07991,-0.41058 3.12428,-0.927189 4.54304,-1.14802 4.59922,-0.715866 5.42401,-0.868937 5.42401,-1.006625 0,-0.0745 0.96,-0.219543 2.13332,-0.322323 1.17333,-0.102781 2.13333,-0.25516 2.13333,-0.338622 0,-0.08346 0.63999,-0.251116 1.42221,-0.372565 0.78222,-0.12145 2.70221,-0.439035 4.26665,-0.705745 5.12139,-0.873113 5.65246,-0.953881 9.06662,-1.378881 1.85777,-0.231259 4.89775,-0.611877 6.75552,-0.845819 5.54852,-0.698703 8.03634,-0.933024 14.75548,-1.389777 8.2704,-0.562205 33.92536,-0.852025 34.8229,-0.39339 0.37935,0.193848 2.61934,0.428622 4.97775,0.521719 4.56813,0.180325 10.96265,0.778047 13.88797,1.298164 1.92252,0.341822 6.59826,1.115872 8.88885,1.471513 0.78222,0.12145 1.42221,0.269532 1.42221,0.329071 0,0.05954 0.8,0.239195 1.77777,0.399234 3.19159,0.52239 3.89863,0.709901 4.79998,1.272986 0.48888,0.305416 1.20888,0.357532 1.59999,0.115813 0.39111,-0.241719 0.71111,-0.120492 0.71111,0.269392 0,0.389884 0.55999,0.671044 1.24443,0.6248 1.41475,-0.09559 12.92699,3.598726 14.10981,4.527878 0.42709,0.335503 0.98709,0.399449 1.24444,0.142103 0.25734,-0.257348 0.4679,-0.06034 0.4679,0.437802 0,0.512919 0.46259,0.728194 1.06666,0.49639 0.58666,-0.225124 1.06666,-0.140948 1.06666,0.187057 0,0.328006 1.43999,0.999546 3.19998,1.492313 1.76,0.492767 3.19999,1.227685 3.19999,1.63315 0,0.405465 0.20387,0.533331 0.45306,0.284147 0.24919,-0.249184 1.3253,0.168026 2.39137,0.927134 1.06607,0.759107 2.14218,1.176317 2.39137,0.927133 0.24918,-0.249184 0.45306,-0.07973 0.45306,0.376564 0,0.456294 0.48,0.829625 1.06666,0.829625 0.58666,0 1.06666,0.294573 1.06666,0.654607 0,0.360033 0.96,0.865456 2.13332,1.123162 1.17333,0.257706 2.13333,0.695904 2.13333,0.973775 0,0.277869 1.59999,1.439663 3.55553,2.581763 1.95555,1.1421 3.55554,2.32932 3.55554,2.638265 0,0.308945 0.34286,0.561719 0.7619,0.561719 0.41905,0 1.16837,0.399998 1.66516,0.888884 0.49679,0.488887 1.97161,1.688881 3.27737,2.666654 1.30576,0.977773 3.42576,2.817764 4.71111,4.088868 1.28535,1.271105 2.52033,2.3111 2.74441,2.3111 0.76884,0 5.89434,5.597443 5.493,5.998783 -0.22066,0.220652 0.13215,0.401185 0.78399,0.401185 0.65185,0 1.18518,0.272538 1.18518,0.60564 0,0.333102 0.96,1.610183 2.13332,2.837958 1.17333,1.227775 2.13333,2.484586 2.13333,2.792914 0,0.308328 0.63999,1.02188 1.42221,1.585671 0.78222,0.563791 1.42222,1.43443 1.42222,1.934752 0,0.500323 0.24,0.916028 0.53333,0.923789 0.29333,0.0078 1.47946,1.607753 2.63585,3.555538 1.15638,1.947785 2.32168,3.541427 2.58956,3.541427 0.26787,0 0.66935,0.726364 0.89217,1.614142 0.22282,0.887779 1.01835,2.272372 1.76787,3.076874 0.74951,0.804502 1.60501,2.238127 1.90113,3.185833 0.29611,0.947704 0.73849,1.883102 0.98307,2.078657 0.73364,0.586599 4.34138,8.129553 4.34138,9.076833 0,0.48327 0.27842,0.87868 0.6187,0.87868 0.34027,0 1.02186,1.43999 1.51463,3.19998 0.49277,1.75999 1.16431,3.19998 1.49231,3.19998 0.32801,0 0.41218,0.48 0.18706,1.06667 -0.23181,0.60407 -0.0165,1.06666 0.49639,1.06666 0.49814,0 0.69515,0.21056 0.4378,0.4679 -0.25734,0.25735 -0.19354,0.81735 0.14178,1.24444 0.83358,1.06171 6.52028,18.36089 6.84767,20.8309 0.14507,1.09448 0.75683,3.37065 1.35946,5.05815 0.60264,1.6875 1.06471,3.28749 1.02682,3.55554 -0.0379,0.26804 -0.004,0.64735 0.0746,0.84291 0.0789,0.19555 0.24284,0.99555 0.36429,1.77777 0.48087,3.09714 1.17279,7.20097 1.49868,8.88884 0.33682,1.74444 0.98273,10.00828 1.05604,13.51104 0.10721,5.12319 -1.19651,16.24981 -2.21918,18.93965 -0.37678,0.991 -0.50388,2.09497 -0.28244,2.45326 0.22144,0.35828 0.0448,0.65143 -0.39244,0.65143 -0.43727,0 -0.62174,0.28039 -0.40994,0.62309 0.32483,0.52559 -2.09438,8.66476 -3.61934,12.17684 -0.25473,0.58667 -0.41235,1.30666 -0.35026,1.6 0.0621,0.29333 -0.24133,0.53333 -0.67429,0.53333 -0.43295,0 -0.603,0.47999 -0.37787,1.06666 0.22512,0.58666 0.12479,1.06666 -0.22297,1.06666 -0.34776,0 -0.84314,0.96 -1.10085,2.13332 -0.2577,1.17333 -0.75308,2.13333 -1.10084,2.13333 -0.34776,0 -0.4481,0.47999 -0.22298,1.06666 0.22513,0.58666 0.0362,1.06666 -0.41983,1.06666 -0.45604,0 -0.66134,0.27153 -0.45623,0.60342 0.20511,0.33187 -0.27233,1.29601 -1.06097,2.14252 -0.78865,0.84652 -1.23869,1.85497 -1.0001,2.24102 0.23859,0.38605 0.0949,0.7019 -0.31928,0.7019 -0.41419,0 -0.75307,0.48 -0.75307,1.06666 0,0.58666 -0.29458,1.06666 -0.65461,1.06666 -0.36003,0 -0.86607,0.96279 -1.12453,2.13953 -0.25845,1.17674 -0.7275,1.98034 -1.04231,1.78576 -0.53922,-0.33325 -1.68885,2.20722 -1.52211,3.36356 0.0423,0.29334 -0.24309,0.53333 -0.6342,0.53333 -0.39111,0 -0.7111,0.48 -0.7111,1.06667 0,0.58666 -0.25277,1.06666 -0.56172,1.06666 -0.30895,0 -1.49617,1.59999 -2.63827,3.55553 -1.1421,1.95555 -2.32932,3.55554 -2.63826,3.55554 -0.30895,0 -0.56172,0.31635 -0.56172,0.70298 0,0.66025 -1.35059,2.52309 -3.37776,4.65889 -0.48889,0.51508 -0.88889,1.14223 -0.88889,1.39365 0,0.25143 -0.4,0.86146 -0.88888,1.35562 -0.48889,0.49416 -1.52888,1.78565 -2.3111,2.86998 -0.78222,1.08434 -2.62221,3.20466 -4.08887,4.71184 -1.46666,1.50718 -2.66665,3.00217 -2.66665,3.32221 0,0.32003 -0.64,1.04316 -1.42222,1.60695 -0.78222,0.5638 -1.42221,1.45331 -1.42221,1.97672 0,0.52341 -0.32,0.75388 -0.71111,0.51216 -0.39111,-0.24172 -0.71111,-0.0777 -0.71111,0.36438 0,1.03814 -1.79747,2.8356 -2.8356,2.8356 -0.44213,0 -0.6061,0.32 -0.36438,0.71111 0.24172,0.39111 -0.0594,0.71111 -0.66914,0.71111 -0.60975,0 -1.10863,0.49888 -1.10863,1.10863 0,0.60974 -0.32,0.91086 -0.71111,0.66914 -0.39111,-0.24172 -0.71111,-0.0777 -0.71111,0.36437 0,1.03814 -1.79746,2.83561 -2.8356,2.83561 -0.44213,0 -0.6061,0.32 -0.36438,0.71111 0.24172,0.39111 -0.0594,0.71111 -0.66914,0.71111 -0.60974,0 -1.10863,0.49888 -1.10863,1.10863 0,0.60974 -0.32,0.91085 -0.71111,0.66913 -0.39111,-0.24172 -0.7111,-0.0777 -0.7111,0.36438 0,0.86156 -1.73267,2.83561 -2.48888,2.83561 -0.75621,0 -2.48888,1.97405 -2.48888,2.8356 0,0.44213 -0.32,0.6061 -0.71111,0.36438 -0.3911,-0.24172 -0.7111,0.0594 -0.7111,0.66914 0,0.60975 -0.49889,1.10863 -1.10863,1.10863 -0.60975,0 -0.91086,0.32 -0.66914,0.71111 0.24172,0.39111 0.069,0.71111 -0.38384,0.71111 -0.45283,0 -1.72009,0.95999 -2.81615,2.13332 -1.09605,1.17333 -2.34443,2.13332 -2.77418,2.13332 -0.42974,0 -0.78135,0.53333 -0.78135,1.18518 0,0.65185 -0.19915,0.98604 -0.44254,0.74264 -0.2434,-0.2434 -1.62709,0.74327 -3.07486,2.19258 -1.44777,1.44932 -3.69127,3.43512 -4.98556,4.41289 -1.29428,0.97778 -2.90792,2.25777 -3.58587,2.84443 -0.67795,0.58667 -2.28596,1.86666 -3.57336,2.84443 -1.2874,0.97778 -2.77005,2.20062 -3.29477,2.71745 -0.52473,0.51682 -0.95406,0.75995 -0.95406,0.54029 0,-0.38415 -1.98642,1.11057 -3.93964,2.96445 -0.51509,0.48889 -1.11572,0.88889 -1.33474,0.88889 -0.39708,0 -2.57745,1.69145 -4.35413,3.37776 -0.51508,0.48889 -1.20872,0.88888 -1.54143,0.88888 -0.3327,0 -1.0662,0.64 -1.62999,1.42222 -0.5638,0.78222 -1.43443,1.42221 -1.93475,1.42221 -0.50033,0 -0.90968,0.31391 -0.90968,0.69756 0,0.38366 -0.8,0.89835 -1.77777,1.14376 -0.97777,0.2454 -1.77777,0.73149 -1.77777,1.08021 0,0.3487 -0.40936,0.63401 -0.90968,0.63401 -0.50032,0 -1.37095,0.64 -1.93475,1.42222 -0.56379,0.78221 -1.43443,1.42221 -1.93475,1.42221 -0.50032,0 -0.90968,0.32 -0.90968,0.71111 0,0.39111 -0.48,0.71111 -1.06666,0.71111 -0.58666,0 -1.06666,0.33888 -1.06666,0.75307 0,0.4142 -0.32,0.55531 -0.71111,0.31359 -0.39111,-0.24172 -0.71111,-0.10061 -0.71111,0.31358 0,0.41419 -0.47999,0.75308 -1.06666,0.75308 -0.58666,0 -1.06666,0.32 -1.06666,0.71111 0,0.39111 -0.48,0.7111 -1.06666,0.7111 -0.58667,0 -1.07301,0.24 -1.08077,0.53334 -0.008,0.29333 -1.60776,1.47945 -3.55554,2.63584 -1.94779,1.15639 -3.54143,2.32169 -3.54143,2.58957 0,0.26787 -0.72636,0.66935 -1.61414,0.89217 -0.88778,0.22281 -2.26659,0.97751 -3.06401,1.67708 -1.35927,1.19248 -2.53107,1.89916 -8.29956,5.00527 -1.27111,0.68444 -2.41777,1.48444 -2.54813,1.77777 -0.13038,0.29333 -0.69038,0.53333 -1.24444,0.53333 -0.55408,0 -1.00741,0.33889 -1.00741,0.75308 0,0.41419 -0.32,0.5553 -0.7111,0.31358 -0.39111,-0.24172 -0.71111,-0.10061 -0.71111,0.31359 0,0.41419 -0.48,0.75307 -1.06666,0.75307 -0.58667,0 -1.06667,0.32 -1.06667,0.71111 0,0.39111 -0.40571,0.71111 -0.90159,0.71111 -0.49587,0 -2.05724,0.78528 -3.4697,1.74508 -1.41246,0.95979 -2.76675,1.54646 -3.0095,1.3037 -0.24277,-0.24277 -0.44139,-0.068 -0.44139,0.38824 0,0.45629 -0.48,0.82962 -1.06666,0.82962 -0.58666,0 -1.06666,0.29458 -1.06666,0.65461 0,0.36003 -0.96,0.86546 -2.13332,1.12316 -1.17333,0.25771 -2.13333,0.75703 -2.13333,1.10962 0,0.35258 -0.79999,0.84184 -1.77777,1.08725 -0.97777,0.2454 -1.77776,0.70607 -1.77776,1.0237 0,0.31764 -0.96,0.78837 -2.13333,1.04608 -1.17332,0.2577 -2.13332,0.69297 -2.13332,0.96726 0,0.54238 -4.2877,2.4764 -5.15553,2.32548 -0.29333,-0.051 -0.53333,0.19255 -0.53333,0.54126 0,0.34871 -0.87679,0.85408 -1.94842,1.12304 -1.07163,0.26897 -2.11163,0.70689 -2.3111,0.97317 -0.56896,0.75953 -8.834,4.75403 -9.4293,4.5572 -0.29333,-0.097 -0.53333,0.11822 -0.53333,0.47825 0,0.36003 -0.96,0.86546 -2.13332,1.12317 -1.17333,0.2577 -2.13333,0.7377 -2.13333,1.06666 0,0.32896 -0.95999,0.80895 -2.13332,1.06666 -1.17333,0.2577 -2.13332,0.76313 -2.13332,1.12317 0,0.36002 -0.24,0.59515 -0.53333,0.5225 -0.29333,-0.0727 -1.81333,0.45675 -3.37776,1.17648 -1.56444,0.71973 -3.08443,1.25917 -3.37776,1.19876 -0.29334,-0.0604 -0.53333,0.24441 -0.53333,0.67737 0,0.43295 -0.48,0.603 -1.06667,0.37787 -0.58666,-0.22512 -1.06666,-0.14095 -1.06666,0.18706 0,0.328 -1.43999,0.99954 -3.19998,1.49231 -1.75999,0.49277 -3.19999,1.17435 -3.19999,1.51463 0,0.34028 -0.23999,0.56702 -0.53333,0.50386 -0.29333,-0.0631 -1.43415,0.25684 -2.53517,0.71111 -1.101,0.45426 -2.301,0.82594 -2.66665,0.82594 -0.36564,0 -0.66481,0.30996 -0.66481,0.68879 0,0.37883 -0.48,0.5046 -1.06666,0.27947 -0.58667,-0.22513 -1.06667,-0.0362 -1.06667,0.41984 0,0.45604 -0.29789,0.64506 -0.66197,0.42004 -0.36408,-0.22502 -0.83584,-0.1278 -1.04834,0.21603 -0.21251,0.34385 -1.83461,1.03065 -3.60467,1.52624 -1.77007,0.49558 -3.21831,1.16944 -3.21831,1.49744 0,0.32801 -0.47999,0.41218 -1.06666,0.18706 -0.60407,-0.23181 -1.06666,-0.0165 -1.06666,0.49639 0,0.49814 -0.21056,0.69515 -0.4679,0.4378 -0.25735,-0.25734 -0.89735,-0.1115 -1.42222,0.32411 -0.52487,0.4356 -0.95431,0.55364 -0.95431,0.26231 0,-0.29133 -0.48,-0.13133 -1.06666,0.35555 -0.58666,0.48689 -1.06666,0.64689 -1.06666,0.35556 0,-0.29134 -0.43962,-0.16485 -0.97693,0.28108 -0.85328,0.70816 -30.66048,10.69518 -32.95788,11.04266 -0.47756,0.0722 -1.06884,0.33188 -1.31395,0.57699 -0.24512,0.24511 -0.89438,0.27347 -1.44281,0.063 -0.54842,-0.21046 -0.99713,-0.01 -0.99713,0.44651 0,0.45604 -0.28245,0.65459 -0.62768,0.44123 -0.34522,-0.21336 -2.46275,0.24344 -4.70563,1.0151 -2.24288,0.77167 -4.36041,1.22846 -4.70563,1.0151 -0.34522,-0.21335 -0.62768,-0.0148 -0.62768,0.44124 0,0.45604 -0.44871,0.65697 -0.99713,0.44652 -0.54843,-0.21045 -1.18791,-0.19186 -1.42108,0.0413 -0.45832,0.45831 -3.57142,1.01543 -5.58175,0.9989 -0.68444,-0.006 -1.24443,0.22131 -1.24443,0.5043 0,0.28299 -0.56,0.54444 -1.24444,0.58098 -0.68444,0.0366 -2.52443,0.29277 -4.08887,0.56939 -1.56444,0.27663 -3.48443,0.60863 -4.26665,0.73779 -0.78221,0.12916 -1.42221,0.28598 -1.42221,0.3485 0,0.23729 -2.98906,0.71928 -6.75552,1.08935 -6.67563,0.65589 -8.88885,0.912 -8.88885,1.02857 0,0.0618 -3.43874,0.23201 -7.64165,0.37821 -4.20291,0.1462 -7.91826,0.43676 -8.25633,0.6457 -0.33807,0.20895 -0.77022,0.22435 -0.96032,0.0343 z m 27.52492,-45.41092 c 1.56443,-0.20525 4.12442,-0.56948 5.68886,-0.80942 1.56443,-0.23993 3.53256,-0.54031 4.37363,-0.66751 0.84105,-0.12719 2.12105,-0.41541 2.84443,-0.64049 0.72337,-0.22506 2.56863,-0.60496 4.10057,-0.84422 1.53193,-0.23925 3.49902,-0.70634 4.3713,-1.03798 0.87228,-0.33164 1.72895,-0.46 1.90371,-0.28524 0.17476,0.17476 1.62195,-0.1424 3.21597,-0.7048 1.59403,-0.5624 3.82592,-1.16876 4.95977,-1.34746 1.13386,-0.17869 4.91955,-1.19942 8.41265,-2.26827 3.49311,-1.06886 6.83109,-2.04143 7.41776,-2.16127 0.58666,-0.11984 1.14666,-0.28238 1.24444,-0.36119 0.0978,-0.0788 0.41777,-0.19734 0.7111,-0.26339 5.25129,-1.18245 7.99996,-2.1225 7.99996,-2.73601 0,-0.41728 0.21056,-0.54814 0.46791,-0.29079 0.25735,0.25734 0.89734,0.11149 1.42221,-0.32411 0.52488,-0.4356 0.95431,-0.55365 0.95431,-0.26231 0,0.29133 0.48,0.13133 1.06667,-0.35556 0.58666,-0.48688 1.06666,-0.64688 1.06666,-0.35555 0,0.29133 0.39999,0.2133 0.88888,-0.17339 0.48889,-0.3867 4.08887,-1.74255 7.99996,-3.013 3.91109,-1.27045 7.75107,-2.70471 8.53329,-3.18725 0.78222,-0.48254 2.70221,-1.29089 4.26665,-1.79634 1.56443,-0.50545 4.76442,-1.79336 7.11107,-2.86204 5.54743,-2.52633 6.99579,-3.08477 7.64441,-2.94747 0.29333,0.0621 0.53333,-0.20711 0.53333,-0.59821 0,-0.39111 0.37896,-0.71111 0.84215,-0.71111 0.46318,0 2.30317,-0.67412 4.08887,-1.49804 5.75168,-2.65382 29.54586,-14.46042 29.91325,-14.84287 0.19555,-0.20356 1.95555,-1.17012 3.91109,-2.14789 1.95555,-0.97777 3.71578,-1.93777 3.91163,-2.13332 0.19585,-0.19556 1.31584,-0.86964 2.48888,-1.49796 5.86189,-3.13988 7.13775,-3.8701 7.46555,-4.27284 0.19585,-0.24061 1.07609,-0.66217 1.95608,-0.9368 0.88,-0.27462 1.6,-0.79775 1.6,-1.16251 0,-0.36474 0.33553,-0.66318 0.74562,-0.66318 0.92153,0 18.00798,-10.73616 18.33576,-11.52116 0.13037,-0.31222 0.69037,-0.56767 1.24444,-0.56767 0.55407,0 1.0074,-0.32 1.0074,-0.71111 0,-0.39111 0.48,-0.71111 1.06666,-0.71111 0.58667,0 1.06667,-0.24723 1.06667,-0.5494 0,-0.30216 1.11999,-1.15255 2.48887,-1.88974 1.36888,-0.7372 2.48888,-1.60996 2.48888,-1.93948 0,-0.32952 0.48,-0.59913 1.06666,-0.59913 0.58666,0 1.06666,-0.32 1.06666,-0.71111 0,-0.39111 0.31635,-0.7111 0.70298,-0.7111 0.65453,0 1.25698,-0.43634 5.15457,-3.73332 0.80913,-0.68444 1.66218,-1.24483 1.89566,-1.2453 0.23349,-4.8e-4 1.26184,-0.72048 2.28523,-1.6 1.02339,-0.87952 2.90603,-2.39912 4.18366,-3.37689 3.94236,-3.0171 10.52748,-8.74075 17.99901,-15.64437 10.86462,-10.03879 18.3926,-18.24694 26.08971,-28.44699 0.97777,-1.29572 2.17777,-2.76232 2.66665,-3.25911 0.48889,-0.49679 0.88889,-1.24612 0.88889,-1.66516 0,-0.41905 0.32,-0.7619 0.71111,-0.7619 0.39111,0 0.7111,-0.48 0.7111,-1.06666 0,-0.58666 0.24724,-1.06666 0.54941,-1.06666 0.30216,0 1.1791,-1.2 1.94873,-2.66665 0.76964,-1.46666 1.56407,-2.82666 1.76541,-3.02221 0.73666,-0.7155 7.60227,-15.14409 8.20545,-17.24436 0.0842,-0.29333 0.23316,-0.69333 0.33094,-0.88888 0.0978,-0.19556 0.25778,-0.67556 0.35555,-1.06667 0.0978,-0.3911 0.25778,-0.8711 0.35556,-1.06666 0.0978,-0.19555 0.25777,-0.67555 0.35555,-1.06666 0.0978,-0.39111 0.25778,-0.87111 0.35556,-1.06666 0.0978,-0.19555 0.21777,-0.64889 0.26666,-1.0074 0.0489,-0.35852 0.30684,-0.8698 0.57322,-1.13618 0.26639,-0.26639 0.31215,-0.93306 0.1017,-1.48148 -0.21045,-0.54842 -0.1084,-0.99737 0.22677,-0.99764 0.96013,-7.1e-4 1.1879,-3.02216 1.23294,-16.35497 0.0425,-12.5564 -0.22758,-15.72942 -1.65728,-19.47631 -0.43109,-1.12979 -0.61763,-2.22034 -0.41452,-2.42344 0.2031,-0.20311 0.0129,-0.79873 -0.42273,-1.3236 -0.43561,-0.52487 -0.55365,-0.95431 -0.26232,-0.95431 0.29134,0 0.13134,-0.48 -0.35555,-1.06666 -0.48689,-0.58666 -0.70725,-1.06666 -0.48968,-1.06666 0.34714,0 -3.7183,-12.81607 -4.96262,-15.64437 -0.25811,-0.58666 -0.52585,-1.22666 -0.59498,-1.42221 -1.68355,-4.76222 -8.796,-18.64634 -9.77487,-19.08139 -0.29333,-0.13037 -0.53333,-0.6637 -0.53333,-1.18518 0,-0.52148 -0.23999,-1.05481 -0.53333,-1.18518 -0.29333,-0.13037 -1.42265,-1.60427 -2.50962,-3.27533 -3.52802,-5.42392 -11.68477,-14.550281 -17.30454,-19.361592 -4.06213,-3.477751 -9.94111,-7.706347 -14.49678,-10.427155 -4.22312,-2.522202 -12.6544,-6.874895 -13.51104,-6.975148 -0.19555,-0.02288 -0.67555,-0.233621 -1.06666,-0.4683 -1.09628,-0.657807 -18.21612,-6.13338 -20.62212,-6.595734 -1.17333,-0.225476 -3.73331,-0.744229 -5.68886,-1.152785 -1.95555,-0.408556 -4.99325,-0.916397 -6.75045,-1.128537 -1.75719,-0.212139 -4.15718,-0.523965 -5.3333,-0.692947 -7.91491,-1.137191 -27.46481,-1.516789 -38.40489,-0.745705 -12.22729,0.861811 -14.18737,1.066755 -21.68878,2.267749 -0.97777,0.156544 -3.53776,0.483457 -5.68886,0.726473 -2.1511,0.243017 -4.07785,0.544301 -4.28167,0.66952 -0.20382,0.12522 -1.65662,0.419485 -3.22845,0.653921 -1.57183,0.234438 -3.64506,0.579587 -4.60717,0.766999 -0.96212,0.187412 -2.8693,0.533457 -4.23818,0.768989 -1.36888,0.235531 -4.00887,0.859508 -5.86664,1.386615 -1.85777,0.527107 -3.37776,0.823545 -3.37776,0.658751 0,-0.164793 -0.76739,-0.0079 -1.7053,0.348729 -0.93791,0.356593 -3.02409,0.845049 -4.63595,1.085456 -1.61186,0.240408 -4.17553,0.876322 -5.69704,1.413143 -1.52151,0.53682 -2.9013,0.84113 -3.06618,0.676242 -0.16489,-0.164887 -2.63317,0.493836 -5.48507,1.463829 -2.85189,0.969992 -6.0259,1.902985 -7.05334,2.073316 -1.02745,0.170331 -1.94808,0.376007 -2.04586,0.457056 -0.0978,0.08105 -0.49778,0.227363 -0.88889,0.32514 -0.3911,0.09778 -0.7911,0.241557 -0.88888,0.319508 -0.0978,0.07795 -0.97777,0.283278 -1.95555,0.45628 -3.15396,0.558043 -40.881,13.284615 -41.1124,13.868565 -0.12304,0.31051 -0.68304,0.388305 -1.24444,0.172878 -0.56139,-0.215428 -1.02072,0.01588 -1.02072,0.514019 0,0.498138 -0.21056,0.695152 -0.4679,0.437804 -0.25735,-0.257346 -0.81735,-0.193399 -1.24444,0.142103 -0.42709,0.335504 -3.49652,1.50039 -6.82095,2.588634 -3.32443,1.08825 -6.27951,2.330964 -6.56686,2.761584 -0.28734,0.43063 -0.52734,0.50378 -0.53333,0.16256 -0.006,-0.34122 -0.41088,-0.30292 -0.89977,0.0851 -0.48888,0.38803 -2.16888,1.10933 -3.73331,1.60288 -1.56444,0.49355 -3.48443,1.24391 -4.26665,1.66747 -0.78222,0.42355 -1.58221,0.81035 -1.77777,0.85957 -0.19555,0.0492 -1.47554,0.5733 -2.84443,1.16465 -2.41719,1.0442 -4.96508,2.0988 -5.68886,2.35467 -0.19555,0.0691 -1.49327,0.63504 -2.8838,1.25757 -1.39054,0.62253 -3.39053,1.34829 -4.44442,1.6128 -1.0539,0.26451 -1.91618,0.73155 -1.91618,1.03786 0,0.30631 -0.87999,0.77241 -1.95554,1.03579 -1.07555,0.26337 -3.63554,1.25805 -5.68886,2.21041 -2.05332,0.95235 -5.57331,2.56729 -7.82218,3.58874 -2.24888,1.02147 -5.3899,2.46146 -6.98004,3.19999 -1.59014,0.73853 -3.27013,1.34279 -3.73331,1.34279 -0.46319,0 -0.84215,0.32 -0.84215,0.71111 0,0.3911 -0.4,0.7123 -0.88889,0.71378 -0.48888,0.001 -2.80887,0.96026 -5.15553,2.13065 -2.34665,1.17038 -4.66664,2.12917 -5.15553,2.13064 -0.48888,0.001 -0.88888,0.32268 -0.88888,0.71379 0,0.3911 -0.36901,0.7111 -0.82002,0.7111 -0.45101,0 -2.931,1.01972 -5.51109,2.26604 -2.58008,1.24632 -4.93106,2.20631 -5.22439,2.13332 -0.29333,-0.073 -0.53333,0.16187 -0.53333,0.52189 0,0.36004 -0.95999,0.86546 -2.13332,1.12317 -1.17333,0.2577 -2.13332,0.76313 -2.13332,1.12316 0,0.36003 -0.36901,0.65461 -0.82003,0.65461 -0.451,0 -2.93099,1.01971 -5.51108,2.26603 -2.58008,1.24632 -4.93106,2.20631 -5.22439,2.13333 -0.29333,-0.073 -0.53333,0.16186 -0.53333,0.52188 0,0.36004 -0.96,0.86547 -2.13333,1.12317 -1.17332,0.25771 -2.13332,0.7377 -2.13332,1.06666 0,0.32896 -0.95999,0.80896 -2.13332,1.06666 -1.17333,0.25771 -2.13332,0.75309 -2.13332,1.10085 0,0.34776 -0.48,0.4481 -1.06667,0.22297 -0.58666,-0.22513 -1.06666,-0.0551 -1.06666,0.37787 0,0.43296 -0.47999,0.78719 -1.06666,0.78719 -0.58666,0 -1.06666,0.30996 -1.06666,0.68879 0,0.37883 -0.48,0.5046 -1.06666,0.27948 -0.58666,-0.22513 -1.06666,-0.0362 -1.06666,0.41983 0,0.45604 -0.32,0.63139 -0.71111,0.38967 -0.39111,-0.24172 -0.71111,-0.14219 -0.71111,0.22117 0,0.36336 -1.43999,1.06383 -3.19998,1.5566 -1.75999,0.49277 -3.19999,1.13276 -3.19999,1.42221 0,0.28945 -1.43999,0.92945 -3.19998,1.42222 -1.75999,0.49277 -3.19998,1.17435 -3.19998,1.51463 0,0.34028 -0.24,0.56701 -0.53333,0.50386 -0.29334,-0.0632 -1.43416,0.25684 -2.53517,0.71111 -1.10101,0.45426 -2.30101,0.82594 -2.66666,0.82594 -0.36564,0 -0.66481,0.31999 -0.66481,0.7111 0,0.39111 -0.24,0.66169 -0.53333,0.60129 -0.29333,-0.0604 -1.65333,0.37234 -3.02221,0.96167 -4.35084,1.87311 -5.32046,2.22109 -5.86664,2.10548 -0.29333,-0.0621 -0.53333,0.17241 -0.53333,0.52112 0,0.34871 -0.87999,0.85424 -1.95554,1.1234 -2.56689,0.64236 -24.24453,10.85647 -25.06654,11.8109 -0.19556,0.22705 -1.95555,1.18674 -3.9111,2.13266 -1.95554,0.94591 -3.71553,1.90767 -3.91109,2.13723 -0.19555,0.22955 -2.24795,1.61939 -4.56088,3.08852 -2.31292,1.46913 -4.58224,3.0416 -5.04292,3.49437 -0.46067,0.45277 -1.90371,1.62322 -3.20675,2.60099 -2.55859,1.91992 -4.30414,3.5922 -7.12337,6.8244 -10.6827,12.24754 -12.70067,26.15219 -5.90879,40.71405 2.02948,4.35124 6.59138,11.72333 7.47274,12.07606 0.32576,0.13038 0.59228,0.54492 0.59228,0.92121 0,0.37629 0.72,1.42942 1.6,2.34026 0.87999,0.91085 2.0929,2.25629 2.69534,2.98989 0.60244,0.73358 2.48002,2.45379 4.17239,3.82267 1.69237,1.36888 3.49659,2.88887 4.00939,3.37776 0.51279,0.48889 1.24853,0.88888 1.63498,0.88888 0.38646,0 0.80931,0.24 0.93968,0.53333 0.39748,0.89432 9.56953,5.12118 10.61658,4.89257 0.23322,-0.0509 0.95321,0.34659 1.59999,0.88336 0.64678,0.53678 1.17596,0.79208 1.17596,0.56735 0,-0.22473 1.51999,0.0646 3.37776,0.64293 4.09278,1.27413 10.42001,2.58983 16.94642,3.52387 1.53275,0.21935 3.74681,0.57845 4.92013,0.79799 1.17333,0.21954 3.25332,0.49575 4.6222,0.6138 1.36889,0.11805 2.48888,0.27819 2.48888,0.35588 0,0.0777 0.96,0.22533 2.13332,0.32812 1.17333,0.10278 2.13333,0.25054 2.13333,0.32836 0,0.17468 3.81711,0.84577 5.51108,0.9689 0.68444,0.0498 1.24444,0.37612 1.24444,0.72526 0,0.34915 0.46975,0.45455 1.04388,0.23423 0.57414,-0.22031 1.23626,-0.0893 1.47135,0.29108 0.23511,0.38041 0.70325,0.52121 1.0403,0.31289 0.33706,-0.20831 0.81706,-0.0483 1.06667,0.35556 0.2496,0.40386 0.75171,0.5502 1.1158,0.32518 0.36408,-0.22502 0.66197,-0.036 0.66197,0.42004 0,0.45603 0.47999,0.64496 1.06666,0.41984 0.58666,-0.22513 1.06666,-0.12479 1.06666,0.22297 0,0.34776 0.95999,0.84314 2.13332,1.10084 1.17333,0.25771 2.13332,0.78202 2.13332,1.16513 0,0.38312 0.27154,0.52876 0.60342,0.32365 0.33187,-0.20511 1.27849,0.256 2.10358,1.02469 0.8251,0.76869 1.66991,1.39763 1.87734,1.39763 0.45254,0 2.79372,1.88713 5.07265,4.08886 0.91085,0.88 1.8196,1.6 2.01944,1.6 0.48337,0 10.36791,9.8979 10.36791,10.38192 0,0.20756 1.75999,2.10946 3.91109,4.22645 2.1511,2.117 3.91109,4.04775 3.91109,4.29055 0,0.24282 0.96,1.33825 2.13332,2.4343 1.17333,1.09605 2.13333,2.19898 2.13333,2.45095 0,0.25197 0.71999,1.1932 1.59999,2.09162 0.87999,0.89841 3.51998,3.80497 5.86664,6.45901 10.82583,12.24395 21.25866,22.99318 25.2114,25.97602 1.2957,0.97777 2.92621,2.25776 3.62336,2.84443 0.69715,0.58666 1.96731,1.65162 2.82257,2.36658 0.85527,0.71497 3.21,2.31496 5.23274,3.55554 2.02275,1.24059 4.30991,2.65637 5.0826,3.1462 0.77269,0.48982 2.20488,1.20995 3.18266,1.6003 0.97777,0.39034 2.38954,1.06462 3.13728,1.49841 1.86622,1.08264 9.12172,3.54419 9.45735,3.20856 0.14986,-0.14986 1.61734,0.13279 3.26109,0.62809 2.95359,0.88999 25.51359,0.93732 32.14404,0.0674 z"
       id="path244"
       inkscape:connector-curvature="0"
       transform="matrix(0.26458333,0,0,0.26458333,0,177)" />
    <path
       style="fill:none;stroke:black;stroke-width:0.14044083;stroke-linecap:butt;stroke-linejoin:miter;stroke-opacity:1;fill-opacity:1;marker-end:none;marker-start:none;stroke-dasharray:0.14044083,0.70220417"
       d="m 133.77266,213.08635 18.62658,10.34809 -13.17031,22.57767 -30.85614,10.53624 -14.487335,-12.04142 -16.7451,-12.04142 29.162815,-15.99252 z"
       id="path246"
       inkscape:connector-curvature="0" />
  </g>
</svg>
